<svg id="svg" version="1.1" xmlns="http://www.w3.org/2000/svg" xmlns:xlink="http://www.w3.org/1999/xlink" width="400" height="400" viewBox="0, 0, 400,400"><g id="svgg"><path id="path0" d="M71.735 96.691 C 70.678 96.787,69.947 97.091,69.735 97.521 C 69.304 98.395,69.077 194.178,69.500 196.700 L 69.818 198.600 80.009 198.716 C 92.648 198.860,92.512 198.881,93.238 196.693 C 93.970 194.487,94.000 99.894,93.268 98.528 C 92.215 96.559,82.398 95.722,71.735 96.691 M121.544 97.076 C 119.958 98.061,119.959 97.996,120.021 150.206 C 120.075 196.189,120.049 198.083,119.340 198.867 C 117.659 200.723,116.640 200.922,107.079 201.258 C 102.063 201.434,97.811 201.670,97.630 201.782 C 97.003 202.169,97.985 205.628,99.142 207.111 C 99.911 208.096,100.547 209.666,101.023 211.749 C 101.419 213.481,102.116 215.461,102.571 216.149 C 104.238 218.665,104.411 219.179,105.470 224.783 C 105.614 225.543,106.325 226.942,107.049 227.892 C 107.774 228.841,108.474 230.289,108.604 231.109 C 109.127 234.398,109.804 236.282,111.061 237.945 C 111.787 238.904,112.488 240.344,112.619 241.145 C 113.301 245.309,113.873 247.184,115.014 249.000 C 115.763 250.190,116.601 252.402,117.087 254.462 C 117.652 256.865,118.272 258.395,119.110 259.462 C 119.965 260.551,120.445 261.758,120.756 263.600 C 121.391 267.371,121.849 268.738,123.063 270.491 C 123.671 271.368,124.543 273.627,125.053 275.645 C 125.623 277.901,126.337 279.685,126.970 280.438 C 127.972 281.628,128.231 282.388,129.209 287.000 C 129.719 289.405,130.353 290.754,131.608 292.100 C 131.977 292.497,132.600 294.347,132.991 296.212 C 133.766 299.903,134.804 301.635,137.200 303.234 C 139.843 304.997,165.157 304.643,167.588 302.809 L 168.512 302.112 166.602 301.158 C 165.551 300.633,164.224 299.591,163.653 298.843 C 163.082 298.094,162.000 297.225,161.249 296.911 C 159.656 296.245,159.005 295.663,158.647 294.581 C 158.505 294.152,157.823 293.522,157.133 293.183 C 156.442 292.844,155.555 291.966,155.162 291.233 C 154.769 290.500,153.904 289.570,153.241 289.166 C 152.547 288.745,151.668 287.628,151.172 286.538 C 150.697 285.496,149.915 284.334,149.435 283.956 C 148.394 283.137,146.958 280.352,146.570 278.400 C 146.418 277.630,145.990 276.788,145.620 276.529 C 144.212 275.543,143.153 271.482,142.565 264.820 C 142.421 263.180,141.993 261.110,141.614 260.220 C 140.248 257.008,140.323 248.229,141.742 245.133 C 142.078 244.400,142.463 242.720,142.597 241.400 C 143.288 234.602,144.131 231.557,145.613 230.510 C 145.995 230.240,146.432 229.353,146.585 228.538 C 147.014 226.254,148.328 223.774,149.420 223.189 C 150.022 222.867,150.562 222.083,150.806 221.177 C 151.367 219.095,158.698 211.134,160.600 210.541 C 161.040 210.404,161.850 209.749,162.400 209.085 C 162.950 208.421,164.345 207.457,165.500 206.944 C 166.655 206.430,167.606 205.783,167.613 205.505 C 167.638 204.496,171.899 202.400,173.926 202.400 C 174.309 202.400,174.878 202.047,175.189 201.615 C 175.501 201.183,176.305 200.712,176.978 200.568 C 177.650 200.424,178.380 200.192,178.600 200.053 C 178.820 199.914,179.804 199.620,180.788 199.400 C 182.456 199.026,182.624 198.866,183.311 197.000 C 183.715 195.900,184.561 194.354,185.191 193.564 C 185.820 192.774,186.548 191.334,186.808 190.364 C 187.811 186.625,188.512 184.969,189.438 184.154 C 189.966 183.689,190.498 182.699,190.620 181.954 C 191.226 178.260,192.538 174.982,193.653 174.376 C 194.013 174.181,194.429 173.342,194.578 172.511 C 195.171 169.201,196.911 164.996,197.835 164.642 C 198.090 164.544,198.608 163.145,198.987 161.532 C 199.810 158.026,200.998 155.252,201.810 154.941 C 202.134 154.816,202.400 154.380,202.400 153.971 C 202.400 151.956,204.604 146.916,205.627 146.591 C 205.981 146.479,206.868 145.175,207.599 143.694 C 209.520 139.801,209.929 139.390,210.767 140.512 C 212.639 143.014,212.589 142.265,212.800 170.880 C 212.928 188.166,213.145 198.092,213.400 198.324 C 213.620 198.523,214.970 198.926,216.400 199.218 C 219.164 199.782,221.384 200.861,221.752 201.818 C 221.874 202.138,222.249 202.400,222.583 202.400 C 223.827 202.400,228.437 204.522,228.843 205.281 C 229.075 205.714,229.881 206.325,230.635 206.640 C 231.944 207.187,234.400 209.389,234.400 210.016 C 234.400 210.179,234.833 210.422,235.362 210.555 C 235.907 210.692,236.799 211.547,237.420 212.528 C 238.022 213.481,238.894 214.427,239.356 214.630 C 239.818 214.834,240.557 215.751,240.998 216.670 C 241.439 217.588,242.386 218.848,243.102 219.470 C 244.635 220.801,246.200 225.432,245.622 226.928 C 245.255 227.878,243.434 229.600,242.796 229.600 C 242.577 229.600,241.811 230.223,241.093 230.984 C 240.014 232.127,239.204 232.507,236.416 233.173 C 234.562 233.616,232.898 234.239,232.720 234.558 C 232.024 235.800,229.715 236.733,226.078 237.240 C 221.725 237.847,220.804 237.533,219.321 234.938 C 218.838 234.092,217.938 233.116,217.321 232.769 C 216.705 232.422,216.004 231.749,215.764 231.272 C 215.050 229.850,213.926 228.800,213.118 228.800 C 212.701 228.800,211.707 228.165,210.908 227.390 C 210.109 226.614,208.993 225.879,208.428 225.756 C 207.863 225.634,206.878 225.369,206.240 225.167 C 201.924 223.801,189.330 225.011,187.012 227.014 C 186.143 227.766,184.581 228.686,183.541 229.060 C 182.198 229.543,181.452 230.108,180.966 231.011 C 180.590 231.710,179.702 232.594,178.994 232.975 C 178.008 233.506,177.531 234.185,176.957 235.875 C 176.544 237.089,175.644 238.739,174.958 239.541 C 172.834 242.023,171.743 252.354,172.797 260.000 C 173.055 261.870,173.360 264.077,173.475 264.904 C 173.604 265.825,174.047 266.693,174.618 267.143 C 175.131 267.546,176.311 269.344,177.241 271.138 C 178.170 272.932,179.174 274.400,179.472 274.400 C 179.769 274.400,180.827 275.273,181.822 276.340 C 183.171 277.788,184.211 278.470,185.915 279.028 C 187.172 279.440,189.190 280.411,190.400 281.187 L 192.600 282.598 198.515 282.599 C 202.331 282.600,204.530 282.446,204.715 282.165 C 205.197 281.431,208.621 279.600,209.512 279.600 C 209.974 279.600,210.451 279.441,210.571 279.246 C 210.692 279.052,211.602 278.771,212.595 278.622 C 213.963 278.416,214.400 278.177,214.400 277.634 C 214.400 276.650,216.109 274.888,217.369 274.572 C 218.050 274.401,218.495 273.949,218.664 273.256 C 218.992 271.907,221.089 268.815,221.719 268.750 C 223.885 268.527,226.652 268.968,227.224 269.627 C 227.578 270.035,228.662 270.493,229.634 270.644 C 231.982 271.008,235.353 272.512,236.049 273.506 C 236.387 273.989,237.612 274.562,239.146 274.955 C 245.829 276.667,247.775 283.431,242.847 287.821 C 242.186 288.410,241.286 289.655,240.848 290.587 C 240.338 291.672,239.631 292.456,238.883 292.766 C 238.237 293.033,237.376 293.894,236.956 294.689 C 236.539 295.481,235.520 296.509,234.690 296.974 C 233.861 297.438,232.855 298.354,232.456 299.009 C 232.057 299.664,230.865 300.630,229.809 301.156 L 227.888 302.112 228.805 302.804 C 230.215 303.868,233.206 304.016,257.880 304.251 C 287.121 304.528,288.437 304.357,289.044 300.207 C 289.393 297.814,289.347 228.782,288.995 227.178 C 288.633 225.527,288.402 225.494,275.200 225.194 C 258.295 224.811,259.794 226.045,259.423 212.205 C 259.270 206.488,259.061 201.727,258.958 201.625 C 258.856 201.523,254.551 201.331,249.393 201.200 L 240.013 200.961 238.307 199.761 L 236.600 198.562 236.400 148.513 L 236.200 98.464 235.204 97.404 L 234.209 96.345 218.121 96.472 C 200.321 96.614,201.244 96.470,200.552 99.200 C 200.413 99.750,199.804 100.740,199.200 101.400 C 198.197 102.495,197.767 103.626,196.417 108.707 C 196.168 109.645,195.464 110.995,194.853 111.707 C 193.808 112.924,193.324 114.491,192.601 119.000 C 192.460 119.880,191.801 121.285,191.136 122.121 C 189.992 123.563,189.114 126.036,188.613 129.235 C 188.489 130.029,187.794 131.369,187.057 132.235 C 186.325 133.096,185.610 134.430,185.468 135.200 C 184.499 140.438,184.251 141.100,182.182 143.960 C 181.641 144.709,181.014 146.004,180.790 146.839 C 180.422 148.204,178.815 150.000,177.962 150.000 C 177.249 150.000,175.708 147.860,174.997 145.883 C 174.586 144.737,173.861 143.494,173.387 143.120 C 172.563 142.470,171.116 138.628,170.554 135.600 C 170.411 134.830,169.897 133.750,169.411 133.200 C 168.330 131.977,167.843 130.684,166.999 126.800 C 166.641 125.150,166.025 123.440,165.631 123.000 C 164.230 121.434,163.119 118.620,162.601 115.323 C 162.456 114.401,162.068 113.423,161.739 113.150 C 160.707 112.293,159.751 109.922,159.019 106.400 C 158.611 104.441,157.988 102.646,157.547 102.165 C 157.126 101.705,156.291 100.357,155.690 99.168 C 154.278 96.373,155.150 96.502,137.400 96.458 C 124.345 96.426,122.475 96.499,121.544 97.076 M264.000 97.174 L 262.200 97.904 262.200 147.918 C 262.200 175.426,262.350 198.083,262.533 198.266 C 262.908 198.642,284.904 198.961,286.300 198.611 L 287.200 198.385 287.240 182.492 C 287.283 165.210,287.297 165.062,288.938 163.836 C 290.021 163.027,290.599 162.994,306.968 162.800 C 324.142 162.597,324.260 162.587,325.600 161.192 C 326.323 160.439,329.810 159.357,332.902 158.925 C 334.011 158.770,334.583 158.414,335.085 157.564 C 335.459 156.931,336.313 156.141,336.982 155.808 C 338.583 155.013,339.600 154.204,339.600 153.726 C 339.600 153.234,341.324 151.600,341.843 151.600 C 342.058 151.600,342.733 150.511,343.345 149.180 C 344.021 147.706,344.797 146.629,345.328 146.427 C 346.040 146.157,346.340 145.443,346.961 142.548 C 347.379 140.596,347.849 138.820,348.005 138.600 C 348.162 138.380,348.406 137.308,348.548 136.219 C 348.808 134.226,349.419 131.960,350.024 130.746 C 350.203 130.386,350.277 129.756,350.188 129.346 C 349.334 125.387,348.280 121.271,347.975 120.705 C 347.769 120.323,347.600 119.616,347.600 119.134 C 347.600 118.651,347.425 117.704,347.212 117.028 C 346.998 116.353,346.728 115.168,346.612 114.395 C 346.474 113.485,346.099 112.850,345.547 112.595 C 344.694 112.199,343.182 109.837,342.597 107.986 C 342.300 107.045,340.976 105.600,340.411 105.600 C 340.159 105.600,338.120 103.935,336.789 102.641 C 336.453 102.315,335.068 101.497,333.712 100.824 C 332.355 100.151,330.993 99.240,330.685 98.800 C 329.301 96.824,323.074 96.445,292.000 96.445 C 267.569 96.445,265.678 96.494,264.000 97.174 M314.530 116.246 C 315.398 116.552,316.399 117.133,316.754 117.537 C 317.109 117.941,317.910 118.398,318.534 118.552 C 319.824 118.871,321.600 120.605,321.600 121.546 C 321.600 121.892,322.006 122.540,322.503 122.987 C 325.357 125.558,325.530 132.602,322.809 135.478 C 322.144 136.181,321.600 136.946,321.600 137.178 C 321.600 137.410,321.420 137.600,321.200 137.600 C 320.980 137.600,320.800 137.842,320.800 138.139 C 320.800 141.291,311.239 143.101,297.863 142.480 L 289.927 142.111 288.663 140.847 L 287.400 139.583 287.400 129.291 C 287.400 116.454,287.556 116.057,292.800 115.547 C 297.211 115.117,312.748 115.617,314.530 116.246 M147.497 141.990 C 148.104 142.865,149.140 144.336,149.800 145.260 C 151.777 148.026,152.205 148.880,152.982 151.600 C 153.391 153.030,154.235 155.023,154.859 156.029 C 155.482 157.035,156.153 158.385,156.349 159.029 C 156.546 159.673,156.947 161.010,157.240 162.000 C 157.533 162.990,158.344 164.610,159.041 165.600 C 159.738 166.590,160.429 168.030,160.576 168.800 C 161.398 173.106,161.822 174.287,163.017 175.600 C 163.924 176.596,164.509 177.862,165.046 179.988 C 165.460 181.632,166.207 183.460,166.705 184.052 C 167.842 185.403,168.800 187.662,168.800 188.993 C 168.800 189.553,168.969 190.323,169.176 190.705 C 169.383 191.087,169.646 191.855,169.761 192.412 C 169.877 192.968,170.515 194.033,171.180 194.777 C 173.245 197.091,173.293 200.133,171.273 200.699 C 169.886 201.088,147.331 201.093,145.949 200.705 C 143.413 199.992,143.496 200.984,143.551 171.840 C 143.595 148.574,143.680 145.162,144.254 143.401 C 145.395 139.901,145.897 139.682,147.497 141.990 M321.400 225.732 C 320.352 226.523,320.117 300.576,321.156 302.519 C 322.445 304.926,344.454 305.248,346.300 302.887 C 347.028 301.956,347.032 226.191,346.305 225.741 C 345.245 225.086,322.267 225.077,321.400 225.732 M77.423 233.806 C 77.081 234.626,76.800 235.596,76.800 235.960 C 76.800 236.691,75.876 238.144,74.582 239.448 C 73.977 240.057,73.542 241.425,73.035 244.310 C 72.606 246.756,72.058 248.616,71.633 249.072 C 70.211 250.599,69.672 251.888,68.997 255.382 C 68.287 259.054,67.939 259.951,66.673 261.380 C 65.697 262.479,66.069 264.329,67.501 265.498 C 68.553 266.357,68.922 266.396,76.081 266.398 C 83.439 266.400,84.145 266.303,87.020 264.900 C 88.154 264.346,89.955 262.000,89.246 262.000 C 88.532 262.000,86.812 256.249,86.794 253.800 C 86.788 252.969,86.491 252.372,84.783 249.757 C 83.796 248.246,83.111 245.986,82.589 242.517 C 82.427 241.444,82.090 240.756,81.660 240.619 C 80.740 240.327,79.740 238.318,78.962 235.200 C 78.157 231.976,78.180 231.996,77.423 233.806 M57.725 293.100 C 57.287 293.485,56.806 294.294,56.657 294.897 C 56.508 295.500,55.852 296.837,55.198 297.868 C 51.349 303.937,51.512 303.983,77.600 304.219 C 104.491 304.462,104.747 304.395,100.945 298.081 C 100.205 296.852,99.600 295.594,99.600 295.285 C 99.600 294.976,99.291 294.201,98.914 293.562 L 98.228 292.400 78.375 292.400 C 60.038 292.400,58.462 292.453,57.725 293.100 " stroke="none" fill="#fbf5f4" fill-rule="evenodd"></path><path id="path1" d="M0.000 200.000 L 0.000 400.000 200.000 400.000 L 400.000 400.000 400.000 200.000 L 400.000 0.000 200.000 0.000 L 0.000 0.000 0.000 200.000 M92.716 92.071 C 97.279 93.220,97.077 90.624,97.176 149.194 C 97.232 182.411,97.391 197.948,97.678 198.294 C 98.118 198.825,112.854 199.061,114.163 198.559 C 115.630 197.996,115.677 196.216,115.541 146.021 C 115.395 92.300,115.248 95.926,117.662 93.757 C 120.065 91.598,120.048 91.600,137.819 91.600 L 154.315 91.600 155.458 92.741 C 156.892 94.173,159.271 96.790,159.934 97.663 C 160.210 98.028,160.599 99.198,160.797 100.263 C 161.703 105.138,162.022 106.083,163.131 107.192 C 164.178 108.239,165.605 112.405,165.601 114.405 C 165.600 114.738,166.219 115.930,166.976 117.053 C 168.388 119.151,169.600 122.917,169.600 125.209 C 169.600 126.116,170.003 126.949,170.947 127.994 C 171.978 129.135,172.452 130.194,172.965 132.500 C 173.450 134.681,174.021 136.009,175.031 137.306 C 175.854 138.362,176.745 140.208,177.201 141.803 C 178.170 145.192,178.241 145.252,178.583 142.976 C 178.905 140.828,180.030 138.576,181.397 137.341 C 181.932 136.859,182.460 135.809,182.603 134.941 C 183.370 130.295,183.791 129.055,185.050 127.720 C 186.090 126.617,186.400 125.888,186.603 124.071 C 186.990 120.600,188.230 117.515,189.650 116.494 C 190.065 116.195,190.456 115.211,190.605 114.094 C 190.744 113.052,191.010 111.750,191.196 111.200 C 191.383 110.650,191.642 109.708,191.773 109.107 C 191.904 108.506,192.549 107.403,193.206 106.655 C 193.863 105.906,194.400 105.060,194.400 104.773 C 194.400 103.860,195.633 99.038,196.126 98.024 C 196.387 97.487,197.766 95.822,199.191 94.324 L 201.782 91.600 217.797 91.600 C 235.729 91.600,236.948 91.762,239.241 94.448 C 240.831 96.311,240.791 94.941,240.798 147.000 C 240.805 199.883,240.728 198.151,243.105 198.544 C 246.250 199.064,258.273 198.835,258.762 198.245 C 259.105 197.833,259.213 184.719,259.186 147.137 C 259.149 95.272,259.143 95.482,260.786 93.606 C 262.498 91.651,263.115 91.612,291.600 91.620 C 319.503 91.628,321.740 91.752,324.285 93.419 C 324.891 93.816,326.751 94.359,328.418 94.626 C 331.632 95.141,334.716 96.334,335.608 97.409 C 335.904 97.766,336.879 98.431,337.773 98.887 C 339.480 99.755,340.800 101.013,340.800 101.770 C 340.800 102.015,341.606 102.657,342.591 103.195 C 343.708 103.805,344.527 104.589,344.767 105.277 C 344.978 105.884,345.869 107.127,346.746 108.040 C 348.177 109.529,349.600 112.556,349.600 114.110 C 349.600 114.417,350.254 115.508,351.054 116.535 C 353.949 120.251,354.012 138.231,351.145 142.263 C 349.803 144.150,348.800 146.454,348.800 147.648 C 348.800 147.973,348.080 148.988,347.200 149.904 C 346.320 150.820,345.600 151.846,345.600 152.185 C 345.600 152.523,345.461 152.800,345.291 152.800 C 345.121 152.800,344.660 153.398,344.266 154.130 C 343.872 154.861,343.177 155.716,342.721 156.030 C 342.266 156.343,340.882 157.430,339.646 158.444 C 337.285 160.382,335.216 161.600,334.286 161.600 C 333.981 161.600,332.923 162.230,331.935 162.999 C 329.151 165.169,325.317 165.595,308.550 165.598 C 292.836 165.600,292.737 165.611,291.279 167.522 L 290.200 168.936 289.949 183.768 C 289.614 203.585,291.147 201.600,276.178 201.600 L 265.621 201.600 264.925 202.900 C 264.249 204.165,264.003 221.735,264.653 222.387 C 264.770 222.504,270.484 222.690,277.351 222.800 C 290.668 223.013,291.067 223.075,292.687 225.170 C 293.062 225.655,293.177 234.712,293.187 264.525 L 293.200 303.250 292.192 305.379 C 290.563 308.823,293.151 308.600,254.800 308.600 L 221.000 308.600 218.642 307.496 C 215.860 306.192,215.955 305.912,219.960 303.591 C 221.281 302.826,222.545 301.797,222.770 301.304 C 223.008 300.783,224.188 299.948,225.594 299.306 C 226.922 298.699,228.109 297.887,228.231 297.501 C 228.552 296.492,230.991 294.741,232.505 294.433 C 233.443 294.243,233.970 293.811,234.418 292.869 C 234.757 292.154,235.747 290.900,236.618 290.084 C 237.488 289.268,238.490 287.970,238.844 287.200 C 239.198 286.430,239.713 285.325,239.988 284.744 C 240.263 284.163,240.918 283.458,241.444 283.176 C 242.718 282.495,242.684 281.287,241.382 280.960 C 240.822 280.819,239.928 280.063,239.396 279.280 C 238.565 278.057,238.019 277.749,235.549 277.107 C 233.306 276.525,232.393 276.057,231.414 274.987 C 230.183 273.644,230.069 273.609,226.122 273.350 L 222.088 273.086 221.284 274.902 C 220.671 276.290,220.155 276.837,219.099 277.219 C 218.132 277.568,217.581 278.097,217.261 278.981 C 216.858 280.097,214.658 281.600,213.429 281.600 C 213.263 281.600,212.404 282.219,211.519 282.976 C 207.264 286.618,188.911 286.547,185.346 282.874 C 184.716 282.225,183.328 281.372,182.262 280.978 C 181.078 280.541,179.911 279.734,179.262 278.903 C 178.678 278.156,177.701 277.281,177.092 276.958 C 176.409 276.596,175.652 275.610,175.117 274.386 C 174.640 273.294,174.046 272.400,173.797 272.400 C 172.489 272.400,171.075 269.481,170.642 265.886 C 170.486 264.587,170.104 263.686,169.457 263.086 C 166.855 260.670,166.972 247.424,169.630 243.600 C 170.012 243.050,170.446 241.893,170.594 241.029 C 170.991 238.707,172.362 236.052,173.659 235.093 C 174.438 234.517,174.800 233.897,174.800 233.136 C 174.800 231.769,179.589 226.862,181.247 226.531 C 181.831 226.414,182.493 225.915,182.717 225.422 C 183.292 224.159,185.610 223.177,189.122 222.708 C 190.984 222.459,192.424 222.036,192.891 221.601 C 194.530 220.074,200.862 219.928,203.669 221.352 C 204.697 221.873,206.407 222.425,207.469 222.577 C 210.806 223.056,212.436 223.707,213.726 225.075 C 214.414 225.804,215.207 226.400,215.490 226.400 C 216.052 226.400,222.000 232.169,222.000 232.715 C 222.000 233.216,224.679 234.400,225.814 234.400 C 226.403 234.400,226.800 234.169,226.800 233.827 C 226.800 232.622,229.387 231.447,233.982 230.566 C 234.741 230.420,235.675 229.904,236.056 229.419 C 236.825 228.442,239.599 226.955,241.300 226.609 C 242.645 226.335,242.813 224.874,241.600 224.000 C 241.160 223.683,240.800 223.221,240.800 222.974 C 240.800 222.727,240.350 222.001,239.800 221.362 C 239.251 220.723,238.801 219.802,238.800 219.316 C 238.800 218.389,237.532 216.959,236.388 216.596 C 236.019 216.479,235.379 215.756,234.966 214.989 C 234.553 214.223,233.942 213.508,233.608 213.400 C 232.717 213.114,230.998 211.536,230.449 210.500 C 230.186 210.005,229.646 209.600,229.247 209.600 C 228.110 209.600,225.948 208.407,224.183 206.805 C 222.955 205.690,221.985 205.223,220.151 204.862 C 218.822 204.600,216.887 203.849,215.852 203.192 C 214.816 202.535,213.317 201.726,212.522 201.393 C 208.414 199.677,208.301 199.117,208.359 180.800 C 208.435 156.530,207.191 147.102,205.166 156.600 C 204.758 158.516,204.346 159.290,203.127 160.439 C 202.077 161.428,201.600 162.220,201.600 162.977 C 201.600 164.842,200.352 168.519,199.145 170.208 C 198.513 171.093,197.640 173.073,197.204 174.608 C 196.316 177.739,195.758 178.969,194.619 180.305 C 194.189 180.809,193.449 182.767,192.975 184.657 C 192.293 187.372,191.849 188.339,190.856 189.266 C 190.165 189.912,189.600 190.809,189.600 191.259 C 189.600 193.043,188.253 196.630,187.262 197.483 C 186.698 197.969,185.958 198.937,185.618 199.634 C 184.401 202.130,180.678 204.139,174.800 205.473 C 174.250 205.598,173.350 206.103,172.800 206.595 C 171.859 207.437,168.376 209.208,166.596 209.749 C 166.154 209.883,165.614 210.394,165.396 210.885 C 165.178 211.376,164.067 212.308,162.927 212.955 C 161.674 213.667,160.764 214.489,160.627 215.033 C 160.497 215.553,159.767 216.243,158.901 216.667 C 157.961 217.126,157.155 217.923,156.743 218.799 C 156.382 219.568,155.595 220.470,154.995 220.803 C 154.312 221.181,153.617 222.135,153.141 223.347 C 152.723 224.413,151.856 226.047,151.215 226.978 C 150.574 227.909,149.585 230.002,149.017 231.628 C 148.449 233.254,147.503 235.308,146.915 236.192 C 143.985 240.598,144.046 266.137,146.996 270.394 C 147.995 271.836,148.829 274.108,149.494 277.200 C 149.612 277.750,150.282 278.740,150.983 279.400 C 152.373 280.710,153.385 282.508,153.803 284.413 C 153.983 285.235,154.571 285.951,155.599 286.599 C 156.579 287.218,157.289 288.058,157.581 288.943 C 157.902 289.914,158.349 290.401,159.094 290.588 C 160.275 290.884,161.040 291.685,161.644 293.260 C 161.942 294.037,162.432 294.392,163.475 294.588 C 165.576 294.982,168.400 296.820,168.400 297.793 C 168.400 298.040,169.344 298.581,170.497 298.996 C 171.651 299.411,172.776 299.907,172.997 300.098 C 173.219 300.289,174.389 301.337,175.598 302.427 C 176.807 303.517,178.149 304.520,178.579 304.657 C 180.895 305.392,180.866 306.499,178.500 307.664 L 176.600 308.600 157.111 308.724 C 135.356 308.863,136.417 308.983,133.367 306.023 C 131.862 304.563,130.400 300.800,130.400 298.390 C 130.400 298.117,130.068 297.603,129.662 297.247 C 128.398 296.138,127.052 292.463,126.587 288.850 C 126.384 287.270,126.009 286.384,125.172 285.507 C 124.051 284.335,123.130 281.829,122.604 278.523 C 122.457 277.601,122.070 276.624,121.742 276.352 C 120.464 275.291,119.138 271.687,118.601 267.815 C 118.448 266.717,118.012 265.554,117.625 265.215 C 116.464 264.197,115.190 260.913,114.600 257.418 C 114.453 256.548,114.016 255.558,113.629 255.218 C 112.322 254.072,111.329 251.101,110.587 246.123 C 110.450 245.201,110.066 244.221,109.734 243.946 C 108.586 242.992,106.400 237.094,106.400 234.947 C 106.400 234.448,106.158 233.896,105.863 233.720 C 104.569 232.949,102.424 227.106,102.405 224.300 C 102.402 223.915,102.253 223.600,102.074 223.600 C 101.080 223.600,99.152 218.677,98.595 214.716 C 98.417 213.452,98.105 212.760,97.648 212.615 C 96.685 212.310,95.695 209.940,94.935 206.120 C 94.018 201.509,94.318 201.601,80.092 201.598 C 69.038 201.596,68.996 201.593,67.821 200.652 L 66.641 199.709 66.290 193.354 C 65.910 186.478,66.236 98.363,66.650 95.909 C 66.806 94.986,67.425 93.879,68.274 93.005 L 69.647 91.591 80.320 91.614 C 86.585 91.627,91.704 91.816,92.716 92.071 M294.540 120.376 C 290.226 121.061,289.800 122.106,290.091 131.295 C 290.352 139.530,289.214 138.956,304.863 138.737 L 314.668 138.600 316.148 137.300 C 316.962 136.585,317.764 136.000,317.931 136.000 C 318.098 136.000,318.560 134.965,318.957 133.700 C 319.355 132.435,319.834 131.100,320.023 130.733 C 320.392 130.016,319.819 125.603,319.211 124.474 C 319.012 124.103,318.755 123.347,318.640 122.793 C 318.194 120.636,302.693 119.081,294.540 120.376 M149.517 153.358 C 147.841 154.597,146.648 189.105,148.041 196.066 C 148.609 198.902,148.187 198.789,158.200 198.789 C 166.819 198.789,168.176 198.637,167.821 197.710 C 167.697 197.388,167.291 195.569,166.917 193.668 C 166.364 190.853,166.012 189.984,165.019 188.986 C 163.890 187.852,163.226 186.187,162.585 182.883 C 162.444 182.158,161.920 181.157,161.421 180.658 C 160.391 179.628,159.038 176.258,158.601 173.633 C 158.440 172.662,157.995 171.531,157.613 171.121 C 156.362 169.779,154.822 166.130,154.558 163.884 C 154.357 162.170,154.110 161.596,153.445 161.293 C 152.247 160.748,151.536 159.056,150.517 154.327 C 150.237 153.027,150.120 152.913,149.517 153.358 M347.292 223.296 C 349.691 224.428,349.600 222.815,349.595 264.514 C 349.590 306.010,349.591 305.991,347.392 307.900 C 346.365 308.792,346.241 308.800,333.958 308.800 C 313.741 308.800,315.643 313.403,315.664 264.523 C 315.682 222.676,315.505 225.164,318.571 223.769 C 320.996 222.666,345.115 222.269,347.292 223.296 M80.615 229.875 C 81.157 231.017,81.600 232.202,81.600 232.510 C 81.600 232.817,82.214 233.863,82.964 234.834 C 84.216 236.455,84.745 237.986,85.852 243.196 C 85.968 243.744,86.193 244.284,86.351 244.396 C 87.528 245.231,88.502 247.592,89.164 251.210 C 89.806 254.723,90.077 255.442,91.192 256.592 C 92.317 257.752,92.523 258.309,92.824 260.997 C 93.014 262.689,93.284 264.436,93.425 264.879 C 93.806 266.079,92.437 268.308,91.014 268.807 C 89.392 269.376,66.556 269.352,64.916 268.780 C 62.979 268.105,61.958 262.916,63.172 259.919 C 63.377 259.413,63.645 258.526,63.768 257.947 C 63.891 257.367,64.524 256.324,65.174 255.628 C 66.000 254.744,66.429 253.794,66.598 252.481 C 67.140 248.248,68.106 245.747,69.718 244.400 C 70.232 243.971,70.532 242.890,70.773 240.600 C 71.155 236.967,71.617 235.577,73.081 233.658 C 73.646 232.918,74.624 231.279,75.255 230.017 C 77.169 226.185,78.843 226.141,80.615 229.875 M99.124 288.265 C 99.852 288.592,100.563 289.162,100.704 289.530 C 100.845 289.899,101.302 290.560,101.721 291.000 C 103.860 293.249,104.344 294.278,104.965 297.900 C 105.986 303.852,105.852 306.009,104.374 307.425 L 103.147 308.600 78.074 308.600 L 53.000 308.600 51.700 307.434 C 49.348 305.324,50.887 292.661,53.600 291.800 C 53.939 291.693,54.535 291.012,54.925 290.288 C 56.286 287.759,55.878 287.819,73.200 287.600 C 92.583 287.355,97.374 287.478,99.124 288.265 " stroke="none" fill="#e21c14" fill-rule="evenodd"></path><path id="path2" d="M286.800 94.432 C 284.930 94.631,279.530 94.703,274.800 94.593 C 267.194 94.414,265.973 94.474,264.232 95.111 C 260.449 96.494,260.812 90.983,260.699 148.715 C 260.612 193.464,260.527 199.675,260.000 200.008 C 258.584 200.903,242.332 200.461,240.600 199.481 L 239.000 198.575 238.800 148.091 L 238.600 97.607 237.600 96.690 C 235.051 94.353,234.997 94.346,217.863 94.479 L 202.138 94.600 200.882 95.856 C 198.928 97.810,196.916 101.575,196.220 104.578 C 195.821 106.297,195.090 107.997,194.252 109.156 C 193.519 110.170,192.723 111.900,192.483 113.000 C 191.706 116.568,191.420 117.365,190.099 119.650 C 189.352 120.942,188.699 122.731,188.566 123.850 C 188.269 126.342,187.757 127.718,186.202 130.200 C 185.513 131.300,184.624 133.544,184.227 135.187 C 183.607 137.752,182.803 139.641,182.009 140.400 C 181.375 141.006,180.806 142.565,180.571 144.338 C 180.388 145.711,179.942 146.764,179.156 147.672 L 178.008 149.000 177.201 148.052 C 176.758 147.531,176.121 146.164,175.787 145.014 C 175.453 143.865,174.655 142.098,174.015 141.088 C 173.374 140.078,172.558 138.025,172.201 136.526 C 171.502 133.590,170.439 130.800,170.018 130.800 C 169.661 130.800,168.538 127.535,167.828 124.433 C 167.498 122.996,166.721 121.145,166.062 120.226 C 165.414 119.324,164.569 117.329,164.184 115.793 C 163.799 114.257,163.070 112.344,162.564 111.543 C 161.703 110.179,160.918 107.984,159.938 104.200 C 159.144 101.135,156.652 96.571,155.044 95.237 C 154.583 94.854,150.540 94.718,138.091 94.667 L 121.742 94.600 120.277 95.716 C 117.621 97.738,117.800 93.944,117.800 148.292 L 117.800 197.984 116.801 198.692 C 114.461 200.350,114.119 200.400,105.168 200.400 C 97.253 200.400,96.393 200.466,96.056 201.100 C 95.513 202.124,96.752 206.618,98.239 209.017 C 98.921 210.116,99.703 212.001,99.978 213.207 C 100.451 215.283,101.510 217.963,102.031 218.400 C 102.468 218.767,103.451 221.787,104.439 225.800 C 104.656 226.680,105.543 228.841,106.410 230.602 C 107.278 232.364,108.204 234.884,108.468 236.202 C 108.732 237.521,109.194 238.848,109.495 239.150 C 110.149 239.807,111.441 242.599,111.739 244.000 C 112.520 247.665,113.072 249.278,114.425 251.847 C 115.266 253.445,116.072 255.438,116.215 256.276 C 116.680 258.996,117.210 260.753,117.726 261.282 C 118.521 262.098,119.981 265.790,120.417 268.088 C 120.850 270.374,121.631 272.400,122.079 272.400 C 122.669 272.400,124.222 276.593,124.582 279.158 C 124.717 280.125,125.156 281.385,125.558 281.958 C 126.906 283.883,128.057 286.959,128.568 290.000 C 128.697 290.770,129.339 292.208,129.994 293.195 C 131.087 294.843,131.552 296.090,132.757 300.600 C 133.255 302.464,134.360 303.797,136.621 305.259 L 138.242 306.307 156.421 306.328 C 168.454 306.342,174.274 306.219,173.636 305.964 C 172.309 305.433,171.628 304.426,171.613 302.971 C 171.601 301.846,171.347 301.615,168.607 300.242 C 166.960 299.418,165.276 298.315,164.865 297.792 C 164.453 297.268,163.415 296.559,162.558 296.215 C 161.674 295.859,160.589 294.986,160.048 294.194 C 159.525 293.428,158.935 292.800,158.736 292.800 C 158.538 292.800,157.796 292.132,157.088 291.315 C 156.379 290.498,155.147 289.175,154.348 288.376 C 153.550 287.577,152.573 286.221,152.179 285.362 C 151.784 284.503,150.875 282.982,150.158 281.983 C 149.441 280.984,148.467 279.184,147.995 277.983 C 147.522 276.782,146.808 275.170,146.408 274.400 C 144.885 271.472,144.482 270.081,144.034 266.200 C 143.781 264.000,143.399 261.199,143.186 259.976 C 142.637 256.811,142.721 250.978,143.399 245.400 C 144.479 236.499,144.969 234.421,146.446 232.481 C 146.830 231.975,147.537 230.265,148.016 228.681 C 148.584 226.799,149.289 225.410,150.047 224.676 C 150.686 224.057,151.591 222.802,152.058 221.886 C 152.526 220.970,153.379 219.747,153.954 219.170 C 154.529 218.592,155.569 217.507,156.265 216.760 C 156.960 216.012,157.950 215.007,158.465 214.527 C 158.979 214.047,159.846 213.192,160.392 212.627 C 160.937 212.062,161.546 211.600,161.744 211.600 C 161.943 211.600,162.667 211.005,163.353 210.278 C 164.039 209.551,165.433 208.540,166.452 208.031 C 167.471 207.522,168.878 206.616,169.580 206.017 C 170.281 205.419,171.878 204.620,173.128 204.244 C 175.115 203.644,178.325 202.303,180.495 201.164 C 180.877 200.964,181.428 200.800,181.720 200.800 C 182.322 200.800,184.400 198.759,184.400 198.167 C 184.400 197.953,185.120 196.820,186.000 195.649 C 186.880 194.478,187.600 193.250,187.600 192.921 C 187.600 191.667,188.851 188.097,189.555 187.340 C 190.440 186.390,191.325 184.441,191.978 182.000 C 192.243 181.010,192.737 179.660,193.076 179.000 C 193.414 178.340,194.108 176.990,194.618 176.000 C 195.127 175.010,195.851 172.992,196.227 171.516 C 196.603 170.041,197.221 168.499,197.601 168.091 C 198.627 166.990,199.210 165.761,199.995 163.043 C 200.767 160.372,201.997 157.600,202.410 157.600 C 202.667 157.600,203.266 155.793,204.068 152.600 C 204.520 150.801,205.603 148.400,205.963 148.400 C 206.781 148.398,208.389 146.221,209.213 144.000 L 210.177 141.400 210.684 143.600 C 211.054 145.208,211.189 150.749,211.184 164.200 C 211.180 174.320,211.182 186.063,211.189 190.297 L 211.200 197.993 212.427 199.166 C 213.177 199.882,214.300 200.448,215.312 200.619 C 216.896 200.886,218.369 201.497,218.802 202.065 C 219.086 202.438,225.103 204.800,225.768 204.800 C 226.068 204.800,226.417 205.068,226.543 205.396 C 226.669 205.724,227.813 206.654,229.086 207.464 C 231.108 208.751,233.049 210.395,235.509 212.905 C 235.889 213.292,237.145 214.570,238.300 215.744 C 239.455 216.919,240.400 218.087,240.400 218.340 C 240.400 218.594,241.093 219.476,241.939 220.301 C 243.415 221.739,244.069 222.972,244.564 225.256 C 244.805 226.364,242.858 228.800,241.732 228.800 C 241.448 228.800,240.267 229.395,239.108 230.123 C 237.220 231.308,236.159 231.732,232.834 232.634 C 232.302 232.778,230.716 233.684,229.309 234.648 C 225.713 237.110,222.719 237.202,220.829 234.909 C 220.153 234.089,219.600 233.266,219.600 233.080 C 219.600 232.672,218.569 231.600,218.175 231.600 C 217.799 231.600,216.400 229.969,216.400 229.530 C 216.400 229.339,215.632 228.691,214.693 228.091 C 213.755 227.491,212.360 226.526,211.593 225.946 C 206.208 221.871,189.172 222.241,184.419 226.535 C 183.568 227.304,182.450 228.156,181.935 228.427 C 180.838 229.005,176.413 233.248,176.405 233.730 C 176.402 233.911,175.584 235.322,174.586 236.865 C 173.329 238.807,172.519 240.673,171.951 242.935 C 171.499 244.731,170.869 247.190,170.551 248.400 C 169.781 251.324,170.147 257.114,171.385 261.600 C 171.902 263.470,172.454 265.630,172.614 266.400 C 172.773 267.170,173.333 268.340,173.858 269.000 C 174.383 269.660,174.953 270.380,175.126 270.600 C 175.299 270.820,175.573 271.270,175.736 271.600 C 176.534 273.221,177.226 274.058,179.960 276.709 C 181.859 278.551,183.579 279.829,184.760 280.275 C 185.772 280.657,186.866 281.230,187.192 281.548 C 189.790 284.087,204.117 284.799,207.654 282.565 C 208.614 281.959,210.475 281.042,211.788 280.527 C 213.319 279.927,214.756 278.979,215.788 277.888 C 216.675 276.952,217.895 275.831,218.500 275.398 C 219.105 274.965,219.606 274.428,219.613 274.205 C 219.671 272.434,221.859 270.630,223.810 270.746 C 226.255 270.890,231.882 272.659,232.893 273.601 C 233.915 274.553,235.775 275.418,238.495 276.206 C 243.600 277.686,245.515 281.587,242.811 285.000 C 241.940 286.100,240.842 287.720,240.373 288.600 C 239.903 289.480,238.772 290.940,237.860 291.845 C 236.947 292.750,235.877 293.964,235.482 294.544 C 235.087 295.124,234.187 295.893,233.482 296.253 C 232.777 296.613,231.480 297.565,230.600 298.370 C 229.720 299.174,228.125 300.256,227.055 300.773 C 225.177 301.683,224.519 303.852,225.748 305.081 C 227.750 307.084,287.600 307.121,287.600 305.120 C 287.600 304.944,287.868 304.800,288.197 304.800 C 290.311 304.800,291.104 302.678,291.377 296.284 C 291.927 283.413,291.458 226.008,290.800 225.587 C 289.296 224.624,286.667 224.402,276.400 224.370 C 267.255 224.342,265.063 224.223,263.400 223.668 L 261.400 223.000 261.287 213.000 C 261.129 198.924,259.649 200.298,274.882 200.379 L 285.965 200.437 287.182 199.353 L 288.400 198.268 288.400 182.117 C 288.400 166.423,288.423 165.942,289.215 165.092 C 290.021 164.226,290.198 164.215,307.515 163.978 L 325.000 163.738 327.800 162.314 C 329.340 161.531,331.297 160.768,332.149 160.618 C 334.114 160.272,334.999 159.766,336.901 157.900 C 337.743 157.075,338.583 156.400,338.768 156.400 C 339.440 156.400,344.107 151.441,344.643 150.159 C 344.945 149.436,345.423 148.699,345.706 148.522 C 346.572 147.979,347.410 146.321,348.195 143.600 C 348.608 142.170,349.313 140.466,349.761 139.814 C 352.022 136.527,352.035 124.539,349.783 119.400 C 349.301 118.300,348.605 116.354,348.235 115.075 C 347.866 113.797,346.963 111.907,346.230 110.875 C 345.496 109.844,344.512 108.238,344.043 107.306 C 343.574 106.374,342.697 105.305,342.095 104.930 C 341.493 104.556,340.259 103.518,339.354 102.625 C 338.449 101.731,337.009 100.648,336.154 100.219 C 335.299 99.789,333.722 98.812,332.650 98.047 C 330.668 96.636,329.328 96.258,324.157 95.651 C 322.593 95.468,321.063 95.158,320.757 94.963 C 320.451 94.768,315.430 94.588,309.600 94.562 C 303.770 94.536,297.020 94.415,294.600 94.293 C 292.180 94.170,288.670 94.233,286.800 94.432 M71.242 94.694 C 69.705 94.881,68.983 95.466,68.402 96.996 C 68.141 97.682,68.000 115.597,68.000 148.171 L 68.000 198.291 69.099 199.390 L 70.199 200.490 82.170 200.302 L 94.141 200.114 94.901 199.174 C 95.980 197.842,95.959 99.498,94.879 97.326 C 93.587 94.726,81.768 93.410,71.242 94.694 M91.453 97.052 C 92.209 97.411,93.026 98.075,93.268 98.528 C 94.000 99.894,93.970 194.487,93.238 196.693 C 92.512 198.881,92.648 198.860,80.009 198.716 L 69.818 198.600 69.500 196.700 C 69.077 194.178,69.304 98.395,69.735 97.521 C 70.160 96.658,71.315 96.557,81.740 96.470 C 88.722 96.411,90.303 96.506,91.453 97.052 M153.399 96.751 C 154.347 96.954,154.828 97.461,155.690 99.168 C 156.291 100.357,157.126 101.705,157.547 102.165 C 157.988 102.646,158.611 104.441,159.019 106.400 C 159.751 109.922,160.707 112.293,161.739 113.150 C 162.068 113.423,162.456 114.401,162.601 115.323 C 163.119 118.620,164.230 121.434,165.631 123.000 C 166.025 123.440,166.641 125.150,166.999 126.800 C 167.843 130.684,168.330 131.977,169.411 133.200 C 169.897 133.750,170.411 134.830,170.554 135.600 C 171.116 138.628,172.563 142.470,173.387 143.120 C 173.861 143.494,174.586 144.737,174.997 145.883 C 175.708 147.860,177.249 150.000,177.962 150.000 C 178.815 150.000,180.422 148.204,180.790 146.839 C 181.014 146.004,181.641 144.709,182.182 143.960 C 184.251 141.100,184.499 140.438,185.468 135.200 C 185.610 134.430,186.325 133.096,187.057 132.235 C 187.794 131.369,188.489 130.029,188.613 129.235 C 189.114 126.036,189.992 123.563,191.136 122.121 C 191.801 121.285,192.460 119.880,192.601 119.000 C 193.324 114.491,193.808 112.924,194.853 111.707 C 195.464 110.995,196.168 109.645,196.417 108.707 C 197.767 103.626,198.197 102.495,199.200 101.400 C 199.804 100.740,200.413 99.750,200.552 99.200 C 201.244 96.470,200.321 96.614,218.121 96.472 L 234.209 96.345 235.204 97.404 L 236.200 98.464 236.400 148.513 L 236.600 198.562 238.307 199.761 L 240.013 200.961 249.393 201.200 C 254.551 201.331,258.856 201.523,258.958 201.625 C 259.061 201.727,259.270 206.488,259.423 212.205 C 259.794 226.045,258.295 224.811,275.200 225.194 C 288.402 225.494,288.633 225.527,288.995 227.178 C 289.347 228.782,289.393 297.814,289.044 300.207 C 288.437 304.357,287.121 304.528,257.880 304.251 C 233.206 304.016,230.215 303.868,228.805 302.804 L 227.888 302.112 229.809 301.156 C 230.865 300.630,232.057 299.664,232.456 299.009 C 232.855 298.354,233.861 297.438,234.690 296.974 C 235.520 296.509,236.539 295.481,236.956 294.689 C 237.376 293.894,238.237 293.033,238.883 292.766 C 239.631 292.456,240.338 291.672,240.848 290.587 C 241.286 289.655,242.186 288.410,242.847 287.821 C 247.775 283.431,245.829 276.667,239.146 274.955 C 237.612 274.562,236.387 273.989,236.049 273.506 C 235.353 272.512,231.982 271.008,229.634 270.644 C 228.662 270.493,227.578 270.035,227.224 269.627 C 226.652 268.968,223.885 268.527,221.719 268.750 C 221.089 268.815,218.992 271.907,218.664 273.256 C 218.495 273.949,218.050 274.401,217.369 274.572 C 216.109 274.888,214.400 276.650,214.400 277.634 C 214.400 278.177,213.963 278.416,212.595 278.622 C 211.602 278.771,210.692 279.052,210.571 279.246 C 210.451 279.441,209.974 279.600,209.512 279.600 C 208.621 279.600,205.197 281.431,204.715 282.165 C 204.530 282.446,202.331 282.600,198.515 282.599 L 192.600 282.598 190.400 281.187 C 189.190 280.411,187.172 279.440,185.915 279.028 C 184.211 278.470,183.171 277.788,181.822 276.340 C 180.827 275.273,179.769 274.400,179.472 274.400 C 179.174 274.400,178.170 272.932,177.241 271.138 C 176.311 269.344,175.131 267.546,174.618 267.143 C 174.047 266.693,173.604 265.825,173.475 264.904 C 173.360 264.077,173.055 261.870,172.797 260.000 C 171.743 252.354,172.834 242.023,174.958 239.541 C 175.644 238.739,176.544 237.089,176.957 235.875 C 177.531 234.185,178.008 233.506,178.994 232.975 C 179.702 232.594,180.590 231.710,180.966 231.011 C 181.452 230.108,182.198 229.543,183.541 229.060 C 184.581 228.686,186.143 227.766,187.012 227.014 C 189.330 225.011,201.924 223.801,206.240 225.167 C 206.878 225.369,207.863 225.634,208.428 225.756 C 208.993 225.879,210.109 226.614,210.908 227.390 C 211.707 228.165,212.701 228.800,213.118 228.800 C 213.926 228.800,215.050 229.850,215.764 231.272 C 216.004 231.749,216.705 232.422,217.321 232.769 C 217.938 233.116,218.838 234.092,219.321 234.938 C 220.804 237.533,221.725 237.847,226.078 237.240 C 229.715 236.733,232.024 235.800,232.720 234.558 C 232.898 234.239,234.562 233.616,236.416 233.173 C 239.204 232.507,240.014 232.127,241.093 230.984 C 241.811 230.223,242.577 229.600,242.796 229.600 C 243.434 229.600,245.255 227.878,245.622 226.928 C 246.200 225.432,244.635 220.801,243.102 219.470 C 242.386 218.848,241.439 217.588,240.998 216.670 C 240.557 215.751,239.818 214.834,239.356 214.630 C 238.894 214.427,238.022 213.481,237.420 212.528 C 236.799 211.547,235.907 210.692,235.362 210.555 C 234.833 210.422,234.400 210.179,234.400 210.016 C 234.400 209.389,231.944 207.187,230.635 206.640 C 229.881 206.325,229.075 205.714,228.843 205.281 C 228.437 204.522,223.827 202.400,222.583 202.400 C 222.249 202.400,221.874 202.138,221.752 201.818 C 221.384 200.861,219.164 199.782,216.400 199.218 C 214.970 198.926,213.620 198.523,213.400 198.324 C 213.145 198.092,212.928 188.166,212.800 170.880 C 212.589 142.265,212.639 143.014,210.767 140.512 C 209.929 139.390,209.520 139.801,207.599 143.694 C 206.868 145.175,205.981 146.479,205.627 146.591 C 204.604 146.916,202.400 151.956,202.400 153.971 C 202.400 154.380,202.134 154.816,201.810 154.941 C 200.998 155.252,199.810 158.026,198.987 161.532 C 198.608 163.145,198.090 164.544,197.835 164.642 C 196.911 164.996,195.171 169.201,194.578 172.511 C 194.429 173.342,194.013 174.181,193.653 174.376 C 192.538 174.982,191.226 178.260,190.620 181.954 C 190.498 182.699,189.966 183.689,189.438 184.154 C 188.512 184.969,187.811 186.625,186.808 190.364 C 186.548 191.334,185.820 192.774,185.191 193.564 C 184.561 194.354,183.715 195.900,183.311 197.000 C 182.624 198.866,182.456 199.026,180.788 199.400 C 179.804 199.620,178.820 199.914,178.600 200.053 C 178.380 200.192,177.650 200.424,176.978 200.568 C 176.305 200.712,175.501 201.183,175.189 201.615 C 174.878 202.047,174.309 202.400,173.926 202.400 C 171.899 202.400,167.638 204.496,167.613 205.505 C 167.606 205.783,166.655 206.430,165.500 206.944 C 164.345 207.457,162.950 208.421,162.400 209.085 C 161.850 209.749,161.040 210.404,160.600 210.541 C 158.698 211.134,151.367 219.095,150.806 221.177 C 150.562 222.083,150.022 222.867,149.420 223.189 C 148.328 223.774,147.014 226.254,146.585 228.538 C 146.432 229.353,145.995 230.240,145.613 230.510 C 144.131 231.557,143.288 234.602,142.597 241.400 C 142.463 242.720,142.078 244.400,141.742 245.133 C 140.323 248.229,140.248 257.008,141.614 260.220 C 141.993 261.110,142.421 263.180,142.565 264.820 C 143.153 271.482,144.212 275.543,145.620 276.529 C 145.990 276.788,146.418 277.630,146.570 278.400 C 146.958 280.352,148.394 283.137,149.435 283.956 C 149.915 284.334,150.697 285.496,151.172 286.538 C 151.668 287.628,152.547 288.745,153.241 289.166 C 153.904 289.570,154.769 290.500,155.162 291.233 C 155.555 291.966,156.442 292.844,157.133 293.183 C 157.823 293.522,158.505 294.152,158.647 294.581 C 159.005 295.663,159.656 296.245,161.249 296.911 C 162.000 297.225,163.082 298.094,163.653 298.843 C 164.224 299.591,165.551 300.633,166.602 301.158 L 168.512 302.112 167.588 302.809 C 165.157 304.643,139.843 304.997,137.200 303.234 C 134.804 301.635,133.766 299.903,132.991 296.212 C 132.600 294.347,131.977 292.497,131.608 292.100 C 130.353 290.754,129.719 289.405,129.209 287.000 C 128.231 282.388,127.972 281.628,126.970 280.438 C 126.337 279.685,125.623 277.901,125.053 275.645 C 124.543 273.627,123.671 271.368,123.063 270.491 C 121.849 268.738,121.391 267.371,120.756 263.600 C 120.445 261.758,119.965 260.551,119.110 259.462 C 118.272 258.395,117.652 256.865,117.087 254.462 C 116.601 252.402,115.763 250.190,115.014 249.000 C 113.873 247.184,113.301 245.309,112.619 241.145 C 112.488 240.344,111.787 238.904,111.061 237.945 C 109.804 236.282,109.127 234.398,108.604 231.109 C 108.474 230.289,107.774 228.841,107.049 227.892 C 106.325 226.942,105.614 225.543,105.470 224.783 C 104.411 219.179,104.238 218.665,102.571 216.149 C 102.116 215.461,101.419 213.481,101.023 211.749 C 100.547 209.666,99.911 208.096,99.142 207.111 C 97.985 205.628,97.003 202.169,97.630 201.782 C 97.811 201.670,102.063 201.434,107.079 201.258 C 116.640 200.922,117.659 200.723,119.340 198.867 C 120.049 198.083,120.075 196.189,120.021 150.206 C 119.959 97.996,119.958 98.061,121.544 97.076 C 122.638 96.397,150.419 96.114,153.399 96.751 M322.200 96.799 C 327.656 97.283,330.011 97.838,330.685 98.800 C 330.993 99.240,332.355 100.151,333.712 100.824 C 335.068 101.497,336.453 102.315,336.789 102.641 C 338.120 103.935,340.159 105.600,340.411 105.600 C 340.976 105.600,342.300 107.045,342.597 107.986 C 343.182 109.837,344.694 112.199,345.547 112.595 C 346.099 112.850,346.474 113.485,346.612 114.395 C 346.728 115.168,346.998 116.353,347.212 117.028 C 347.425 117.704,347.600 118.651,347.600 119.134 C 347.600 119.616,347.769 120.323,347.975 120.705 C 348.280 121.271,349.334 125.387,350.188 129.346 C 350.277 129.756,350.203 130.386,350.024 130.746 C 349.419 131.960,348.808 134.226,348.548 136.219 C 348.406 137.308,348.162 138.380,348.005 138.600 C 347.849 138.820,347.379 140.596,346.961 142.548 C 346.340 145.443,346.040 146.157,345.328 146.427 C 344.797 146.629,344.021 147.706,343.345 149.180 C 342.733 150.511,342.058 151.600,341.843 151.600 C 341.324 151.600,339.600 153.234,339.600 153.726 C 339.600 154.204,338.583 155.013,336.982 155.808 C 336.313 156.141,335.459 156.931,335.085 157.564 C 334.583 158.414,334.011 158.770,332.902 158.925 C 329.810 159.357,326.323 160.439,325.600 161.192 C 324.260 162.587,324.142 162.597,306.968 162.800 C 290.599 162.994,290.021 163.027,288.938 163.836 C 287.297 165.062,287.283 165.210,287.240 182.492 L 287.200 198.385 286.300 198.611 C 284.904 198.961,262.908 198.642,262.533 198.266 C 262.350 198.083,262.200 175.426,262.200 147.918 L 262.200 97.904 264.000 97.174 C 266.017 96.357,313.738 96.050,322.200 96.799 M292.800 115.547 C 287.556 116.057,287.400 116.454,287.400 129.291 L 287.400 139.583 288.663 140.847 L 289.927 142.111 297.863 142.480 C 311.239 143.101,320.800 141.291,320.800 138.139 C 320.800 137.842,320.980 137.600,321.200 137.600 C 321.420 137.600,321.600 137.410,321.600 137.178 C 321.600 136.946,322.144 136.181,322.809 135.478 C 325.530 132.602,325.357 125.558,322.503 122.987 C 322.006 122.540,321.600 121.892,321.600 121.546 C 321.600 120.605,319.824 118.871,318.534 118.552 C 317.910 118.398,317.109 117.941,316.754 117.537 C 315.246 115.821,301.616 114.689,292.800 115.547 M313.527 118.195 C 315.422 118.968,317.260 119.600,317.611 119.600 C 318.384 119.600,320.214 121.480,320.560 122.629 C 320.697 123.086,321.188 123.866,321.651 124.363 C 324.078 126.967,323.917 130.099,321.121 134.707 C 320.285 136.086,319.600 137.360,319.600 137.537 C 319.600 138.306,317.632 139.543,315.600 140.050 C 312.549 140.812,289.950 140.850,289.698 140.093 C 289.605 139.814,289.275 139.332,288.964 139.021 C 288.209 138.266,288.186 122.744,288.936 119.902 C 289.736 116.868,288.937 117.056,301.741 116.895 L 310.082 116.791 313.527 118.195 M145.302 140.900 C 143.686 142.940,143.603 144.401,143.551 171.840 C 143.496 200.984,143.413 199.992,145.949 200.705 C 147.331 201.093,169.886 201.088,171.273 200.699 C 173.293 200.133,173.245 197.091,171.180 194.777 C 170.515 194.033,169.877 192.968,169.761 192.412 C 169.646 191.855,169.383 191.087,169.176 190.705 C 168.969 190.323,168.800 189.553,168.800 188.993 C 168.800 187.662,167.842 185.403,166.705 184.052 C 166.207 183.460,165.460 181.632,165.046 179.988 C 164.509 177.862,163.924 176.596,163.017 175.600 C 161.822 174.287,161.398 173.106,160.576 168.800 C 160.429 168.030,159.738 166.590,159.041 165.600 C 158.344 164.610,157.533 162.990,157.240 162.000 C 156.947 161.010,156.546 159.673,156.349 159.029 C 156.153 158.385,155.482 157.035,154.859 156.029 C 154.235 155.023,153.391 153.030,152.982 151.600 C 152.205 148.880,151.777 148.026,149.800 145.260 C 149.140 144.336,148.104 142.865,147.497 141.990 C 146.323 140.297,145.933 140.103,145.302 140.900 M149.569 148.383 C 150.008 148.618,150.660 149.483,151.017 150.305 C 151.375 151.127,151.832 152.113,152.034 152.495 C 152.235 152.877,152.400 153.441,152.400 153.749 C 152.400 154.766,153.715 158.400,154.083 158.400 C 154.605 158.400,156.237 162.308,156.546 164.299 C 156.691 165.234,157.407 166.944,158.136 168.099 C 158.866 169.255,159.780 171.370,160.166 172.800 C 160.553 174.230,161.293 176.030,161.812 176.800 C 163.015 178.586,164.203 181.389,164.550 183.259 C 164.699 184.062,165.150 185.142,165.551 185.659 C 166.643 187.065,167.504 189.099,168.235 192.000 C 168.598 193.443,169.464 195.401,170.179 196.400 C 172.558 199.721,169.902 200.532,157.400 200.299 C 148.994 200.142,147.333 199.928,145.742 198.794 L 144.891 198.188 144.902 171.598 C 144.909 156.973,145.055 144.735,145.228 144.403 C 145.400 144.072,145.653 143.448,145.790 143.018 C 145.983 142.408,146.339 142.866,147.404 145.096 C 148.155 146.669,149.130 148.148,149.569 148.383 M319.722 225.366 L 318.600 226.331 318.694 264.164 L 318.788 301.997 319.742 303.499 C 321.663 306.522,320.863 306.367,334.131 306.279 L 346.046 306.200 346.762 305.251 C 347.946 303.681,348.723 230.316,347.597 226.390 C 347.025 224.395,347.150 224.413,333.522 224.406 L 320.845 224.400 319.722 225.366 M346.305 225.741 C 347.032 226.191,347.028 301.956,346.300 302.887 C 344.454 305.248,322.445 304.926,321.156 302.519 C 320.117 300.576,320.352 226.523,321.400 225.732 C 322.267 225.077,345.245 225.086,346.305 225.741 M77.530 229.900 C 77.203 230.285,76.606 231.500,76.203 232.600 C 75.800 233.700,75.072 235.140,74.585 235.800 C 73.199 237.680,72.743 238.746,72.381 240.951 C 71.795 244.527,71.512 245.350,70.116 247.546 C 69.189 249.004,68.685 250.349,68.543 251.746 C 68.286 254.272,67.813 255.571,66.119 258.400 C 64.338 261.376,64.144 266.314,65.775 267.186 C 67.148 267.921,89.650 267.588,90.576 266.820 C 91.704 265.884,91.398 262.084,89.982 259.430 C 89.312 258.174,88.432 255.566,88.028 253.634 C 87.282 250.071,86.646 248.400,86.034 248.400 C 85.434 248.400,83.600 242.694,83.600 240.825 C 83.600 240.421,82.992 239.206,82.250 238.127 C 81.507 237.047,80.764 235.542,80.597 234.782 C 80.309 233.465,78.516 229.200,78.250 229.200 C 78.181 229.200,77.857 229.515,77.530 229.900 M78.962 235.200 C 79.740 238.318,80.740 240.327,81.660 240.619 C 82.090 240.756,82.427 241.444,82.589 242.517 C 83.111 245.986,83.796 248.246,84.783 249.757 C 86.491 252.372,86.788 252.969,86.794 253.800 C 86.812 256.249,88.532 262.000,89.246 262.000 C 89.955 262.000,88.154 264.346,87.020 264.900 C 84.145 266.303,83.439 266.400,76.081 266.398 C 68.922 266.396,68.553 266.357,67.501 265.498 C 66.069 264.329,65.697 262.479,66.673 261.380 C 67.939 259.951,68.287 259.054,68.997 255.382 C 69.672 251.888,70.211 250.599,71.633 249.072 C 72.058 248.616,72.606 246.756,73.035 244.310 C 73.542 241.425,73.977 240.057,74.582 239.448 C 75.876 238.144,76.800 236.691,76.800 235.960 C 76.800 235.215,77.974 232.235,78.180 232.457 C 78.253 232.536,78.605 233.770,78.962 235.200 M58.800 290.270 C 57.763 290.450,54.800 293.403,54.800 294.257 C 54.800 294.524,54.575 294.981,54.300 295.271 C 51.995 297.708,51.650 303.806,53.728 305.358 C 54.964 306.280,74.539 306.910,91.400 306.571 C 95.360 306.491,99.410 306.418,100.400 306.410 C 103.917 306.379,105.024 301.599,102.626 296.800 C 99.728 291.002,99.285 290.570,95.969 290.296 C 92.908 290.043,60.239 290.020,58.800 290.270 M98.914 293.562 C 99.291 294.201,99.600 294.976,99.600 295.285 C 99.600 295.594,100.205 296.852,100.945 298.081 C 104.747 304.395,104.491 304.462,77.600 304.219 C 51.512 303.983,51.349 303.937,55.198 297.868 C 55.852 296.837,56.508 295.500,56.657 294.897 C 57.297 292.305,56.474 292.400,78.375 292.400 L 98.228 292.400 98.914 293.562 " stroke="none" fill="#f6968c" fill-rule="evenodd"></path><path id="path3" d="M68.274 93.005 C 67.425 93.879,66.806 94.986,66.650 95.909 C 66.236 98.363,65.910 186.478,66.290 193.354 L 66.641 199.709 67.821 200.652 C 68.996 201.593,69.038 201.596,80.092 201.598 C 94.318 201.601,94.018 201.509,94.935 206.120 C 95.695 209.940,96.685 212.310,97.648 212.615 C 98.105 212.760,98.417 213.452,98.595 214.716 C 99.152 218.677,101.080 223.600,102.074 223.600 C 102.253 223.600,102.402 223.915,102.405 224.300 C 102.424 227.106,104.569 232.949,105.863 233.720 C 106.158 233.896,106.400 234.448,106.400 234.947 C 106.400 237.094,108.586 242.992,109.734 243.946 C 110.066 244.221,110.450 245.201,110.587 246.123 C 111.329 251.101,112.322 254.072,113.629 255.218 C 114.016 255.558,114.453 256.548,114.600 257.418 C 115.190 260.913,116.464 264.197,117.625 265.215 C 118.012 265.554,118.448 266.717,118.601 267.815 C 119.138 271.687,120.464 275.291,121.742 276.352 C 122.070 276.624,122.457 277.601,122.604 278.523 C 123.130 281.829,124.051 284.335,125.172 285.507 C 126.009 286.384,126.384 287.270,126.587 288.850 C 127.052 292.463,128.398 296.138,129.662 297.247 C 130.068 297.603,130.400 298.117,130.400 298.390 C 130.400 300.800,131.862 304.563,133.367 306.023 C 136.417 308.983,135.356 308.863,157.111 308.724 L 176.600 308.600 178.500 307.664 C 180.866 306.499,180.895 305.392,178.579 304.657 C 178.149 304.520,176.807 303.517,175.598 302.427 C 174.389 301.337,173.219 300.289,172.997 300.098 C 172.776 299.907,171.651 299.411,170.497 298.996 C 169.344 298.581,168.400 298.040,168.400 297.793 C 168.400 296.820,165.576 294.982,163.475 294.588 C 162.432 294.392,161.942 294.037,161.644 293.260 C 161.040 291.685,160.275 290.884,159.094 290.588 C 158.349 290.401,157.902 289.914,157.581 288.943 C 157.289 288.058,156.579 287.218,155.599 286.599 C 154.571 285.951,153.983 285.235,153.803 284.413 C 153.385 282.508,152.373 280.710,150.983 279.400 C 150.282 278.740,149.612 277.750,149.494 277.200 C 148.829 274.108,147.995 271.836,146.996 270.394 C 144.046 266.137,143.985 240.598,146.915 236.192 C 147.503 235.308,148.449 233.254,149.017 231.628 C 149.585 230.002,150.574 227.909,151.215 226.978 C 151.856 226.047,152.723 224.413,153.141 223.347 C 153.617 222.135,154.312 221.181,154.995 220.803 C 155.595 220.470,156.382 219.568,156.743 218.799 C 157.155 217.923,157.961 217.126,158.901 216.667 C 159.767 216.243,160.497 215.553,160.627 215.033 C 160.764 214.489,161.674 213.667,162.927 212.955 C 164.067 212.308,165.178 211.376,165.396 210.885 C 165.614 210.394,166.154 209.883,166.596 209.749 C 168.376 209.208,171.859 207.437,172.800 206.595 C 173.350 206.103,174.250 205.598,174.800 205.473 C 180.678 204.139,184.401 202.130,185.618 199.634 C 185.958 198.937,186.698 197.969,187.262 197.483 C 188.253 196.630,189.600 193.043,189.600 191.259 C 189.600 190.809,190.165 189.912,190.856 189.266 C 191.849 188.339,192.293 187.372,192.975 184.657 C 193.449 182.767,194.189 180.809,194.619 180.305 C 195.758 178.969,196.316 177.739,197.204 174.608 C 197.640 173.073,198.513 171.093,199.145 170.208 C 200.352 168.519,201.600 164.842,201.600 162.977 C 201.600 162.220,202.077 161.428,203.127 160.439 C 204.346 159.290,204.758 158.516,205.166 156.600 C 207.191 147.102,208.435 156.530,208.359 180.800 C 208.301 199.117,208.414 199.677,212.522 201.393 C 213.317 201.726,214.816 202.535,215.852 203.192 C 216.887 203.849,218.822 204.600,220.151 204.862 C 221.985 205.223,222.955 205.690,224.183 206.805 C 225.948 208.407,228.110 209.600,229.247 209.600 C 229.646 209.600,230.186 210.005,230.449 210.500 C 230.998 211.536,232.717 213.114,233.608 213.400 C 233.942 213.508,234.553 214.223,234.966 214.989 C 235.379 215.756,236.019 216.479,236.388 216.596 C 237.532 216.959,238.800 218.389,238.800 219.316 C 238.801 219.802,239.251 220.723,239.800 221.362 C 240.350 222.001,240.800 222.727,240.800 222.974 C 240.800 223.221,241.160 223.683,241.600 224.000 C 242.813 224.874,242.645 226.335,241.300 226.609 C 239.599 226.955,236.825 228.442,236.056 229.419 C 235.675 229.904,234.741 230.420,233.982 230.566 C 229.387 231.447,226.800 232.622,226.800 233.827 C 226.800 234.169,226.403 234.400,225.814 234.400 C 224.679 234.400,222.000 233.216,222.000 232.715 C 222.000 232.169,216.052 226.400,215.490 226.400 C 215.207 226.400,214.414 225.804,213.726 225.075 C 212.436 223.707,210.806 223.056,207.469 222.577 C 206.407 222.425,204.697 221.873,203.669 221.352 C 200.862 219.928,194.530 220.074,192.891 221.601 C 192.424 222.036,190.984 222.459,189.122 222.708 C 185.610 223.177,183.292 224.159,182.717 225.422 C 182.493 225.915,181.831 226.414,181.247 226.531 C 179.589 226.862,174.800 231.769,174.800 233.136 C 174.800 233.897,174.438 234.517,173.659 235.093 C 172.362 236.052,170.991 238.707,170.594 241.029 C 170.446 241.893,170.012 243.050,169.630 243.600 C 166.972 247.424,166.855 260.670,169.457 263.086 C 170.104 263.686,170.486 264.587,170.642 265.886 C 171.075 269.481,172.489 272.400,173.797 272.400 C 174.046 272.400,174.640 273.294,175.117 274.386 C 175.652 275.610,176.409 276.596,177.092 276.958 C 177.701 277.281,178.678 278.156,179.262 278.903 C 179.911 279.734,181.078 280.541,182.262 280.978 C 183.328 281.372,184.716 282.225,185.346 282.874 C 188.911 286.547,207.264 286.618,211.519 282.976 C 212.404 282.219,213.263 281.600,213.429 281.600 C 214.658 281.600,216.858 280.097,217.261 278.981 C 217.581 278.097,218.132 277.568,219.099 277.219 C 220.155 276.837,220.671 276.290,221.284 274.902 L 222.088 273.086 226.122 273.350 C 230.069 273.609,230.183 273.644,231.414 274.987 C 232.393 276.057,233.306 276.525,235.549 277.107 C 238.019 277.749,238.565 278.057,239.396 279.280 C 239.928 280.063,240.822 280.819,241.382 280.960 C 242.684 281.287,242.718 282.495,241.444 283.176 C 240.918 283.458,240.263 284.163,239.988 284.744 C 239.713 285.325,239.198 286.430,238.844 287.200 C 238.490 287.970,237.488 289.268,236.618 290.084 C 235.747 290.900,234.757 292.154,234.418 292.869 C 233.970 293.811,233.443 294.243,232.505 294.433 C 230.991 294.741,228.552 296.492,228.231 297.501 C 228.109 297.887,226.922 298.699,225.594 299.306 C 224.188 299.948,223.008 300.783,222.770 301.304 C 222.545 301.797,221.281 302.826,219.960 303.591 C 215.955 305.912,215.860 306.192,218.642 307.496 L 221.000 308.600 254.800 308.600 C 293.151 308.600,290.563 308.823,292.192 305.379 L 293.200 303.250 293.187 264.525 C 293.177 234.712,293.062 225.655,292.687 225.170 C 291.067 223.075,290.668 223.013,277.351 222.800 C 270.484 222.690,264.770 222.504,264.653 222.387 C 264.003 221.735,264.249 204.165,264.925 202.900 L 265.621 201.600 276.178 201.600 C 291.147 201.600,289.614 203.585,289.949 183.768 L 290.200 168.936 291.279 167.522 C 292.737 165.611,292.836 165.600,308.550 165.598 C 325.317 165.595,329.151 165.169,331.935 162.999 C 332.923 162.230,333.981 161.600,334.286 161.600 C 335.216 161.600,337.285 160.382,339.646 158.444 C 340.882 157.430,342.266 156.343,342.721 156.030 C 343.177 155.716,343.872 154.861,344.266 154.130 C 344.660 153.398,345.121 152.800,345.291 152.800 C 345.461 152.800,345.600 152.523,345.600 152.185 C 345.600 151.846,346.320 150.820,347.200 149.904 C 348.080 148.988,348.800 147.973,348.800 147.648 C 348.800 146.454,349.803 144.150,351.145 142.263 C 354.012 138.231,353.949 120.251,351.054 116.535 C 350.254 115.508,349.600 114.417,349.600 114.110 C 349.600 112.556,348.177 109.529,346.746 108.040 C 345.869 107.127,344.978 105.884,344.767 105.277 C 344.527 104.589,343.708 103.805,342.591 103.195 C 341.606 102.657,340.800 102.015,340.800 101.770 C 340.800 101.013,339.480 99.755,337.773 98.887 C 336.879 98.431,335.904 97.766,335.608 97.409 C 334.716 96.334,331.632 95.141,328.418 94.626 C 326.751 94.359,324.891 93.816,324.285 93.419 C 321.740 91.752,319.503 91.628,291.600 91.620 C 263.115 91.612,262.498 91.651,260.786 93.606 C 259.143 95.482,259.149 95.272,259.186 147.137 C 259.213 184.719,259.105 197.833,258.762 198.245 C 258.273 198.835,246.250 199.064,243.105 198.544 C 240.728 198.151,240.805 199.883,240.798 147.000 C 240.791 94.941,240.831 96.311,239.241 94.448 C 236.948 91.762,235.729 91.600,217.797 91.600 L 201.782 91.600 199.191 94.324 C 197.766 95.822,196.387 97.487,196.126 98.024 C 195.633 99.038,194.400 103.860,194.400 104.773 C 194.400 105.060,193.863 105.906,193.206 106.655 C 192.549 107.403,191.904 108.506,191.773 109.107 C 191.642 109.708,191.383 110.650,191.196 111.200 C 191.010 111.750,190.744 113.052,190.605 114.094 C 190.456 115.211,190.065 116.195,189.650 116.494 C 188.230 117.515,186.990 120.600,186.603 124.071 C 186.400 125.888,186.090 126.617,185.050 127.720 C 183.791 129.055,183.370 130.295,182.603 134.941 C 182.460 135.809,181.932 136.859,181.397 137.341 C 180.030 138.576,178.905 140.828,178.583 142.976 C 178.241 145.252,178.170 145.192,177.201 141.803 C 176.745 140.208,175.854 138.362,175.031 137.306 C 174.021 136.009,173.450 134.681,172.965 132.500 C 172.452 130.194,171.978 129.135,170.947 127.994 C 170.003 126.949,169.600 126.116,169.600 125.209 C 169.600 122.917,168.388 119.151,166.976 117.053 C 166.219 115.930,165.600 114.738,165.601 114.405 C 165.605 112.405,164.178 108.239,163.131 107.192 C 162.022 106.083,161.703 105.138,160.797 100.263 C 160.599 99.198,160.210 98.028,159.934 97.663 C 159.271 96.790,156.892 94.173,155.458 92.741 L 154.315 91.600 137.819 91.600 C 120.048 91.600,120.065 91.598,117.662 93.757 C 115.248 95.926,115.395 92.300,115.541 146.021 C 115.677 196.216,115.630 197.996,114.163 198.559 C 112.854 199.061,98.118 198.825,97.678 198.294 C 97.391 197.948,97.232 182.411,97.176 149.194 C 97.088 97.268,97.046 95.923,95.455 93.837 C 93.951 91.864,92.424 91.640,80.320 91.614 L 69.647 91.591 68.274 93.005 M92.235 94.264 C 95.873 95.410,95.600 91.032,95.600 148.269 C 95.600 196.109,95.568 198.351,94.870 199.213 C 94.149 200.103,93.998 200.116,82.170 200.302 L 70.199 200.490 69.099 199.390 L 68.000 198.291 68.000 148.205 C 68.000 96.871,68.001 96.846,69.512 94.500 C 70.293 93.287,88.536 93.097,92.235 94.264 M154.743 94.500 C 155.002 94.995,155.754 96.120,156.415 97.000 C 157.990 99.099,159.238 101.464,159.685 103.200 C 159.883 103.970,160.226 105.320,160.447 106.200 C 160.668 107.080,161.186 108.160,161.598 108.600 C 162.549 109.616,162.972 110.749,164.016 115.068 C 164.551 117.278,165.290 119.151,166.040 120.196 C 166.785 121.233,167.518 123.085,168.026 125.211 C 168.469 127.065,169.172 128.946,169.588 129.391 C 170.416 130.276,171.165 132.331,172.186 136.526 C 172.551 138.025,173.374 140.078,174.015 141.088 C 174.655 142.098,175.453 143.865,175.787 145.014 C 176.121 146.164,176.758 147.531,177.201 148.052 L 178.008 149.000 179.156 147.672 C 179.942 146.764,180.388 145.711,180.571 144.338 C 180.806 142.565,181.375 141.006,182.009 140.400 C 182.803 139.641,183.607 137.752,184.227 135.187 C 184.624 133.544,185.513 131.300,186.202 130.200 C 187.757 127.718,188.269 126.342,188.566 123.850 C 188.699 122.731,189.352 120.942,190.099 119.650 C 191.420 117.365,191.706 116.568,192.483 113.000 C 192.723 111.900,193.522 110.165,194.260 109.145 C 195.184 107.868,195.796 106.373,196.224 104.345 C 196.566 102.725,197.016 101.087,197.223 100.705 C 197.430 100.323,197.600 99.821,197.600 99.589 C 197.600 99.153,197.893 98.744,199.600 96.798 C 200.150 96.170,200.924 95.216,201.319 94.677 L 202.039 93.698 218.041 93.657 L 234.044 93.617 235.713 94.671 C 236.631 95.251,237.656 95.999,237.991 96.334 C 238.528 96.871,238.624 102.970,238.800 147.759 L 239.000 198.575 240.600 199.481 C 242.332 200.461,258.584 200.903,260.000 200.008 C 260.527 199.675,260.610 193.545,260.680 149.315 C 260.736 114.334,260.896 98.367,261.204 96.924 C 261.944 93.453,260.813 93.571,292.220 93.694 L 319.000 93.800 323.759 95.100 C 326.377 95.815,328.915 96.400,329.399 96.400 C 329.884 96.400,331.042 96.952,331.973 97.626 C 334.258 99.281,337.022 100.800,337.750 100.800 C 338.078 100.800,338.451 101.115,338.578 101.500 C 338.706 101.885,339.442 102.740,340.214 103.400 C 342.848 105.652,343.800 106.633,344.500 107.817 C 344.886 108.468,345.656 109.619,346.212 110.377 C 346.768 111.134,347.605 113.024,348.072 114.577 C 348.538 116.129,349.311 118.300,349.790 119.400 C 352.007 124.498,352.010 137.502,349.793 139.887 C 349.357 140.356,348.654 141.969,348.231 143.470 C 347.439 146.285,346.601 147.961,345.706 148.522 C 345.423 148.699,344.945 149.436,344.643 150.159 C 344.107 151.441,339.440 156.400,338.768 156.400 C 338.583 156.400,337.743 157.075,336.901 157.900 C 335.295 159.475,333.913 160.400,333.166 160.400 C 332.657 160.400,329.901 161.636,329.600 162.000 C 328.360 163.497,325.607 163.746,307.713 163.985 C 290.197 164.219,290.018 164.229,289.213 165.094 C 288.423 165.941,288.400 166.433,288.400 182.117 L 288.400 198.268 287.182 199.353 L 285.965 200.437 274.882 200.379 C 259.649 200.298,261.129 198.924,261.287 212.998 L 261.400 222.997 263.000 223.589 C 264.237 224.047,267.481 224.229,277.286 224.391 C 288.766 224.580,290.041 224.668,290.686 225.314 C 291.361 225.990,291.400 228.118,291.400 264.514 C 291.400 305.808,291.453 304.700,289.424 306.051 C 288.466 306.689,223.824 307.094,221.491 306.477 L 220.200 306.135 221.930 305.244 C 223.082 304.651,223.845 303.911,224.213 303.030 C 224.712 301.836,226.734 300.400,227.917 300.400 C 228.135 300.400,229.188 299.616,230.257 298.658 C 231.326 297.700,232.777 296.620,233.482 296.257 C 234.187 295.895,235.087 295.124,235.482 294.544 C 235.877 293.964,236.947 292.750,237.860 291.845 C 238.772 290.940,239.903 289.480,240.373 288.600 C 240.842 287.720,241.940 286.100,242.811 285.000 C 245.513 281.590,243.605 277.697,238.495 276.198 C 235.159 275.219,233.207 274.344,232.671 273.586 C 232.059 272.721,226.368 270.897,223.810 270.746 C 221.859 270.630,219.671 272.434,219.613 274.205 C 219.606 274.428,219.105 274.965,218.500 275.398 C 217.895 275.831,216.680 276.933,215.800 277.846 C 214.920 278.759,213.300 279.944,212.200 280.479 C 211.100 281.014,209.570 281.786,208.800 282.194 C 208.030 282.602,207.063 283.100,206.651 283.302 C 203.422 284.881,186.800 283.166,186.800 281.253 C 186.800 281.095,185.802 280.626,184.582 280.212 C 183.361 279.797,181.966 279.053,181.482 278.558 C 180.997 278.063,180.420 277.474,180.200 277.248 C 179.980 277.023,179.035 276.131,178.100 275.266 C 177.165 274.401,176.400 273.403,176.400 273.047 C 176.400 272.691,176.220 272.400,176.000 272.400 C 175.780 272.400,175.597 272.175,175.594 271.900 C 175.590 271.625,175.051 270.791,174.395 270.047 C 173.739 269.303,173.018 267.953,172.793 267.047 C 172.568 266.141,171.956 263.780,171.434 261.800 C 170.128 256.849,169.354 250.407,169.934 249.324 C 170.646 247.993,171.482 245.245,172.268 241.653 C 172.807 239.187,173.278 238.028,174.056 237.253 C 174.637 236.674,175.475 235.515,175.918 234.677 C 176.791 233.026,180.461 229.194,181.879 228.454 C 182.362 228.201,183.546 227.312,184.509 226.479 C 185.949 225.233,186.860 224.834,189.630 224.238 C 191.484 223.840,193.529 223.317,194.176 223.077 C 195.673 222.521,201.379 222.545,203.206 223.115 C 203.973 223.354,205.944 223.845,207.586 224.206 C 209.804 224.693,210.936 225.188,211.990 226.131 C 212.770 226.829,214.081 227.756,214.904 228.191 C 215.727 228.626,216.400 229.100,216.400 229.244 C 216.400 229.388,217.120 230.226,218.000 231.106 C 218.880 231.986,219.600 232.866,219.600 233.062 C 219.600 233.258,220.153 234.089,220.829 234.909 C 222.719 237.202,225.713 237.110,229.309 234.648 C 230.716 233.684,232.302 232.778,232.834 232.634 C 236.159 231.732,237.220 231.308,239.108 230.123 C 240.267 229.395,241.448 228.800,241.732 228.800 C 245.111 228.800,245.240 223.516,241.939 220.301 C 241.093 219.476,240.400 218.594,240.400 218.340 C 240.400 218.087,239.455 216.919,238.300 215.744 C 237.145 214.570,235.889 213.292,235.509 212.905 C 233.049 210.395,231.108 208.751,229.086 207.464 C 227.813 206.654,226.669 205.724,226.543 205.396 C 226.417 205.068,226.068 204.800,225.768 204.800 C 225.103 204.800,219.086 202.438,218.802 202.065 C 218.373 201.502,216.902 200.888,215.362 200.627 C 214.478 200.478,213.175 199.861,212.467 199.257 L 211.180 198.159 211.180 171.980 C 211.181 152.422,211.054 145.243,210.679 143.600 L 210.177 141.400 209.213 144.000 C 208.389 146.221,206.781 148.398,205.963 148.400 C 205.604 148.400,204.521 150.798,204.066 152.600 C 203.063 156.575,202.370 158.465,201.624 159.267 C 201.181 159.742,200.537 161.136,200.192 162.365 C 199.288 165.589,198.827 166.645,197.803 167.836 C 197.302 168.418,196.590 170.088,196.219 171.547 C 195.848 173.006,195.127 175.010,194.618 176.000 C 194.108 176.990,193.414 178.340,193.076 179.000 C 192.737 179.660,192.243 181.010,191.978 182.000 C 191.325 184.441,190.440 186.390,189.555 187.340 C 188.851 188.097,187.600 191.667,187.600 192.921 C 187.600 193.250,186.880 194.478,186.000 195.649 C 185.120 196.820,184.400 197.953,184.400 198.167 C 184.400 198.765,182.319 200.800,181.708 200.800 C 181.410 200.800,180.796 201.145,180.343 201.567 C 179.545 202.311,178.511 202.698,173.345 204.190 C 171.994 204.581,170.308 205.396,169.597 206.003 C 168.886 206.610,167.471 207.522,166.452 208.031 C 165.433 208.540,164.039 209.551,163.353 210.278 C 162.667 211.005,161.943 211.600,161.744 211.600 C 161.546 211.600,160.995 212.005,160.520 212.500 C 160.045 212.995,159.178 213.879,158.592 214.464 C 157.397 215.658,156.003 217.072,154.142 218.978 C 153.450 219.687,152.507 221.006,152.046 221.909 C 151.585 222.812,150.692 224.057,150.061 224.676 C 149.303 225.419,148.547 226.951,147.830 229.200 C 147.234 231.070,146.322 233.250,145.804 234.045 C 143.890 236.980,142.451 249.558,143.144 257.301 C 144.226 269.390,144.539 271.142,145.887 272.680 C 146.311 273.163,146.894 274.333,147.181 275.280 C 148.271 278.866,148.885 280.296,149.790 281.349 C 150.303 281.946,151.222 283.454,151.831 284.700 C 152.441 285.946,153.583 287.609,154.370 288.397 C 155.156 289.185,156.379 290.498,157.088 291.315 C 157.796 292.132,158.538 292.800,158.736 292.800 C 158.935 292.800,159.525 293.428,160.048 294.194 C 160.572 294.961,161.630 295.842,162.400 296.152 C 163.170 296.461,164.471 297.348,165.291 298.122 C 166.112 298.897,168.063 300.041,169.627 300.665 C 171.515 301.418,172.585 302.089,172.811 302.661 C 173.162 303.551,175.198 305.239,176.600 305.804 C 178.386 306.522,174.454 306.707,156.366 306.753 L 137.731 306.800 135.888 305.364 C 133.580 303.566,132.975 302.647,132.615 300.391 C 132.184 297.699,131.279 295.206,130.002 293.200 C 129.372 292.210,128.744 290.860,128.606 290.200 C 127.864 286.652,127.348 285.213,126.170 283.400 C 125.366 282.164,124.768 280.636,124.606 279.400 C 124.245 276.663,122.706 272.400,122.079 272.400 C 121.629 272.400,120.850 270.370,120.411 268.058 C 120.034 266.071,119.462 264.660,117.621 261.182 C 117.209 260.402,116.678 258.692,116.443 257.382 C 116.208 256.072,115.293 253.560,114.411 251.800 C 113.528 250.040,112.612 247.790,112.376 246.800 C 112.139 245.810,111.839 244.550,111.710 244.000 C 111.581 243.450,111.094 242.370,110.628 241.600 C 109.294 239.392,108.878 238.351,108.423 236.076 C 108.005 233.988,107.095 231.798,105.634 229.370 C 105.227 228.693,104.767 227.523,104.611 226.770 C 104.115 224.377,103.178 221.862,102.013 219.800 C 101.391 218.700,100.759 216.990,100.608 216.000 C 100.150 213.005,99.499 211.100,98.219 209.009 C 96.744 206.601,95.518 202.115,96.056 201.100 C 96.393 200.466,97.253 200.400,105.168 200.400 C 114.015 200.400,114.574 200.322,116.601 198.800 C 117.392 198.206,117.400 197.717,117.400 147.762 C 117.400 103.518,117.474 97.234,118.000 96.595 C 118.330 96.194,119.302 95.357,120.160 94.733 L 121.720 93.600 137.996 93.600 L 154.272 93.600 154.743 94.500 M291.800 117.127 C 289.818 117.284,289.561 117.532,288.936 119.902 C 288.186 122.744,288.209 138.266,288.964 139.021 C 289.275 139.332,289.605 139.814,289.698 140.093 C 289.950 140.850,312.549 140.812,315.600 140.050 C 317.632 139.543,319.600 138.306,319.600 137.537 C 319.600 137.360,320.285 136.086,321.121 134.707 C 323.917 130.099,324.078 126.967,321.651 124.363 C 321.188 123.866,320.697 123.086,320.560 122.629 C 320.214 121.480,318.384 119.600,317.611 119.600 C 317.260 119.600,315.422 118.968,313.527 118.195 L 310.082 116.791 301.741 116.895 C 297.153 116.953,292.680 117.057,291.800 117.127 M315.916 121.030 C 318.003 121.658,318.467 121.958,318.640 122.793 C 318.755 123.347,319.012 124.103,319.211 124.474 C 319.819 125.603,320.392 130.016,320.023 130.733 C 319.834 131.100,319.355 132.435,318.957 133.700 C 318.560 134.965,318.098 136.000,317.931 136.000 C 317.764 136.000,316.962 136.585,316.148 137.300 L 314.668 138.600 304.863 138.737 C 289.214 138.956,290.352 139.530,290.091 131.295 C 289.800 122.106,290.226 121.061,294.540 120.376 C 298.533 119.742,313.115 120.188,315.916 121.030 M145.819 142.918 C 145.699 143.293,145.489 143.915,145.352 144.300 C 144.576 146.496,145.001 198.333,145.800 198.865 C 147.395 199.928,149.145 200.145,157.400 200.299 C 169.903 200.532,172.560 199.721,170.176 196.400 C 169.405 195.326,168.607 193.471,168.197 191.800 C 167.759 190.012,167.036 188.382,166.199 187.291 C 165.380 186.223,164.785 184.896,164.614 183.754 C 164.295 181.626,163.152 178.789,161.812 176.800 C 161.293 176.030,160.553 174.230,160.166 172.800 C 159.780 171.370,158.866 169.255,158.136 168.099 C 157.407 166.944,156.691 165.234,156.546 164.299 C 156.237 162.308,154.605 158.400,154.083 158.400 C 153.715 158.400,152.400 154.766,152.400 153.749 C 152.400 153.441,152.235 152.877,152.034 152.495 C 151.832 152.113,151.375 151.127,151.017 150.305 C 150.660 149.483,150.008 148.618,149.569 148.383 C 149.130 148.148,148.155 146.669,147.404 145.096 C 146.462 143.125,145.970 142.448,145.819 142.918 M151.263 157.400 C 151.907 159.805,152.499 160.862,153.445 161.293 C 154.110 161.596,154.357 162.170,154.558 163.884 C 154.822 166.130,156.362 169.779,157.613 171.121 C 157.995 171.531,158.440 172.662,158.601 173.633 C 159.038 176.258,160.391 179.628,161.421 180.658 C 161.920 181.157,162.444 182.158,162.585 182.883 C 163.226 186.187,163.890 187.852,165.019 188.986 C 166.012 189.984,166.364 190.853,166.917 193.668 C 167.291 195.569,167.697 197.388,167.821 197.710 C 168.176 198.637,166.819 198.789,158.200 198.789 C 148.187 198.789,148.609 198.902,148.041 196.066 C 147.387 192.797,147.633 158.052,148.327 155.631 C 149.076 153.023,150.104 152.411,150.517 154.327 C 150.692 155.137,151.027 156.520,151.263 157.400 M318.571 223.769 C 315.505 225.164,315.682 222.676,315.664 264.523 C 315.643 313.403,313.741 308.800,333.958 308.800 C 348.328 308.800,347.925 308.907,349.010 304.800 C 349.919 301.357,349.884 227.022,348.972 225.110 C 347.898 222.858,347.491 222.798,333.420 222.823 C 320.908 222.846,320.551 222.868,318.571 223.769 M346.707 224.734 C 346.986 224.911,347.400 225.674,347.626 226.428 C 348.230 228.439,347.931 303.520,347.315 304.600 C 347.064 305.040,346.758 305.722,346.636 306.116 C 346.272 307.285,321.137 306.984,320.202 305.800 C 318.627 303.806,317.594 301.933,317.846 301.526 C 317.996 301.282,318.138 284.144,318.160 263.441 L 318.200 225.800 319.600 225.101 C 321.111 224.346,345.574 224.015,346.707 224.734 M77.301 227.320 C 76.806 227.541,75.886 228.754,75.255 230.017 C 74.624 231.279,73.646 232.918,73.081 233.658 C 71.617 235.577,71.155 236.967,70.773 240.600 C 70.532 242.890,70.232 243.971,69.718 244.400 C 68.106 245.747,67.140 248.248,66.598 252.481 C 66.429 253.794,66.000 254.744,65.174 255.628 C 64.524 256.324,63.891 257.367,63.768 257.947 C 63.645 258.526,63.377 259.413,63.172 259.919 C 61.958 262.916,62.979 268.105,64.916 268.780 C 66.556 269.352,89.392 269.376,91.014 268.807 C 92.437 268.308,93.806 266.079,93.425 264.879 C 93.284 264.436,93.014 262.689,92.824 260.997 C 92.523 258.309,92.317 257.752,91.192 256.592 C 90.077 255.442,89.806 254.723,89.164 251.210 C 88.502 247.592,87.528 245.231,86.351 244.396 C 86.193 244.284,85.968 243.744,85.852 243.196 C 84.745 237.986,84.216 236.455,82.964 234.834 C 82.214 233.863,81.600 232.817,81.600 232.510 C 81.600 230.051,78.788 226.656,77.301 227.320 M79.600 231.786 C 79.600 232.098,79.760 232.451,79.955 232.572 C 80.150 232.693,80.422 233.392,80.560 234.126 C 80.697 234.859,81.174 235.851,81.619 236.329 C 82.469 237.240,83.132 239.141,84.226 243.800 C 84.955 246.906,85.304 247.704,86.420 248.820 C 86.838 249.238,87.267 249.989,87.374 250.490 C 87.481 250.990,87.864 252.795,88.224 254.500 C 88.585 256.205,89.042 257.600,89.240 257.600 C 89.438 257.600,89.600 257.870,89.600 258.200 C 89.600 258.530,89.759 258.800,89.954 258.800 C 90.510 258.800,91.600 262.567,91.600 264.486 C 91.600 267.631,91.734 267.600,78.000 267.600 C 63.963 267.600,64.400 267.717,64.400 263.952 C 64.400 262.168,64.670 261.179,65.658 259.341 C 67.972 255.037,68.291 254.213,68.511 251.963 C 68.668 250.354,69.115 249.120,70.105 247.563 C 71.561 245.273,71.808 244.523,72.448 240.437 C 72.752 238.502,73.175 237.472,74.172 236.237 C 74.899 235.336,75.891 233.522,76.377 232.205 C 77.634 228.796,77.953 228.512,78.858 229.999 C 79.266 230.670,79.600 231.474,79.600 231.786 M73.200 287.600 C 55.878 287.819,56.286 287.759,54.925 290.288 C 54.535 291.012,53.939 291.693,53.600 291.800 C 50.887 292.661,49.348 305.324,51.700 307.434 L 53.000 308.600 78.074 308.600 L 103.147 308.600 104.374 307.425 C 105.852 306.009,105.986 303.852,104.965 297.900 C 104.344 294.278,103.860 293.249,101.721 291.000 C 101.302 290.560,100.845 289.899,100.704 289.530 C 99.930 287.503,97.017 287.299,73.200 287.600 M99.489 291.400 C 103.854 297.756,105.366 304.780,102.729 306.452 C 102.025 306.899,54.356 306.886,53.650 306.439 C 50.969 304.741,52.473 296.246,56.232 291.854 C 56.984 290.975,57.600 290.153,57.600 290.028 C 57.600 289.903,66.778 289.800,77.995 289.800 L 98.390 289.800 99.489 291.400 " stroke="none" fill="#e67a74" fill-rule="evenodd"></path><path id="path4" d="M69.437 94.600 C 69.076 95.150,68.951 95.600,69.157 95.600 C 69.364 95.600,69.608 95.375,69.700 95.100 C 70.290 93.329,94.400 94.571,94.400 96.372 C 94.400 96.523,94.666 96.996,94.990 97.424 C 95.483 98.072,95.477 97.929,94.954 96.562 C 93.944 93.921,92.335 93.600,80.111 93.600 L 70.092 93.600 69.437 94.600 M120.160 94.733 C 118.309 96.078,117.790 96.694,117.495 97.900 C 117.203 99.093,117.756 99.053,118.308 97.841 C 118.549 97.314,119.420 96.369,120.244 95.741 L 121.743 94.600 138.247 94.670 C 152.387 94.730,154.720 94.658,154.533 94.170 C 154.349 93.690,151.753 93.600,138.017 93.600 L 121.720 93.600 120.160 94.733 M201.522 94.366 C 200.190 95.921,200.132 96.612,201.442 95.300 C 202.081 94.661,203.521 94.589,217.866 94.479 C 235.186 94.345,235.225 94.350,237.700 96.872 C 238.305 97.488,238.800 97.842,238.800 97.658 C 238.800 97.067,237.449 95.756,235.722 94.672 L 234.044 93.617 218.069 93.657 C 203.666 93.693,202.038 93.763,201.522 94.366 M263.430 94.229 C 261.592 94.905,261.777 94.745,261.397 96.000 C 261.111 96.942,261.137 96.964,261.847 96.377 C 263.835 94.734,264.632 94.636,277.200 94.492 C 283.910 94.416,290.660 94.337,292.200 94.318 C 301.685 94.198,320.337 94.746,321.476 95.178 C 322.178 95.444,323.168 95.595,323.676 95.514 C 324.297 95.415,323.680 95.113,321.800 94.594 C 318.014 93.551,266.154 93.226,263.430 94.229 M198.881 97.597 C 198.507 98.256,198.065 98.796,197.900 98.797 C 197.735 98.799,197.600 99.124,197.600 99.520 C 197.600 99.916,197.387 100.453,197.127 100.713 C 196.866 100.974,196.747 101.281,196.862 101.395 C 196.977 101.510,197.559 100.707,198.156 99.610 C 198.753 98.513,199.515 97.342,199.849 97.008 C 200.201 96.656,200.269 96.400,200.010 96.400 C 199.764 96.400,199.256 96.939,198.881 97.597 M117.255 145.433 C 117.291 176.083,117.433 190.647,117.676 188.400 C 118.052 184.924,117.794 99.661,117.407 99.274 C 117.293 99.160,117.225 119.932,117.255 145.433 M95.364 112.200 C 95.363 115.940,95.423 117.524,95.497 115.720 C 95.571 113.915,95.572 110.855,95.498 108.920 C 95.425 106.984,95.364 108.460,95.364 112.200 M161.298 109.028 C 162.063 110.753,163.196 112.800,163.386 112.800 C 163.811 112.800,162.261 109.199,161.565 108.569 C 160.792 107.869,160.787 107.877,161.298 109.028 M345.785 110.300 C 346.402 111.235,346.977 112.000,347.063 112.000 C 347.396 112.000,346.018 109.713,345.358 109.171 C 344.966 108.848,345.151 109.339,345.785 110.300 M169.477 129.800 C 169.799 130.727,170.800 131.841,170.800 131.273 C 170.800 131.062,170.440 130.464,169.999 129.944 C 169.308 129.130,169.237 129.110,169.477 129.800 M144.980 173.600 C 144.980 181.410,145.034 184.605,145.099 180.700 C 145.165 176.795,145.165 170.405,145.099 166.500 C 145.034 162.595,144.980 165.790,144.980 173.600 M328.108 162.088 C 326.738 162.782,325.671 163.404,325.737 163.471 C 325.934 163.668,329.388 162.248,329.533 161.910 C 329.607 161.740,329.911 161.600,330.210 161.600 C 330.508 161.600,330.864 161.420,331.000 161.200 C 331.402 160.550,330.747 160.751,328.108 162.088 M164.800 185.100 C 164.800 185.553,166.763 188.001,166.787 187.578 C 166.794 187.455,166.350 186.745,165.800 186.000 C 165.250 185.255,164.800 184.850,164.800 185.100 M178.224 202.213 C 177.637 202.656,177.594 202.800,178.047 202.800 C 178.377 202.800,178.996 202.536,179.424 202.213 C 180.010 201.769,180.053 201.625,179.600 201.625 C 179.270 201.625,178.651 201.890,178.224 202.213 M100.812 217.276 C 100.819 217.564,101.463 218.880,102.243 220.200 C 103.023 221.520,103.570 222.330,103.457 222.000 C 103.344 221.670,103.032 220.725,102.763 219.900 C 102.494 219.075,102.122 218.400,101.937 218.400 C 101.752 218.400,101.600 218.141,101.600 217.824 C 101.600 217.507,101.420 217.136,101.200 217.000 C 100.980 216.864,100.805 216.988,100.812 217.276 M198.600 222.802 C 200.217 223.158,203.074 223.327,202.767 223.049 C 202.675 222.966,201.340 222.798,199.800 222.674 C 197.648 222.502,197.370 222.531,198.600 222.802 M318.889 225.423 C 317.969 226.067,317.573 228.800,318.400 228.800 C 318.620 228.800,318.800 228.229,318.800 227.531 C 318.800 226.834,319.098 225.934,319.462 225.531 C 320.273 224.636,320.068 224.597,318.889 225.423 M318.121 249.600 C 318.119 258.033,318.248 263.549,318.415 262.200 C 318.802 259.082,318.807 242.385,318.422 238.000 C 318.235 235.872,318.123 240.212,318.121 249.600 M80.802 235.800 C 80.805 236.360,82.768 238.699,82.786 238.162 C 82.794 237.921,82.350 237.201,81.800 236.562 C 81.251 235.923,80.802 235.580,80.802 235.800 M173.269 238.039 C 172.510 239.254,172.966 239.416,173.755 238.212 C 174.120 237.656,174.278 237.200,174.105 237.200 C 173.933 237.200,173.557 237.578,173.269 238.039 M109.625 239.800 C 109.625 240.020,109.890 240.549,110.213 240.976 C 110.536 241.404,110.800 241.573,110.800 241.353 C 110.800 241.133,110.536 240.604,110.213 240.176 C 109.890 239.749,109.625 239.580,109.625 239.800 M169.849 249.415 C 169.712 249.773,169.621 250.726,169.647 251.533 C 169.690 252.883,169.720 252.842,170.026 251.013 C 170.368 248.970,170.290 248.267,169.849 249.415 M142.840 257.033 C 142.862 257.895,143.027 259.050,143.207 259.600 C 143.411 260.221,143.451 259.691,143.312 258.200 C 143.054 255.421,142.782 254.749,142.840 257.033 M291.344 260.000 C 291.344 262.090,291.412 262.945,291.494 261.900 C 291.576 260.855,291.576 259.145,291.494 258.100 C 291.412 257.055,291.344 257.910,291.344 260.000 M64.528 264.000 C 64.528 265.430,64.601 266.015,64.689 265.300 C 64.778 264.585,64.778 263.415,64.689 262.700 C 64.601 261.985,64.528 262.570,64.528 264.000 M91.194 264.282 C 91.087 265.646,91.145 266.617,91.323 266.439 C 91.500 266.260,91.588 265.144,91.517 263.957 L 91.389 261.800 91.194 264.282 M86.700 267.489 C 87.415 267.578,88.585 267.578,89.300 267.489 C 90.015 267.401,89.430 267.328,88.000 267.328 C 86.570 267.328,85.985 267.401,86.700 267.489 M318.141 283.200 C 318.202 289.910,318.143 296.930,318.008 298.800 C 317.752 302.366,317.924 302.916,320.202 305.800 C 320.973 306.776,346.372 307.083,346.693 306.120 C 346.812 305.763,346.520 305.736,345.553 306.014 C 344.837 306.219,339.262 306.371,333.162 306.353 L 322.072 306.319 321.109 305.259 C 318.709 302.620,318.792 303.236,318.778 287.907 C 318.770 280.148,318.599 273.170,318.397 272.400 C 318.158 271.488,318.069 275.253,318.141 283.200 M145.600 272.959 C 145.600 273.047,146.067 273.902,146.638 274.859 C 147.209 275.817,147.551 276.240,147.397 275.800 C 146.519 273.284,146.288 272.800,145.961 272.800 C 145.762 272.800,145.600 272.872,145.600 272.959 M209.000 281.790 C 208.120 282.332,207.559 282.781,207.753 282.788 C 208.155 282.802,210.800 281.222,210.800 280.967 C 210.800 280.699,210.684 280.752,209.000 281.790 M57.287 290.409 C 56.837 291.130,56.860 291.177,57.491 290.843 C 57.881 290.637,58.830 290.291,59.600 290.075 L 61.000 289.682 59.396 289.641 C 58.191 289.610,57.667 289.801,57.287 290.409 M79.800 290.000 C 79.937 290.221,81.737 290.400,83.824 290.400 C 86.075 290.400,87.600 290.238,87.600 290.000 C 87.600 289.760,85.992 289.600,83.576 289.600 C 80.996 289.600,79.641 289.743,79.800 290.000 M94.459 289.792 C 94.954 290.287,98.834 290.701,98.683 290.243 C 98.603 289.999,97.565 289.744,96.378 289.676 C 95.190 289.608,94.327 289.660,94.459 289.792 M291.200 301.541 C 291.200 302.441,289.026 304.800,288.197 304.800 C 287.868 304.800,287.600 304.959,287.600 305.153 C 287.600 306.029,284.458 306.192,263.600 306.402 L 241.400 306.625 265.000 306.612 C 290.514 306.599,289.733 306.665,290.715 304.448 C 291.312 303.098,291.775 300.800,291.450 300.800 C 291.313 300.800,291.200 301.133,291.200 301.541 M132.802 301.811 C 132.805 302.410,134.432 304.242,136.155 305.587 L 137.710 306.800 156.355 306.753 C 174.453 306.707,178.386 306.522,176.600 305.804 C 175.131 305.212,173.154 303.532,172.785 302.561 C 172.262 301.184,171.598 301.376,171.613 302.900 C 171.628 304.421,172.291 305.426,173.636 305.964 C 174.274 306.219,168.454 306.342,156.421 306.328 L 138.242 306.307 136.621 305.254 C 134.712 304.015,134.391 303.723,133.484 302.411 C 133.108 301.867,132.801 301.597,132.802 301.811 M224.287 302.876 C 223.848 303.911,223.143 304.621,221.930 305.248 C 219.540 306.485,220.532 306.723,228.000 306.709 C 232.696 306.701,233.335 306.638,231.355 306.380 C 226.525 305.749,225.663 305.361,225.383 303.689 C 224.992 301.345,224.950 301.315,224.287 302.876 M102.751 305.348 C 102.332 306.267,102.015 306.408,100.236 306.467 C 98.403 306.528,98.356 306.551,99.762 306.695 C 101.911 306.916,103.099 306.550,103.410 305.569 C 103.807 304.318,103.298 304.147,102.751 305.348 M52.800 305.162 C 52.800 306.707,53.650 306.803,66.529 306.714 L 79.000 306.628 66.981 306.414 C 56.376 306.225,54.835 306.117,53.881 305.491 C 53.287 305.101,52.800 304.953,52.800 305.162 M91.300 306.694 C 92.345 306.776,94.055 306.776,95.100 306.694 C 96.145 306.612,95.290 306.544,93.200 306.544 C 91.110 306.544,90.255 306.612,91.300 306.694 " stroke="none" fill="#f88c94" fill-rule="evenodd"></path></g></svg>