<svg id="svg" version="1.1" xmlns="http://www.w3.org/2000/svg" xmlns:xlink="http://www.w3.org/1999/xlink" width="400" height="400" viewBox="0, 0, 400,400"><g id="svgg"><path id="path0" d="M180.605 69.259 C 176.476 69.545,174.537 69.860,173.205 70.461 C 170.360 71.743,168.036 72.332,164.800 72.590 C 159.813 72.988,157.118 73.648,154.800 75.037 C 153.582 75.766,151.147 76.701,149.345 77.131 C 146.950 77.702,145.764 78.219,144.859 79.083 C 144.174 79.738,142.782 80.474,141.715 80.745 C 140.662 81.013,139.260 81.377,138.600 81.553 C 137.940 81.729,136.770 82.498,136.000 83.260 C 135.128 84.123,133.742 84.913,132.327 85.352 C 130.874 85.803,129.824 86.409,129.416 87.032 C 129.065 87.568,127.956 88.393,126.952 88.864 C 125.948 89.336,124.942 90.128,124.716 90.624 C 124.491 91.119,123.714 91.844,122.990 92.233 C 122.266 92.623,121.433 93.308,121.137 93.755 C 120.542 94.656,118.950 96.276,117.751 97.200 C 117.323 97.530,116.654 98.303,116.265 98.918 C 115.876 99.533,115.125 100.234,114.596 100.474 C 114.068 100.715,113.273 101.684,112.830 102.627 C 112.386 103.569,111.507 104.646,110.874 105.020 C 110.242 105.393,109.501 106.318,109.227 107.076 C 108.953 107.833,108.227 109.026,107.613 109.726 C 105.977 111.592,104.967 113.572,104.658 115.517 C 104.508 116.462,103.780 118.172,103.041 119.317 C 102.187 120.640,101.520 122.348,101.212 124.000 C 100.598 127.296,99.771 130.250,98.467 133.800 C 97.439 136.598,97.439 136.609,97.419 150.200 L 97.400 163.800 98.900 166.800 C 100.249 169.499,100.612 170.674,101.455 175.087 C 101.590 175.794,102.297 177.070,103.026 177.922 C 103.756 178.775,104.470 179.996,104.614 180.636 C 105.013 182.407,106.233 184.939,107.314 186.236 C 107.848 186.876,108.499 188.060,108.762 188.867 C 109.025 189.674,109.693 190.631,110.247 190.994 C 111.904 192.080,112.800 192.949,112.800 193.470 C 112.800 193.741,113.539 194.556,114.441 195.281 C 115.344 196.007,116.332 197.082,116.637 197.672 C 116.942 198.262,117.919 199.153,118.808 199.653 C 119.698 200.153,120.524 200.954,120.644 201.434 C 120.778 201.966,121.515 202.599,122.528 203.054 C 124.439 203.910,125.600 204.941,125.600 205.782 C 125.600 206.130,126.162 206.469,127.000 206.626 C 127.770 206.771,128.400 207.049,128.400 207.245 C 128.400 207.440,128.588 207.600,128.817 207.600 C 129.046 207.600,129.451 207.782,129.717 208.004 C 131.280 209.313,132.774 210.285,134.380 211.037 C 135.381 211.507,136.744 212.417,137.408 213.061 C 138.212 213.839,139.552 214.483,141.408 214.981 C 144.029 215.685,146.833 217.083,147.371 217.953 C 147.502 218.165,148.192 218.466,148.905 218.622 C 150.801 219.036,154.502 220.800,155.229 221.635 C 155.587 222.047,157.136 222.639,158.829 223.010 C 162.481 223.811,165.183 224.774,166.073 225.591 C 166.443 225.931,168.063 226.546,169.673 226.959 C 173.082 227.832,176.800 229.387,176.800 229.940 C 176.800 230.152,177.745 230.453,178.900 230.609 C 184.393 231.352,187.844 232.399,188.665 233.572 C 188.976 234.015,189.937 234.418,191.090 234.588 C 195.171 235.192,198.932 236.427,200.200 237.582 C 200.649 237.990,202.492 238.607,204.400 238.986 C 207.552 239.613,211.600 241.325,211.600 242.032 C 211.600 242.199,212.185 242.457,212.900 242.605 C 216.212 243.288,219.009 244.480,220.031 245.644 C 220.377 246.039,221.520 246.654,222.571 247.011 C 223.621 247.367,225.319 248.261,226.344 248.998 C 227.368 249.734,228.724 250.466,229.355 250.625 C 229.987 250.783,231.322 251.697,232.323 252.656 C 233.324 253.615,234.285 254.400,234.458 254.400 C 235.133 254.400,237.600 256.923,237.600 257.614 C 237.600 258.017,237.996 258.472,238.481 258.626 C 239.739 259.025,240.374 259.772,240.657 261.185 C 240.792 261.862,241.060 262.514,241.252 262.632 C 241.443 262.750,241.600 263.111,241.600 263.433 C 241.600 263.756,242.220 264.920,242.977 266.021 C 244.710 268.540,244.940 270.083,244.725 277.718 C 244.552 283.860,244.438 284.371,242.725 286.719 C 242.354 287.227,241.677 288.766,241.221 290.138 C 240.595 292.018,240.094 292.808,239.190 293.342 C 238.529 293.732,237.728 294.676,237.409 295.440 C 237.013 296.388,236.376 297.018,235.400 297.426 C 234.614 297.754,233.817 298.430,233.627 298.928 C 233.200 300.053,232.505 300.617,231.149 300.940 C 230.571 301.078,229.243 301.898,228.197 302.762 C 226.812 303.906,225.686 304.450,224.048 304.764 C 219.010 305.730,218.104 305.983,216.194 306.959 C 210.362 309.936,183.365 310.028,175.817 307.096 C 172.552 305.828,171.803 305.663,165.400 304.795 C 162.444 304.395,161.528 304.095,160.281 303.120 C 159.281 302.338,157.674 301.672,155.580 301.172 C 153.485 300.671,151.699 299.931,150.354 299.006 C 149.230 298.233,147.981 297.600,147.579 297.600 C 147.176 297.600,146.749 297.440,146.628 297.245 C 146.507 297.050,145.797 296.776,145.049 296.636 C 144.301 296.495,142.904 295.790,141.945 295.068 C 140.133 293.705,137.622 292.400,136.812 292.400 C 136.555 292.400,135.502 291.819,134.472 291.109 C 132.463 289.723,130.036 288.400,129.503 288.400 C 129.323 288.400,128.599 287.743,127.894 286.940 C 127.189 286.138,125.998 285.224,125.248 284.911 C 123.708 284.267,123.076 283.720,122.687 282.691 C 122.539 282.301,122.189 281.908,121.909 281.818 C 118.482 280.714,116.204 279.724,115.300 278.947 C 113.777 277.637,110.072 277.575,109.188 278.845 C 108.865 279.309,107.958 280.101,107.173 280.604 C 104.927 282.043,104.708 283.759,104.753 299.562 C 104.799 315.527,105.094 318.022,107.086 319.253 C 107.803 319.696,108.705 320.593,109.091 321.246 C 109.476 321.899,110.244 322.533,110.796 322.654 C 112.732 323.081,115.410 324.488,116.477 325.639 C 117.122 326.333,117.964 326.800,118.572 326.800 C 121.056 326.800,125.160 328.128,126.662 329.419 C 127.258 329.931,128.838 330.614,130.173 330.936 C 131.508 331.258,133.819 331.814,135.308 332.172 C 136.797 332.530,138.620 333.162,139.358 333.576 C 140.096 333.991,141.757 334.441,143.050 334.578 C 151.412 335.460,157.139 336.546,159.200 337.640 C 164.687 340.553,215.918 340.298,222.400 337.325 C 224.500 336.362,226.644 335.859,232.338 334.991 C 235.753 334.470,236.655 334.182,237.495 333.341 C 238.720 332.116,241.196 331.006,243.616 330.597 C 244.729 330.409,245.955 329.816,246.898 329.009 C 248.351 327.765,251.679 326.400,253.258 326.400 C 253.680 326.400,254.141 326.099,254.282 325.731 C 254.689 324.669,255.765 323.761,257.548 322.975 C 258.457 322.574,259.200 322.108,259.200 321.939 C 259.200 321.084,263.306 318.400,264.613 318.400 C 264.937 318.400,265.848 317.500,266.638 316.400 C 267.428 315.300,268.328 314.400,268.638 314.400 C 268.947 314.400,269.200 314.259,269.200 314.087 C 269.200 313.645,270.709 311.740,272.676 309.698 C 273.598 308.741,274.858 307.158,275.476 306.180 C 276.094 305.202,276.710 304.401,276.845 304.401 C 277.481 304.399,279.129 302.255,279.352 301.141 C 279.612 299.841,280.931 298.400,281.861 298.400 C 282.158 298.400,282.400 297.983,282.400 297.471 C 282.400 295.701,283.672 292.819,284.949 291.699 C 286.067 290.717,286.322 290.100,286.944 286.868 C 287.741 282.725,288.445 280.778,289.530 279.717 C 290.349 278.917,291.022 276.055,291.418 271.698 C 291.563 270.103,291.843 268.697,292.041 268.575 C 292.238 268.453,292.400 267.924,292.400 267.400 C 292.400 266.876,292.560 266.349,292.755 266.228 C 292.950 266.107,293.236 265.332,293.390 264.504 C 293.545 263.677,293.846 262.789,294.058 262.532 C 294.286 262.256,294.477 256.745,294.523 249.132 L 294.600 236.200 293.542 233.600 C 292.345 230.660,291.937 229.193,291.015 224.514 C 290.507 221.936,290.120 220.982,289.220 220.081 C 288.589 219.450,287.859 218.139,287.599 217.167 C 286.924 214.646,286.080 212.800,285.602 212.800 C 285.375 212.800,284.533 211.765,283.729 210.500 C 282.926 209.235,281.662 207.570,280.921 206.800 C 280.179 206.030,279.264 204.730,278.887 203.911 C 278.481 203.032,277.687 202.173,276.949 201.815 C 275.664 201.192,274.400 199.643,274.400 198.691 C 274.400 198.396,273.697 197.844,272.838 197.465 C 271.979 197.086,270.808 196.162,270.236 195.412 C 269.634 194.622,268.092 193.505,266.574 192.757 C 265.132 192.047,263.729 191.148,263.456 190.759 C 263.184 190.370,262.017 189.680,260.862 189.225 C 259.708 188.770,258.367 188.019,257.882 187.556 C 256.572 186.305,254.107 184.800,253.368 184.800 C 252.513 184.800,249.988 183.599,249.071 182.756 C 248.326 182.071,246.309 181.259,243.318 180.440 C 242.393 180.186,241.088 179.517,240.418 178.953 C 239.617 178.280,237.931 177.620,235.499 177.029 C 233.465 176.535,230.809 175.569,229.598 174.882 C 228.386 174.196,226.136 173.343,224.598 172.989 C 223.059 172.634,220.630 171.753,219.200 171.030 C 216.843 169.839,214.908 169.341,209.628 168.566 C 208.005 168.327,206.616 167.720,204.274 166.227 C 203.794 165.921,201.600 165.378,199.400 165.021 C 195.278 164.353,194.364 164.040,192.044 162.500 C 191.298 162.005,190.218 161.600,189.644 161.600 C 186.972 161.601,181.817 160.223,180.042 159.033 C 179.029 158.354,176.850 157.453,175.200 157.030 C 173.550 156.607,171.300 155.679,170.200 154.968 C 169.100 154.257,166.940 153.370,165.400 152.996 C 162.176 152.213,161.381 151.857,160.000 150.572 C 159.450 150.061,158.337 149.365,157.526 149.027 C 156.711 148.686,155.727 147.854,155.326 147.167 C 154.927 146.483,153.940 145.585,153.133 145.170 C 152.150 144.666,151.431 143.887,150.957 142.811 C 150.567 141.928,149.923 141.102,149.524 140.976 C 148.106 140.526,146.898 138.323,146.595 135.633 C 146.402 133.921,146.042 132.788,145.514 132.233 C 144.509 131.177,144.640 124.317,145.709 122.000 C 146.065 121.230,146.661 119.520,147.035 118.200 C 147.728 115.749,148.380 114.498,149.799 112.895 C 150.240 112.398,151.050 111.439,151.600 110.764 C 152.741 109.365,152.951 109.157,154.600 107.790 C 155.260 107.243,156.160 106.681,156.600 106.540 C 157.040 106.400,157.760 105.870,158.200 105.362 C 159.183 104.228,161.363 103.291,164.271 102.753 C 165.481 102.529,167.092 101.998,167.850 101.572 C 174.560 97.803,209.856 97.831,215.205 101.609 C 215.757 101.999,217.287 102.434,218.605 102.576 C 224.960 103.258,228.736 104.213,230.868 105.676 C 231.455 106.079,232.805 106.580,233.868 106.789 C 237.621 107.528,239.520 108.283,241.000 109.626 C 241.440 110.025,242.520 110.532,243.400 110.753 C 244.280 110.974,245.630 111.316,246.400 111.514 C 248.333 112.010,250.397 113.127,250.663 113.821 C 250.786 114.139,251.171 114.400,251.519 114.400 C 252.625 114.400,257.178 116.901,257.412 117.637 C 257.535 118.026,258.159 118.459,258.797 118.599 C 260.397 118.951,264.274 121.095,264.534 121.773 C 264.651 122.078,265.794 122.631,267.074 123.002 C 268.353 123.372,269.580 123.818,269.800 123.992 C 270.020 124.165,270.830 124.439,271.600 124.600 C 272.370 124.761,273.195 125.049,273.433 125.240 C 274.012 125.704,278.025 124.032,278.800 123.004 C 280.022 121.382,281.255 111.832,280.711 108.200 C 280.540 107.058,280.594 105.295,280.836 104.089 C 281.138 102.591,281.136 101.393,280.831 99.969 C 280.594 98.864,280.400 97.252,280.400 96.386 C 280.400 92.487,278.484 86.471,277.000 85.713 C 276.340 85.375,274.720 84.338,273.400 83.408 C 271.436 82.024,270.357 81.589,267.464 81.019 C 265.201 80.573,263.258 79.906,262.064 79.166 C 261.039 78.530,259.390 77.843,258.400 77.640 C 257.410 77.436,255.301 77.006,253.714 76.684 C 252.126 76.362,249.876 75.598,248.714 74.986 C 246.538 73.842,242.972 73.147,236.416 72.589 C 234.555 72.431,232.755 72.160,232.416 71.986 C 227.459 69.440,199.330 67.960,180.605 69.259 " stroke="none" fill="#fbf7ed" fill-rule="evenodd"></path><path id="path1" d="M0.000 200.000 L 0.000 400.000 200.000 400.000 L 400.000 400.000 400.000 200.000 L 400.000 0.000 200.000 0.000 L 0.000 0.000 0.000 200.000 M217.888 64.341 C 219.696 64.595,222.126 65.144,223.288 65.562 C 224.573 66.025,227.073 66.420,229.671 66.572 C 232.020 66.709,234.450 66.978,235.071 67.169 C 235.692 67.361,237.280 67.836,238.600 68.225 C 239.920 68.614,241.542 69.235,242.206 69.606 C 242.893 69.991,244.869 70.403,246.806 70.566 C 254.016 71.173,257.626 72.044,259.400 73.603 C 259.856 74.004,261.232 74.428,262.600 74.589 C 265.066 74.879,268.365 76.268,269.826 77.630 C 270.430 78.193,271.235 78.401,272.826 78.402 C 274.906 78.405,276.417 78.910,277.800 80.066 C 279.702 81.656,281.179 83.692,281.441 85.081 C 281.573 85.785,282.250 86.955,282.943 87.681 C 285.487 90.341,285.959 94.021,285.754 109.600 C 285.599 121.379,285.317 122.754,282.468 125.610 C 281.880 126.198,281.082 127.149,280.694 127.723 C 278.821 130.491,269.272 130.199,265.616 127.261 C 263.964 125.934,261.249 124.400,260.551 124.400 C 260.297 124.400,259.665 123.861,259.145 123.203 C 258.552 122.453,257.678 121.911,256.800 121.751 C 256.030 121.611,255.220 121.370,255.000 121.217 C 254.780 121.063,253.761 120.628,252.735 120.249 C 251.710 119.871,250.779 119.321,250.666 119.028 C 250.554 118.735,249.143 117.994,247.531 117.382 C 245.919 116.769,243.959 115.777,243.175 115.176 C 242.305 114.508,240.391 113.736,238.261 113.193 C 236.342 112.703,233.585 111.695,232.133 110.951 C 230.682 110.208,229.010 109.600,228.418 109.600 C 227.102 109.600,223.620 108.475,222.800 107.785 C 221.564 106.744,219.045 106.012,215.281 105.599 C 213.146 105.364,208.970 104.912,206.000 104.594 C 203.030 104.277,199.250 103.728,197.600 103.374 C 193.971 102.598,187.849 102.428,186.200 103.059 C 182.798 104.360,179.855 104.895,173.513 105.364 C 164.935 105.999,164.301 106.274,156.930 112.551 C 156.445 112.964,155.646 113.504,155.154 113.751 C 154.538 114.060,153.928 115.156,153.194 117.273 C 152.607 118.964,151.828 120.802,151.463 121.359 C 150.253 123.207,150.680 133.830,152.004 134.800 C 152.154 134.910,152.601 136.039,152.996 137.310 C 153.827 139.976,155.412 142.242,156.679 142.574 C 157.162 142.701,158.381 143.617,159.388 144.609 C 160.395 145.602,161.980 146.712,162.909 147.076 C 163.839 147.440,165.566 148.348,166.746 149.093 C 168.178 149.998,169.575 150.522,170.946 150.668 C 173.904 150.985,176.383 151.873,178.077 153.223 C 178.889 153.870,179.969 154.401,180.477 154.402 C 182.232 154.406,184.278 155.208,186.488 156.756 C 188.409 158.101,189.101 158.345,191.653 158.577 C 197.109 159.072,200.877 160.014,203.800 161.615 C 204.460 161.976,205.990 162.402,207.200 162.560 C 209.144 162.814,215.068 165.240,215.600 165.999 C 215.710 166.156,216.970 166.415,218.400 166.574 C 221.749 166.945,227.775 168.537,228.705 169.295 C 228.983 169.521,230.603 170.179,232.305 170.757 C 235.549 171.858,238.800 173.518,238.800 174.074 C 238.800 174.253,239.217 174.400,239.727 174.400 C 240.692 174.400,244.409 175.374,245.800 175.991 C 249.035 177.426,249.600 177.732,249.600 178.046 C 249.600 178.241,250.095 178.399,250.700 178.398 C 252.426 178.395,255.529 179.664,257.135 181.028 C 257.941 181.713,259.125 182.403,259.766 182.561 C 260.930 182.848,262.386 183.802,264.247 185.498 C 264.789 185.992,265.951 186.511,266.829 186.651 C 268.309 186.888,271.200 189.101,271.200 189.997 C 271.200 190.171,271.605 190.418,272.100 190.546 C 273.148 190.816,277.600 194.831,277.600 195.505 C 277.600 196.645,278.666 198.101,279.870 198.604 C 280.790 198.988,281.374 199.619,281.804 200.693 C 282.226 201.747,282.797 202.374,283.617 202.684 C 284.377 202.971,285.020 203.628,285.378 204.486 C 285.688 205.229,286.453 206.278,287.077 206.818 C 288.176 207.769,288.454 208.219,289.793 211.200 C 290.608 213.015,291.441 214.445,291.864 214.754 C 292.322 215.088,293.069 216.637,293.809 218.784 C 294.147 219.765,294.556 220.665,294.717 220.784 C 294.879 220.903,295.548 222.080,296.205 223.400 L 297.400 225.800 297.400 248.000 C 297.400 269.947,297.129 275.243,295.938 276.580 C 295.752 276.789,295.600 277.296,295.600 277.706 C 295.600 278.116,295.150 279.435,294.600 280.637 C 294.050 281.840,293.596 283.133,293.591 283.512 C 293.578 284.559,292.253 287.247,291.046 288.677 C 290.335 289.519,289.824 290.772,289.544 292.361 C 289.281 293.854,288.641 295.487,287.860 296.656 C 286.071 299.333,286.146 299.202,285.155 301.400 C 284.312 303.268,283.063 304.800,282.382 304.800 C 282.220 304.800,281.799 305.518,281.448 306.396 C 281.097 307.275,280.157 308.608,279.359 309.360 C 278.562 310.113,277.702 311.144,277.449 311.652 C 277.196 312.160,276.361 312.995,275.594 313.506 C 274.827 314.018,274.020 314.842,273.800 315.338 C 273.194 316.706,269.071 321.543,268.486 321.573 C 267.814 321.608,265.890 322.838,265.478 323.495 C 265.300 323.778,264.291 324.447,263.235 324.982 C 262.178 325.518,260.793 326.381,260.157 326.901 C 258.337 328.389,256.039 329.600,255.036 329.600 C 254.530 329.600,253.676 330.005,253.137 330.500 C 251.773 331.753,247.827 333.600,246.515 333.600 C 246.192 333.600,245.217 334.208,244.348 334.952 C 242.779 336.295,240.094 337.252,236.417 337.780 C 235.437 337.921,233.724 338.557,232.610 339.194 C 230.556 340.370,227.985 340.966,222.182 341.613 C 220.413 341.810,218.253 342.277,217.382 342.650 C 216.512 343.023,214.990 343.478,214.000 343.662 C 213.010 343.846,211.030 344.209,209.600 344.468 C 203.906 345.503,171.882 344.893,167.600 343.669 C 162.884 342.322,161.272 341.980,158.686 341.779 C 153.917 341.409,148.796 340.420,145.292 339.192 C 143.360 338.514,140.699 337.930,138.892 337.788 C 133.289 337.345,130.068 336.524,127.943 334.997 C 126.873 334.229,125.780 333.600,125.512 333.600 C 124.505 333.600,119.825 331.765,118.800 330.968 C 118.470 330.712,117.210 330.285,116.000 330.019 C 112.792 329.315,110.892 328.520,109.675 327.372 C 109.084 326.815,107.790 325.896,106.800 325.332 C 104.944 324.274,102.401 320.812,102.399 319.340 C 102.398 318.933,102.011 317.970,101.540 317.200 C 99.309 313.556,99.028 281.600,101.226 281.600 C 101.395 281.600,102.102 280.432,102.797 279.005 C 104.772 274.952,106.212 274.364,114.159 274.364 C 118.851 274.364,121.905 275.698,126.562 279.781 C 127.201 280.341,127.864 280.800,128.035 280.800 C 128.206 280.800,128.447 281.115,128.570 281.500 C 128.693 281.885,129.686 282.700,130.777 283.312 C 131.868 283.924,133.089 284.841,133.490 285.351 C 133.899 285.871,134.879 286.401,135.725 286.560 C 137.934 286.974,140.546 288.183,141.677 289.314 C 142.222 289.858,143.103 290.439,143.634 290.605 C 144.165 290.770,145.078 291.241,145.662 291.652 C 146.246 292.064,146.922 292.400,147.164 292.400 C 147.407 292.400,147.986 292.838,148.451 293.373 C 148.963 293.962,149.950 294.456,150.949 294.624 C 152.952 294.961,156.694 296.571,157.796 297.570 C 158.238 297.971,159.558 298.420,160.728 298.567 C 162.894 298.840,167.639 300.771,168.889 301.888 C 169.439 302.380,171.331 302.567,178.289 302.815 C 183.080 302.986,187.810 303.324,188.800 303.568 C 196.388 305.431,202.655 305.579,206.600 303.989 C 208.179 303.353,211.065 302.853,214.793 302.570 C 217.295 302.380,219.034 302.030,219.905 301.541 C 220.631 301.134,221.480 300.800,221.792 300.800 C 222.105 300.800,222.504 300.565,222.680 300.278 C 222.993 299.768,225.589 298.403,226.260 298.396 C 226.447 298.394,227.757 297.494,229.172 296.396 C 230.587 295.298,231.925 294.400,232.146 294.400 C 232.751 294.400,234.400 292.737,234.400 292.128 C 234.400 291.835,234.850 291.203,235.400 290.725 C 235.950 290.247,236.400 289.631,236.400 289.357 C 236.400 289.083,236.825 288.524,237.344 288.116 C 238.679 287.065,239.359 279.456,238.875 270.964 L 238.531 264.928 236.469 262.764 C 235.336 261.574,234.406 260.375,234.404 260.100 C 234.402 259.825,234.152 259.600,233.849 259.600 C 233.546 259.600,233.055 259.307,232.758 258.950 C 232.461 258.592,231.226 257.823,230.012 257.241 C 228.669 256.597,227.492 255.684,227.003 254.907 C 226.561 254.205,225.879 253.624,225.486 253.615 C 224.633 253.597,223.027 252.602,221.468 251.124 C 220.843 250.533,219.763 249.931,219.066 249.787 C 218.370 249.643,216.000 248.673,213.800 247.631 C 211.600 246.590,208.810 245.408,207.600 245.004 C 206.390 244.601,204.658 243.767,203.751 243.151 C 202.725 242.455,201.137 241.871,199.551 241.606 C 194.764 240.807,192.017 240.103,190.947 239.402 C 190.360 239.017,188.601 238.384,187.039 237.995 C 183.427 237.095,182.225 236.619,180.000 235.205 C 179.010 234.576,177.480 233.939,176.600 233.790 C 173.452 233.255,170.561 232.283,168.162 230.952 C 166.820 230.208,165.414 229.600,165.037 229.600 C 163.585 229.600,160.325 228.251,159.170 227.172 C 158.356 226.412,157.347 225.958,156.081 225.784 C 152.818 225.333,149.214 224.107,148.400 223.170 C 148.003 222.713,145.778 221.648,144.788 221.441 C 144.231 221.324,142.521 220.416,140.988 219.423 C 139.455 218.430,137.784 217.613,137.275 217.609 C 135.277 217.590,132.346 216.290,131.273 214.945 C 130.683 214.205,129.990 213.600,129.732 213.600 C 128.919 213.600,126.806 212.226,126.590 211.557 C 126.476 211.203,125.621 210.578,124.691 210.168 C 123.761 209.758,122.856 209.193,122.680 208.911 C 122.504 208.630,122.195 208.400,121.994 208.400 C 121.022 208.400,114.883 203.988,114.662 203.131 C 114.530 202.619,113.869 201.888,113.192 201.508 C 112.437 201.082,111.649 200.109,111.152 198.984 C 110.706 197.977,110.040 197.044,109.671 196.912 C 108.866 196.624,107.600 195.377,107.600 194.873 C 107.600 194.675,106.961 193.902,106.180 193.156 C 104.432 191.487,102.971 189.058,102.596 187.200 C 102.441 186.430,101.996 185.440,101.607 185.000 C 100.417 183.652,98.861 180.538,98.574 178.928 C 98.424 178.087,97.986 177.040,97.601 176.600 C 94.326 172.860,93.324 160.438,94.342 136.200 C 94.824 124.740,95.231 122.769,97.608 120.392 C 98.019 119.981,98.477 118.960,98.626 118.122 C 98.943 116.331,100.543 112.940,101.610 111.796 C 102.022 111.353,102.479 110.244,102.625 109.332 C 102.822 108.100,103.394 107.137,104.845 105.591 C 105.920 104.446,106.801 103.395,106.802 103.255 C 106.803 103.115,107.883 101.843,109.202 100.428 C 110.521 99.013,111.600 97.661,111.600 97.423 C 111.600 97.186,112.166 96.543,112.858 95.996 C 113.549 95.448,114.404 94.674,114.758 94.276 C 115.111 93.878,116.120 92.803,117.000 91.886 C 117.880 90.969,119.091 89.450,119.691 88.510 C 120.291 87.569,120.952 86.800,121.159 86.800 C 121.365 86.800,122.256 86.107,123.138 85.259 C 125.032 83.440,127.060 82.400,128.714 82.400 C 129.554 82.400,130.107 82.096,130.580 81.375 C 131.360 80.184,133.943 78.978,136.550 78.587 C 137.739 78.408,138.448 78.079,138.587 77.641 C 138.860 76.781,142.542 74.851,144.516 74.534 C 145.349 74.400,146.264 73.959,146.548 73.553 C 147.441 72.277,151.414 70.805,154.718 70.526 C 156.459 70.379,158.301 69.966,158.989 69.569 C 159.655 69.186,161.370 68.575,162.800 68.212 C 164.230 67.849,166.073 67.376,166.895 67.161 C 167.717 66.947,169.607 66.669,171.095 66.546 C 172.583 66.422,174.805 65.977,176.034 65.558 C 181.439 63.712,207.913 62.943,217.888 64.341 " stroke="none" fill="#f26c04" fill-rule="evenodd"></path><path id="path2" d="M182.034 64.236 C 179.962 64.544,177.262 65.138,176.034 65.558 C 174.805 65.977,172.583 66.422,171.095 66.546 C 169.607 66.669,167.717 66.947,166.895 67.161 C 166.073 67.376,164.230 67.849,162.800 68.212 C 161.370 68.575,159.655 69.186,158.989 69.569 C 158.301 69.966,156.459 70.379,154.718 70.526 C 151.414 70.805,147.441 72.277,146.548 73.553 C 146.264 73.959,145.349 74.400,144.516 74.534 C 142.542 74.851,138.860 76.781,138.587 77.641 C 138.448 78.079,137.739 78.408,136.550 78.587 C 133.943 78.978,131.360 80.184,130.580 81.375 C 130.107 82.096,129.554 82.400,128.714 82.400 C 127.060 82.400,125.032 83.440,123.138 85.259 C 122.256 86.107,121.365 86.800,121.159 86.800 C 120.952 86.800,120.291 87.569,119.691 88.510 C 119.091 89.450,117.880 90.969,117.000 91.886 C 116.120 92.803,115.111 93.878,114.758 94.276 C 114.404 94.674,113.549 95.448,112.858 95.996 C 112.166 96.543,111.600 97.186,111.600 97.423 C 111.600 97.661,110.521 99.013,109.202 100.428 C 107.883 101.843,106.803 103.115,106.802 103.255 C 106.801 103.395,105.920 104.446,104.845 105.591 C 103.394 107.137,102.822 108.100,102.625 109.332 C 102.479 110.244,102.022 111.353,101.610 111.796 C 100.543 112.940,98.943 116.331,98.626 118.122 C 98.477 118.960,98.019 119.981,97.608 120.392 C 95.231 122.769,94.824 124.740,94.342 136.200 C 93.324 160.438,94.326 172.860,97.601 176.600 C 97.986 177.040,98.424 178.087,98.574 178.928 C 98.861 180.538,100.417 183.652,101.607 185.000 C 101.996 185.440,102.441 186.430,102.596 187.200 C 102.971 189.058,104.432 191.487,106.180 193.156 C 106.961 193.902,107.600 194.675,107.600 194.873 C 107.600 195.377,108.866 196.624,109.671 196.912 C 110.040 197.044,110.706 197.977,111.152 198.984 C 111.649 200.109,112.437 201.082,113.192 201.508 C 113.869 201.888,114.530 202.619,114.662 203.131 C 114.883 203.988,121.022 208.400,121.994 208.400 C 122.195 208.400,122.504 208.630,122.680 208.911 C 122.856 209.193,123.761 209.758,124.691 210.168 C 125.621 210.578,126.476 211.203,126.590 211.557 C 126.806 212.226,128.919 213.600,129.732 213.600 C 129.990 213.600,130.683 214.205,131.273 214.945 C 132.346 216.290,135.277 217.590,137.275 217.609 C 137.784 217.613,139.455 218.430,140.988 219.423 C 142.521 220.416,144.231 221.324,144.788 221.441 C 145.778 221.648,148.003 222.713,148.400 223.170 C 149.214 224.107,152.818 225.333,156.081 225.784 C 157.347 225.958,158.356 226.412,159.170 227.172 C 160.325 228.251,163.585 229.600,165.037 229.600 C 165.414 229.600,166.820 230.208,168.162 230.952 C 170.561 232.283,173.452 233.255,176.600 233.790 C 177.480 233.939,179.010 234.576,180.000 235.205 C 182.225 236.619,183.427 237.095,187.039 237.995 C 188.601 238.384,190.360 239.017,190.947 239.402 C 192.017 240.103,194.764 240.807,199.551 241.606 C 201.137 241.871,202.725 242.455,203.751 243.151 C 204.658 243.767,206.390 244.601,207.600 245.004 C 208.810 245.408,211.600 246.590,213.800 247.631 C 216.000 248.673,218.370 249.643,219.066 249.787 C 219.763 249.931,220.843 250.533,221.468 251.124 C 223.027 252.602,224.633 253.597,225.486 253.615 C 225.879 253.624,226.561 254.205,227.003 254.907 C 227.492 255.684,228.669 256.597,230.012 257.241 C 231.226 257.823,232.461 258.592,232.758 258.950 C 233.055 259.307,233.546 259.600,233.849 259.600 C 234.152 259.600,234.402 259.825,234.404 260.100 C 234.406 260.375,235.336 261.574,236.469 262.764 L 238.531 264.928 238.875 270.964 C 239.359 279.456,238.679 287.065,237.344 288.116 C 236.825 288.524,236.400 289.083,236.400 289.357 C 236.400 289.631,235.950 290.247,235.400 290.725 C 234.850 291.203,234.400 291.835,234.400 292.128 C 234.400 292.737,232.751 294.400,232.146 294.400 C 231.925 294.400,230.587 295.298,229.172 296.396 C 227.757 297.494,226.447 298.394,226.260 298.396 C 225.589 298.403,222.993 299.768,222.680 300.278 C 222.504 300.565,222.105 300.800,221.792 300.800 C 221.480 300.800,220.631 301.134,219.905 301.541 C 219.034 302.030,217.295 302.380,214.793 302.570 C 211.065 302.853,208.179 303.353,206.600 303.989 C 202.655 305.579,196.388 305.431,188.800 303.568 C 187.810 303.324,183.080 302.986,178.289 302.815 C 171.331 302.567,169.439 302.380,168.889 301.888 C 167.639 300.771,162.894 298.840,160.728 298.567 C 159.558 298.420,158.238 297.971,157.796 297.570 C 156.694 296.571,152.952 294.961,150.949 294.624 C 149.950 294.456,148.963 293.962,148.451 293.373 C 147.986 292.838,147.407 292.400,147.164 292.400 C 146.922 292.400,146.246 292.064,145.662 291.652 C 145.078 291.241,144.165 290.770,143.634 290.605 C 143.103 290.439,142.222 289.858,141.677 289.314 C 140.546 288.183,137.934 286.974,135.725 286.560 C 134.879 286.401,133.899 285.871,133.490 285.351 C 133.089 284.841,131.868 283.924,130.777 283.312 C 129.686 282.700,128.693 281.885,128.570 281.500 C 128.447 281.115,128.206 280.800,128.035 280.800 C 127.864 280.800,127.201 280.341,126.562 279.781 C 121.905 275.698,118.851 274.364,114.159 274.364 C 106.212 274.364,104.772 274.952,102.797 279.005 C 102.102 280.432,101.395 281.600,101.226 281.600 C 99.028 281.600,99.309 313.556,101.540 317.200 C 102.011 317.970,102.398 318.933,102.399 319.340 C 102.401 320.812,104.944 324.274,106.800 325.332 C 107.790 325.896,109.084 326.815,109.675 327.372 C 110.892 328.520,112.792 329.315,116.000 330.019 C 117.210 330.285,118.470 330.712,118.800 330.968 C 119.825 331.765,124.505 333.600,125.512 333.600 C 125.780 333.600,126.873 334.229,127.943 334.997 C 130.068 336.524,133.289 337.345,138.892 337.788 C 140.699 337.930,143.360 338.514,145.292 339.192 C 148.796 340.420,153.917 341.409,158.686 341.779 C 161.272 341.980,162.884 342.322,167.600 343.669 C 171.882 344.893,203.906 345.503,209.600 344.468 C 211.030 344.209,213.010 343.846,214.000 343.662 C 214.990 343.478,216.512 343.023,217.382 342.650 C 218.253 342.277,220.413 341.810,222.182 341.613 C 227.985 340.966,230.556 340.370,232.610 339.194 C 233.724 338.557,235.437 337.921,236.417 337.780 C 240.094 337.252,242.779 336.295,244.348 334.952 C 245.217 334.208,246.192 333.600,246.515 333.600 C 247.827 333.600,251.773 331.753,253.137 330.500 C 253.676 330.005,254.530 329.600,255.036 329.600 C 256.039 329.600,258.337 328.389,260.157 326.901 C 260.793 326.381,262.178 325.518,263.235 324.982 C 264.291 324.447,265.300 323.778,265.478 323.495 C 265.890 322.838,267.814 321.608,268.486 321.573 C 269.071 321.543,273.194 316.706,273.800 315.338 C 274.020 314.842,274.827 314.018,275.594 313.506 C 276.361 312.995,277.196 312.160,277.449 311.652 C 277.702 311.144,278.562 310.113,279.359 309.360 C 280.157 308.608,281.097 307.275,281.448 306.396 C 281.799 305.518,282.220 304.800,282.382 304.800 C 283.063 304.800,284.312 303.268,285.155 301.400 C 286.146 299.202,286.071 299.333,287.860 296.656 C 288.641 295.487,289.281 293.854,289.544 292.361 C 289.824 290.772,290.335 289.519,291.046 288.677 C 292.253 287.247,293.578 284.559,293.591 283.512 C 293.596 283.133,294.050 281.840,294.600 280.637 C 295.150 279.435,295.600 278.116,295.600 277.706 C 295.600 277.296,295.752 276.789,295.938 276.580 C 297.129 275.243,297.400 269.947,297.400 248.000 L 297.400 225.800 296.205 223.400 C 295.548 222.080,294.879 220.903,294.717 220.784 C 294.556 220.665,294.147 219.765,293.809 218.784 C 293.069 216.637,292.322 215.088,291.864 214.754 C 291.441 214.445,290.608 213.015,289.793 211.200 C 288.454 208.219,288.176 207.769,287.077 206.818 C 286.453 206.278,285.688 205.229,285.378 204.486 C 285.020 203.628,284.377 202.971,283.617 202.684 C 282.797 202.374,282.226 201.747,281.804 200.693 C 281.374 199.619,280.790 198.988,279.870 198.604 C 278.666 198.101,277.600 196.645,277.600 195.505 C 277.600 194.831,273.148 190.816,272.100 190.546 C 271.605 190.418,271.200 190.171,271.200 189.997 C 271.200 189.101,268.309 186.888,266.829 186.651 C 265.951 186.511,264.789 185.992,264.247 185.498 C 262.386 183.802,260.930 182.848,259.766 182.561 C 259.125 182.403,257.941 181.713,257.135 181.028 C 255.529 179.664,252.426 178.395,250.700 178.398 C 250.095 178.399,249.600 178.241,249.600 178.046 C 249.600 177.732,249.035 177.426,245.800 175.991 C 244.409 175.374,240.692 174.400,239.727 174.400 C 239.217 174.400,238.800 174.253,238.800 174.074 C 238.800 173.518,235.549 171.858,232.305 170.757 C 230.603 170.179,228.983 169.521,228.705 169.295 C 227.775 168.537,221.749 166.945,218.400 166.574 C 216.970 166.415,215.710 166.156,215.600 165.999 C 215.068 165.240,209.144 162.814,207.200 162.560 C 205.990 162.402,204.460 161.976,203.800 161.615 C 200.877 160.014,197.109 159.072,191.653 158.577 C 189.101 158.345,188.409 158.101,186.488 156.756 C 184.278 155.208,182.232 154.406,180.477 154.402 C 179.969 154.401,178.889 153.870,178.077 153.223 C 176.383 151.873,173.904 150.985,170.946 150.668 C 169.575 150.522,168.178 149.998,166.746 149.093 C 165.566 148.348,163.839 147.440,162.909 147.076 C 161.980 146.712,160.395 145.602,159.388 144.609 C 158.381 143.617,157.162 142.701,156.679 142.574 C 155.412 142.242,153.827 139.976,152.996 137.310 C 152.601 136.039,152.154 134.910,152.004 134.800 C 150.680 133.830,150.253 123.207,151.463 121.359 C 151.828 120.802,152.607 118.964,153.194 117.273 C 153.928 115.156,154.538 114.060,155.154 113.751 C 155.646 113.504,156.445 112.964,156.930 112.551 C 164.301 106.274,164.935 105.999,173.513 105.364 C 179.855 104.895,182.798 104.360,186.200 103.059 C 187.849 102.428,193.971 102.598,197.600 103.374 C 199.250 103.728,203.030 104.277,206.000 104.594 C 208.970 104.912,213.146 105.364,215.281 105.599 C 219.045 106.012,221.564 106.744,222.800 107.785 C 223.620 108.475,227.102 109.600,228.418 109.600 C 229.010 109.600,230.682 110.208,232.133 110.951 C 233.585 111.695,236.342 112.703,238.261 113.193 C 240.391 113.736,242.305 114.508,243.175 115.176 C 243.959 115.777,245.919 116.769,247.531 117.382 C 249.143 117.994,250.554 118.735,250.666 119.028 C 250.779 119.321,251.710 119.871,252.735 120.249 C 253.761 120.628,254.780 121.063,255.000 121.217 C 255.220 121.370,256.030 121.611,256.800 121.751 C 257.678 121.911,258.552 122.453,259.145 123.203 C 259.665 123.861,260.297 124.400,260.551 124.400 C 261.249 124.400,263.964 125.934,265.616 127.261 C 269.272 130.199,278.821 130.491,280.694 127.723 C 281.082 127.149,281.880 126.198,282.468 125.610 C 285.317 122.754,285.599 121.379,285.754 109.600 C 285.959 94.021,285.487 90.341,282.943 87.681 C 282.250 86.955,281.573 85.785,281.441 85.081 C 281.179 83.692,279.702 81.656,277.800 80.066 C 276.417 78.910,274.906 78.405,272.826 78.402 C 271.235 78.401,270.430 78.193,269.826 77.630 C 268.365 76.268,265.066 74.879,262.600 74.589 C 261.232 74.428,259.856 74.004,259.400 73.603 C 257.626 72.044,254.016 71.173,246.806 70.566 C 244.869 70.403,242.893 69.991,242.206 69.606 C 241.542 69.235,239.920 68.614,238.600 68.225 C 237.280 67.836,235.692 67.361,235.071 67.169 C 234.450 66.978,232.020 66.709,229.671 66.572 C 227.073 66.420,224.573 66.025,223.288 65.562 C 218.439 63.817,190.838 62.930,182.034 64.236 M215.000 67.557 C 217.640 67.800,223.084 68.161,227.099 68.359 C 233.317 68.666,234.602 68.840,235.782 69.536 C 237.493 70.546,239.480 71.145,242.600 71.592 C 250.107 72.668,250.945 72.864,253.312 74.093 C 256.514 75.757,257.214 75.977,260.654 76.400 C 262.811 76.665,264.032 77.080,265.654 78.098 C 267.974 79.555,269.995 80.252,272.761 80.551 C 273.890 80.672,274.853 81.074,275.442 81.670 C 276.662 82.903,277.514 83.600,277.800 83.600 C 278.264 83.600,279.512 85.027,280.157 86.295 C 280.519 87.007,281.397 88.252,282.107 89.061 L 283.400 90.533 283.400 106.210 L 283.400 121.887 280.653 124.621 C 276.907 128.349,271.481 129.041,268.334 126.192 C 267.600 125.528,265.866 124.628,264.481 124.192 C 262.999 123.726,261.409 122.880,260.619 122.137 C 259.881 121.442,258.666 120.584,257.920 120.230 C 257.174 119.876,255.996 119.068,255.302 118.435 C 254.609 117.801,252.837 116.894,251.365 116.418 C 249.893 115.943,247.745 114.950,246.592 114.212 C 245.439 113.475,243.439 112.548,242.148 112.154 C 240.856 111.760,238.847 110.841,237.682 110.112 C 236.317 109.258,234.470 108.566,232.482 108.166 C 227.919 107.245,226.477 106.759,225.292 105.741 C 224.704 105.235,223.498 104.741,222.612 104.642 C 221.725 104.543,219.200 104.263,217.000 104.021 C 213.523 103.638,211.027 103.058,208.800 102.118 C 202.546 99.477,178.575 99.557,172.540 102.240 C 171.846 102.548,171.027 102.800,170.720 102.800 C 170.412 102.800,169.989 102.960,169.780 103.155 C 169.329 103.576,164.513 104.800,163.307 104.800 C 162.844 104.800,161.516 105.610,160.357 106.600 C 159.197 107.590,158.020 108.400,157.742 108.400 C 157.464 108.400,156.823 108.809,156.318 109.310 C 155.813 109.810,154.741 110.719,153.936 111.330 C 153.131 111.940,152.193 113.016,151.852 113.720 C 151.511 114.424,150.680 115.630,150.006 116.400 C 149.332 117.170,148.682 118.250,148.562 118.800 C 148.443 119.350,148.177 120.213,147.972 120.719 C 147.491 121.906,147.487 132.724,147.967 134.240 C 148.169 134.878,148.440 135.886,148.570 136.481 C 148.699 137.075,149.445 138.245,150.226 139.081 C 151.007 139.916,151.987 141.249,152.402 142.043 C 152.856 142.909,153.677 143.701,154.457 144.024 C 155.172 144.320,156.306 145.044,156.978 145.633 C 158.452 146.925,160.635 148.177,162.008 148.518 C 162.562 148.656,163.391 149.119,163.850 149.546 C 164.780 150.413,168.366 152.124,170.176 152.566 C 170.823 152.724,171.633 153.169,171.976 153.555 C 173.328 155.075,176.399 156.177,180.504 156.614 C 182.025 156.775,183.181 157.164,183.904 157.756 C 185.520 159.080,187.595 159.732,192.986 160.610 C 193.859 160.752,195.078 161.228,195.695 161.668 C 197.449 162.916,201.013 164.015,204.655 164.429 C 206.655 164.656,208.572 165.135,209.446 165.626 C 211.489 166.773,213.598 167.432,218.062 168.318 C 220.729 168.847,222.556 169.473,223.968 170.342 C 225.092 171.034,226.312 171.600,226.678 171.600 C 227.044 171.600,227.896 171.772,228.572 171.982 C 229.247 172.192,230.764 172.652,231.943 173.004 C 233.122 173.356,234.742 174.056,235.543 174.560 C 236.344 175.063,237.450 175.575,238.000 175.698 C 241.220 176.416,243.259 177.179,244.298 178.053 C 245.430 179.005,247.888 180.079,250.008 180.547 C 250.562 180.669,251.372 181.100,251.808 181.505 C 252.899 182.518,254.666 183.419,256.800 184.051 C 257.790 184.344,259.320 185.231,260.200 186.021 C 261.080 186.811,262.619 187.833,263.619 188.293 C 264.620 188.752,266.240 189.799,267.219 190.618 C 268.199 191.438,269.488 192.279,270.084 192.488 C 270.680 192.696,271.268 193.167,271.392 193.533 C 271.516 193.900,272.261 194.650,273.049 195.200 C 274.835 196.447,275.536 197.145,276.800 198.935 C 277.350 199.714,278.160 200.450,278.600 200.571 C 279.040 200.693,279.940 201.605,280.600 202.599 C 281.260 203.592,282.088 204.498,282.439 204.610 C 282.791 204.723,283.282 205.262,283.530 205.807 C 283.779 206.352,284.682 207.564,285.537 208.499 C 286.392 209.435,287.669 211.460,288.376 213.000 C 289.082 214.540,290.020 216.186,290.460 216.658 C 290.900 217.129,291.531 218.749,291.861 220.258 C 292.192 221.766,292.881 223.900,293.392 225.000 C 295.822 230.231,296.383 234.569,296.392 248.200 C 296.401 261.102,295.936 266.656,294.618 269.400 C 293.506 271.715,292.400 275.771,292.400 277.533 C 292.400 279.550,291.225 283.973,290.274 285.534 C 289.031 287.576,288.583 288.638,287.798 291.400 C 287.423 292.720,286.820 294.070,286.458 294.400 C 285.535 295.241,284.658 296.707,283.856 298.747 C 283.290 300.185,281.696 302.719,280.802 303.600 C 280.690 303.710,280.337 304.340,280.016 305.000 C 279.696 305.660,278.581 307.061,277.539 308.114 C 276.498 309.166,275.544 310.336,275.421 310.714 C 275.298 311.091,274.567 311.807,273.798 312.304 C 273.029 312.801,272.400 313.386,272.400 313.604 C 272.400 314.092,271.321 315.183,269.976 316.055 C 269.419 316.416,268.530 317.344,268.000 318.117 C 267.470 318.891,266.488 319.836,265.818 320.217 C 265.148 320.599,264.060 321.489,263.400 322.195 C 262.740 322.901,261.300 323.809,260.200 324.214 C 259.100 324.618,257.608 325.456,256.885 326.075 C 256.162 326.695,254.722 327.632,253.685 328.158 C 252.648 328.683,251.472 329.477,251.071 329.920 C 250.197 330.888,249.184 331.280,245.086 332.239 C 243.373 332.640,241.663 333.246,241.286 333.587 C 239.736 334.987,238.418 335.517,234.858 336.169 C 230.906 336.894,229.860 337.248,227.600 338.624 C 226.529 339.277,225.260 339.537,222.200 339.732 C 217.965 340.002,208.481 340.945,203.800 341.561 C 195.041 342.714,192.694 342.867,187.600 342.615 C 184.630 342.468,181.570 342.193,180.800 342.005 C 177.797 341.268,171.883 340.694,157.800 339.771 C 155.098 339.594,153.302 339.198,150.600 338.183 C 148.511 337.398,145.824 336.719,144.200 336.566 C 140.194 336.189,137.641 335.462,135.458 334.077 C 134.287 333.335,132.750 332.769,131.476 332.611 C 127.257 332.089,124.953 331.416,123.127 330.174 C 122.097 329.473,120.567 328.775,119.727 328.622 C 116.692 328.071,114.113 327.164,113.223 326.336 C 112.724 325.871,111.278 324.988,110.008 324.373 C 106.653 322.747,103.600 319.358,103.600 317.259 C 103.600 316.842,103.201 315.084,102.714 313.351 C 101.778 310.021,101.653 305.128,102.148 291.200 C 102.429 283.311,102.981 281.035,105.531 277.261 C 106.006 276.558,113.136 275.983,115.922 276.423 C 118.173 276.779,122.137 279.269,124.915 282.072 C 125.748 282.912,126.665 283.600,126.953 283.600 C 127.840 283.600,130.163 284.908,130.875 285.808 C 131.245 286.277,132.634 287.240,133.961 287.947 C 135.287 288.654,136.490 289.422,136.634 289.654 C 136.928 290.131,142.341 292.800,143.013 292.800 C 143.253 292.800,143.809 293.136,144.250 293.546 C 145.344 294.565,146.230 295.007,149.228 296.025 C 150.643 296.505,152.250 297.290,152.800 297.768 C 154.492 299.240,157.170 300.229,160.344 300.553 C 161.523 300.674,163.065 301.114,163.772 301.530 C 165.982 302.835,169.834 303.973,173.416 304.380 C 176.849 304.770,179.600 305.508,179.600 306.040 C 179.600 308.830,209.790 308.385,214.639 305.524 C 215.335 305.113,217.431 304.530,219.296 304.228 C 222.789 303.662,224.397 303.038,225.820 301.693 C 226.272 301.266,227.581 300.605,228.730 300.223 C 230.212 299.731,231.184 299.075,232.076 297.965 C 232.768 297.104,233.498 296.400,233.698 296.400 C 234.199 296.400,236.400 294.158,236.400 293.647 C 236.400 293.419,237.101 292.583,237.958 291.790 C 238.815 290.998,239.633 289.865,239.775 289.274 C 239.918 288.683,240.206 287.407,240.416 286.439 C 240.627 285.470,241.217 284.120,241.727 283.439 C 244.205 280.133,244.142 270.636,241.624 267.934 C 241.257 267.540,240.623 266.088,240.216 264.709 C 239.682 262.902,239.062 261.808,237.999 260.800 C 237.187 260.030,236.196 258.892,235.796 258.270 C 235.396 257.649,234.154 256.546,233.035 255.820 C 231.916 255.093,230.640 254.152,230.200 253.728 C 229.371 252.929,226.946 251.600,226.319 251.600 C 226.122 251.600,225.324 250.982,224.546 250.227 C 223.677 249.383,222.258 248.586,220.866 248.160 C 219.620 247.779,217.784 246.880,216.786 246.163 C 215.789 245.445,214.439 244.745,213.786 244.607 C 210.353 243.878,208.798 243.325,206.800 242.124 C 205.590 241.397,203.970 240.699,203.200 240.574 C 199.568 239.985,197.657 239.347,196.000 238.170 C 194.266 236.938,189.533 235.600,186.911 235.600 C 186.359 235.600,185.073 234.991,184.054 234.247 C 182.712 233.267,181.592 232.819,180.000 232.626 C 176.043 232.145,173.829 231.469,172.000 230.182 C 170.377 229.040,168.541 228.468,163.000 227.377 C 162.560 227.291,161.570 226.676,160.800 226.010 C 160.030 225.345,158.770 224.701,158.000 224.580 C 155.186 224.134,153.096 223.554,152.607 223.083 C 151.124 221.653,149.929 220.800,149.411 220.800 C 148.127 220.800,144.914 219.462,143.479 218.329 C 142.643 217.669,140.784 216.754,139.348 216.295 C 137.739 215.782,136.327 215.022,135.669 214.314 C 134.651 213.221,131.637 211.600,130.621 211.600 C 130.359 211.600,129.437 211.001,128.572 210.270 C 127.707 209.538,126.415 208.599,125.700 208.184 C 124.985 207.768,124.400 207.331,124.400 207.214 C 124.398 206.694,122.518 204.888,121.712 204.634 C 121.224 204.480,120.324 203.810,119.712 203.146 C 119.100 202.481,117.520 201.104,116.200 200.084 C 114.880 199.065,113.537 197.864,113.216 197.416 C 112.895 196.967,111.799 195.700,110.779 194.600 C 109.760 193.500,108.583 191.970,108.163 191.200 C 107.743 190.430,106.853 189.260,106.185 188.600 C 105.517 187.940,104.374 186.157,103.644 184.638 C 102.913 183.119,102.010 181.548,101.635 181.146 C 101.261 180.744,100.627 178.926,100.227 177.107 C 99.819 175.255,98.890 172.688,98.114 171.272 C 95.523 166.541,94.653 133.860,96.995 129.200 C 97.271 128.650,97.941 127.390,98.483 126.400 C 99.568 124.421,99.887 123.328,100.380 119.917 C 100.635 118.148,101.034 117.254,102.154 115.945 C 102.949 115.016,103.603 113.973,103.606 113.628 C 103.620 112.138,104.972 109.296,106.284 108.001 C 107.064 107.231,107.957 106.004,108.267 105.275 C 108.578 104.546,109.635 102.964,110.616 101.759 C 111.597 100.555,112.400 99.421,112.400 99.240 C 112.400 98.654,118.157 92.988,119.720 92.036 C 120.556 91.526,122.165 90.320,123.296 89.355 C 124.427 88.390,125.501 87.600,125.683 87.600 C 125.865 87.600,126.598 87.015,127.311 86.300 C 128.025 85.585,129.326 84.640,130.203 84.200 C 131.081 83.760,132.339 82.844,132.999 82.164 C 133.823 81.316,134.998 80.715,136.740 80.251 C 138.457 79.794,139.735 79.146,140.681 78.253 C 141.790 77.207,142.758 76.784,145.340 76.215 C 148.748 75.465,151.741 74.346,152.785 73.431 C 153.123 73.135,154.930 72.592,156.800 72.224 C 160.617 71.475,161.841 71.130,165.675 69.728 C 167.772 68.960,169.628 68.671,174.275 68.387 C 183.082 67.848,190.106 67.227,190.368 66.964 C 190.725 66.606,209.597 67.061,215.000 67.557 " stroke="none" fill="#e29b61" fill-rule="evenodd"></path><path id="path3" d="M191.100 67.082 C 191.595 67.178,192.405 67.178,192.900 67.082 C 193.395 66.987,192.990 66.909,192.000 66.909 C 191.010 66.909,190.605 66.987,191.100 67.082 M206.500 67.076 C 206.885 67.176,207.515 67.176,207.900 67.076 C 208.285 66.975,207.970 66.893,207.200 66.893 C 206.430 66.893,206.115 66.975,206.500 67.076 M169.400 68.681 C 168.740 68.770,167.030 69.272,165.600 69.797 C 164.170 70.322,162.484 70.861,161.853 70.995 C 161.222 71.129,160.798 71.331,160.911 71.444 C 161.200 71.733,166.965 70.515,169.600 69.609 C 170.810 69.193,172.250 68.775,172.800 68.680 C 174.073 68.462,171.026 68.463,169.400 68.681 M228.400 68.666 C 229.617 68.816,233.914 69.976,237.828 71.212 C 238.504 71.425,239.494 71.582,240.028 71.560 C 240.720 71.532,240.481 71.361,239.200 70.966 C 238.210 70.661,236.719 70.034,235.887 69.573 C 234.724 68.928,233.523 68.707,230.687 68.614 C 228.659 68.548,227.630 68.571,228.400 68.666 M242.800 72.000 C 243.350 72.176,244.430 72.317,245.200 72.313 L 246.600 72.305 245.400 72.000 C 243.639 71.552,241.401 71.552,242.800 72.000 M247.000 72.548 C 247.220 72.633,248.210 72.926,249.200 73.199 C 250.190 73.472,251.679 73.944,252.508 74.248 C 254.769 75.075,254.833 74.884,252.671 73.759 C 251.611 73.207,249.811 72.674,248.671 72.574 C 247.532 72.475,246.780 72.463,247.000 72.548 M152.041 73.834 C 150.273 75.090,150.938 75.059,153.000 73.790 C 153.880 73.248,154.330 72.819,154.000 72.836 C 153.670 72.854,152.788 73.303,152.041 73.834 M144.566 76.353 C 142.477 76.908,139.600 78.659,139.600 79.374 C 139.600 79.841,140.313 79.560,142.542 78.218 C 143.804 77.458,145.684 76.577,146.719 76.260 C 149.277 75.476,147.593 75.549,144.566 76.353 M261.400 76.746 C 262.060 76.928,263.656 77.654,264.946 78.359 C 266.237 79.064,267.364 79.569,267.451 79.483 C 267.846 79.087,263.371 76.781,261.874 76.608 C 260.489 76.449,260.407 76.472,261.400 76.746 M135.000 80.680 C 134.560 80.784,133.649 81.438,132.975 82.134 C 132.301 82.830,131.401 83.631,130.975 83.913 C 130.549 84.196,131.145 83.926,132.300 83.313 C 133.454 82.701,134.399 82.065,134.400 81.900 C 134.400 81.735,134.625 81.594,134.900 81.587 C 135.175 81.580,135.749 81.310,136.176 80.987 C 136.976 80.382,136.643 80.295,135.000 80.680 M272.890 80.762 C 273.490 80.962,274.650 81.677,275.468 82.352 C 276.286 83.026,277.055 83.468,277.178 83.334 C 277.300 83.200,277.165 83.007,276.879 82.905 C 276.592 82.803,275.961 82.292,275.476 81.769 C 274.992 81.247,273.967 80.725,273.198 80.609 C 271.950 80.422,271.917 80.438,272.890 80.762 M278.504 84.616 C 279.107 85.175,279.600 85.800,279.600 86.004 C 279.600 86.209,280.026 87.327,280.547 88.488 C 283.066 94.108,283.000 93.623,283.000 106.400 C 283.000 119.725,282.770 121.033,279.811 124.502 C 278.117 126.488,274.658 127.830,272.928 127.173 C 272.389 126.968,271.522 126.800,271.003 126.800 C 270.483 126.800,269.816 126.558,269.520 126.263 C 268.774 125.517,267.194 124.705,267.229 125.086 C 267.326 126.144,269.931 127.519,272.006 127.607 C 277.404 127.835,277.328 127.860,280.497 124.760 L 283.400 121.919 283.400 106.226 L 283.400 90.533 282.107 89.061 C 281.397 88.252,280.519 87.007,280.157 86.295 C 279.469 84.942,278.256 83.600,277.721 83.600 C 277.549 83.600,277.901 84.057,278.504 84.616 M119.792 91.931 C 117.712 93.313,113.497 97.547,112.269 99.486 C 111.742 100.319,110.656 101.782,109.855 102.738 C 109.055 103.694,108.400 104.647,108.400 104.856 C 108.400 105.382,109.930 103.790,111.721 101.400 C 112.545 100.300,115.150 97.465,117.510 95.100 C 119.869 92.735,121.710 90.814,121.600 90.831 C 121.490 90.848,120.676 91.343,119.792 91.931 M208.600 101.883 C 209.531 102.817,219.233 104.901,219.836 104.297 C 219.946 104.187,218.993 103.967,217.718 103.809 C 215.475 103.530,210.637 102.408,209.000 101.786 C 208.466 101.583,208.333 101.615,208.600 101.883 M168.600 103.200 C 168.464 103.420,168.623 103.600,168.953 103.600 C 169.283 103.600,169.664 103.420,169.800 103.200 C 169.936 102.980,169.777 102.800,169.447 102.800 C 169.117 102.800,168.736 102.980,168.600 103.200 M165.800 104.000 L 165.000 104.344 165.800 104.344 C 166.240 104.344,166.960 104.189,167.400 104.000 L 168.200 103.656 167.400 103.656 C 166.960 103.656,166.240 103.811,165.800 104.000 M160.734 105.599 C 160.220 106.039,159.260 106.849,158.600 107.399 C 157.940 107.949,157.591 108.399,157.824 108.400 C 158.057 108.400,159.197 107.590,160.357 106.600 C 161.516 105.610,162.286 104.800,162.067 104.800 C 161.847 104.800,161.248 105.160,160.734 105.599 M225.059 105.519 C 226.092 106.524,228.572 107.610,229.749 107.573 C 230.693 107.543,230.825 107.619,226.800 105.882 C 225.810 105.455,224.820 105.010,224.600 104.894 C 224.380 104.777,224.587 105.059,225.059 105.519 M105.884 108.414 C 105.068 109.301,104.404 110.336,104.409 110.714 C 104.414 111.117,104.683 110.864,105.059 110.100 C 105.412 109.385,105.837 108.800,106.004 108.800 C 106.171 108.800,106.603 108.350,106.963 107.800 C 107.890 106.386,107.593 106.554,105.884 108.414 M154.862 110.062 C 154.126 110.719,153.590 111.323,153.670 111.404 C 153.751 111.484,154.425 111.019,155.169 110.369 C 155.913 109.720,156.449 109.116,156.361 109.027 C 156.272 108.939,155.597 109.404,154.862 110.062 M245.600 113.590 C 246.871 114.571,250.584 116.403,251.275 116.390 C 251.564 116.384,250.990 115.961,250.000 115.450 C 249.010 114.938,247.570 114.133,246.800 113.661 C 245.061 112.595,244.249 112.547,245.600 113.590 M101.652 116.544 C 101.166 117.062,100.684 118.186,100.581 119.043 C 100.477 119.899,100.498 120.330,100.626 120.000 C 101.205 118.508,101.811 117.345,102.347 116.698 C 103.244 115.614,102.650 115.482,101.652 116.544 M254.800 117.764 C 254.800 118.186,256.556 119.583,257.868 120.206 C 258.617 120.561,259.827 121.401,260.559 122.072 C 261.732 123.148,265.906 125.027,266.285 124.649 C 266.363 124.571,265.434 124.021,264.221 123.428 C 263.008 122.834,261.909 122.177,261.779 121.967 C 261.650 121.757,260.611 121.118,259.472 120.548 C 258.332 119.977,256.815 119.071,256.100 118.535 C 255.385 117.998,254.800 117.651,254.800 117.764 M147.340 128.000 C 147.340 129.870,147.409 130.635,147.493 129.700 C 147.577 128.765,147.577 127.235,147.493 126.300 C 147.409 125.365,147.340 126.130,147.340 128.000 M97.361 128.300 C 96.857 129.058,96.603 130.269,96.544 132.200 L 96.459 135.000 96.770 132.600 C 96.941 131.280,97.369 129.525,97.720 128.700 C 98.478 126.921,98.363 126.793,97.361 128.300 M95.891 139.000 C 95.734 140.540,95.631 143.240,95.661 145.000 C 95.709 147.791,95.760 147.535,96.060 143.000 C 96.442 137.213,96.334 134.655,95.891 139.000 M156.200 145.710 C 157.300 146.720,159.190 148.045,160.400 148.656 C 161.610 149.266,162.690 149.882,162.800 150.024 C 163.376 150.768,171.600 153.728,171.600 153.192 C 171.600 153.011,171.015 152.736,170.300 152.579 C 168.476 152.180,164.845 150.473,163.850 149.546 C 163.391 149.119,162.562 148.656,162.008 148.518 C 160.649 148.181,158.421 146.926,157.200 145.811 C 156.650 145.309,155.750 144.668,155.200 144.386 C 154.629 144.094,155.059 144.663,156.200 145.710 M95.746 155.800 C 95.747 158.000,95.814 158.849,95.895 157.687 C 95.976 156.524,95.976 154.724,95.893 153.687 C 95.811 152.649,95.745 153.600,95.746 155.800 M180.400 157.034 C 181.390 157.396,182.290 157.807,182.400 157.946 C 183.139 158.884,189.000 160.675,190.089 160.296 C 190.370 160.198,189.808 159.981,188.841 159.814 C 186.799 159.461,185.014 158.713,183.600 157.619 C 183.050 157.193,181.700 156.739,180.600 156.610 L 178.600 156.376 180.400 157.034 M96.101 161.400 C 96.105 162.280,96.187 162.593,96.283 162.095 C 96.379 161.598,96.375 160.878,96.275 160.495 C 96.175 160.113,96.096 160.520,96.101 161.400 M192.228 160.742 C 192.903 160.922,194.057 161.370,194.793 161.736 C 196.401 162.539,196.815 162.364,195.441 161.463 C 194.899 161.109,193.679 160.728,192.728 160.617 C 191.332 160.454,191.236 160.478,192.228 160.742 M205.000 164.635 C 205.440 164.749,206.520 165.185,207.400 165.603 C 210.223 166.943,212.076 167.601,212.949 167.573 C 213.730 167.548,213.718 167.512,212.800 167.134 C 212.250 166.908,210.900 166.292,209.800 165.766 C 208.700 165.240,206.990 164.724,206.000 164.618 C 205.010 164.513,204.560 164.520,205.000 164.635 M96.610 166.942 C 96.771 168.621,98.292 172.241,98.676 171.857 C 98.750 171.784,98.415 170.841,97.933 169.762 C 97.451 168.683,96.914 167.170,96.741 166.400 C 96.479 165.243,96.457 165.338,96.610 166.942 M214.600 168.000 C 215.040 168.189,215.850 168.338,216.400 168.332 L 217.400 168.320 216.400 168.000 C 215.850 167.824,215.040 167.674,214.600 167.668 L 213.800 167.656 214.600 168.000 M218.200 168.639 C 219.849 169.063,223.097 170.337,224.900 171.267 C 225.285 171.466,225.600 171.545,225.600 171.443 C 225.600 170.859,221.112 168.837,219.400 168.651 C 218.300 168.531,217.760 168.526,218.200 168.639 M227.200 172.000 C 227.530 172.213,228.070 172.388,228.400 172.388 C 228.933 172.388,228.933 172.345,228.400 172.000 C 228.070 171.787,227.530 171.612,227.200 171.612 C 226.667 171.612,226.667 171.655,227.200 172.000 M229.600 172.672 C 229.930 172.787,231.460 173.478,233.000 174.208 C 234.540 174.938,236.880 175.838,238.200 176.209 C 239.520 176.580,241.835 177.505,243.344 178.264 C 244.854 179.023,246.189 179.545,246.311 179.422 C 246.433 179.300,246.337 179.200,246.097 179.200 C 245.858 179.200,245.090 178.719,244.391 178.131 C 243.271 177.188,241.274 176.428,238.000 175.698 C 237.450 175.575,236.357 175.071,235.572 174.578 C 233.959 173.565,230.721 172.384,229.686 172.432 C 229.139 172.457,229.122 172.506,229.600 172.672 M100.652 178.550 C 100.733 179.183,100.800 179.824,100.800 179.975 C 100.800 180.126,101.141 180.615,101.558 181.063 C 101.975 181.510,102.910 183.119,103.636 184.638 C 104.758 186.988,106.084 188.800,106.682 188.800 C 106.769 188.800,106.412 188.215,105.887 187.500 C 105.363 186.785,104.454 185.063,103.867 183.673 C 103.280 182.283,102.368 180.573,101.840 179.873 C 101.313 179.173,100.796 178.330,100.692 178.000 C 100.588 177.670,100.570 177.918,100.652 178.550 M250.000 181.097 C 250.770 181.471,251.638 182.007,251.929 182.288 C 252.219 182.570,252.637 182.800,252.857 182.800 C 253.077 182.800,253.019 182.568,252.729 182.284 C 251.633 181.213,250.194 180.400,249.411 180.409 C 248.820 180.416,248.980 180.602,250.000 181.097 M255.200 183.769 C 255.200 183.862,255.866 184.158,256.679 184.426 C 257.493 184.695,258.618 185.347,259.179 185.875 C 260.573 187.188,262.791 188.543,263.077 188.257 C 263.205 188.128,262.881 187.856,262.355 187.654 C 261.830 187.451,260.950 186.794,260.400 186.194 C 259.195 184.880,255.200 183.017,255.200 183.769 M264.411 189.077 C 264.955 189.449,265.490 189.858,265.600 189.986 C 266.063 190.524,268.074 191.643,267.809 191.215 C 267.403 190.558,264.369 188.400,263.851 188.400 C 263.615 188.400,263.867 188.705,264.411 189.077 M110.794 194.700 C 114.948 199.228,115.325 199.608,115.488 199.446 C 115.578 199.355,115.146 198.752,114.526 198.104 C 113.907 197.457,112.522 195.909,111.449 194.664 C 110.376 193.419,109.315 192.400,109.091 192.400 C 108.867 192.400,109.634 193.435,110.794 194.700 M274.224 196.454 C 274.677 196.674,275.374 197.461,275.774 198.204 C 276.174 198.946,276.765 199.654,277.087 199.778 C 277.426 199.908,277.242 199.453,276.652 198.702 C 274.895 196.465,274.416 195.999,273.900 196.027 C 273.625 196.042,273.771 196.234,274.224 196.454 M279.146 201.638 C 279.726 202.319,280.965 203.733,281.900 204.780 C 282.835 205.826,283.600 206.874,283.600 207.108 C 283.600 207.342,283.735 207.593,283.900 207.667 C 284.882 208.103,289.600 215.815,289.600 216.984 C 289.600 217.121,289.942 217.601,290.361 218.050 C 290.779 218.499,291.328 219.684,291.579 220.682 C 292.247 223.335,292.436 222.607,291.795 219.849 C 291.495 218.560,290.892 217.121,290.455 216.652 C 290.017 216.184,289.082 214.540,288.376 213.000 C 287.669 211.460,286.392 209.435,285.537 208.499 C 284.682 207.564,283.779 206.352,283.530 205.807 C 283.282 205.262,282.791 204.722,282.439 204.608 C 282.088 204.494,281.350 203.739,280.800 202.929 C 279.628 201.205,278.870 200.400,278.417 200.400 C 278.239 200.400,278.566 200.957,279.146 201.638 M119.420 202.909 C 119.528 203.188,120.017 203.662,120.508 203.961 C 121.359 204.480,121.355 204.456,120.430 203.453 C 119.348 202.277,119.134 202.162,119.420 202.909 M124.064 206.754 C 124.323 207.168,125.089 207.829,125.767 208.223 C 126.445 208.617,127.707 209.538,128.572 210.270 C 129.437 211.001,130.337 211.594,130.572 211.587 C 130.807 211.580,130.640 211.312,130.200 210.991 C 129.760 210.669,128.950 210.038,128.400 209.587 C 125.870 207.513,123.620 206.042,124.064 206.754 M136.224 214.987 C 136.651 215.310,137.180 215.575,137.400 215.575 C 137.620 215.575,137.451 215.310,137.024 214.987 C 136.596 214.664,136.067 214.400,135.847 214.400 C 135.627 214.400,135.796 214.664,136.224 214.987 M138.400 216.000 C 138.730 216.213,139.270 216.388,139.600 216.388 C 140.133 216.388,140.133 216.345,139.600 216.000 C 139.270 215.787,138.730 215.612,138.400 215.612 C 137.867 215.612,137.867 215.655,138.400 216.000 M141.114 216.783 C 141.616 217.004,142.696 217.712,143.514 218.357 C 144.331 219.002,145.861 219.816,146.914 220.165 C 149.390 220.987,150.271 220.950,148.200 220.111 C 147.320 219.754,145.658 218.868,144.507 218.141 C 143.356 217.414,141.916 216.720,141.307 216.600 C 140.285 216.398,140.270 216.412,141.114 216.783 M150.400 221.209 C 150.400 221.424,150.537 221.600,150.704 221.600 C 150.871 221.600,151.487 222.044,152.072 222.586 C 153.160 223.595,156.335 224.635,157.276 224.291 C 157.564 224.185,157.260 223.967,156.600 223.806 C 154.943 223.402,152.400 222.301,152.400 221.987 C 152.400 221.845,151.950 221.523,151.400 221.273 C 150.792 220.996,150.400 220.970,150.400 221.209 M293.725 227.100 C 294.378 229.025,295.061 231.230,295.242 232.000 C 295.503 233.108,295.530 232.959,295.370 231.284 C 295.170 229.190,294.994 228.613,293.541 225.300 C 292.366 222.620,292.435 223.299,293.725 227.100 M159.280 224.969 C 159.874 225.278,160.771 225.914,161.272 226.382 C 161.774 226.849,162.638 227.317,163.192 227.422 C 163.746 227.527,164.968 227.790,165.906 228.006 C 166.844 228.223,167.834 228.397,168.106 228.394 C 168.887 228.384,167.511 227.613,166.700 227.606 C 166.315 227.603,164.516 226.880,162.702 226.000 C 159.686 224.537,156.766 223.657,159.280 224.969 M170.400 228.946 C 170.400 229.418,174.010 231.469,175.561 231.879 C 177.909 232.499,179.262 232.557,178.400 232.000 C 178.070 231.787,177.440 231.606,177.000 231.599 C 176.560 231.592,174.940 230.960,173.400 230.194 C 170.482 228.742,170.400 228.708,170.400 228.946 M182.400 232.932 C 182.400 233.548,186.158 235.598,187.265 235.586 C 188.477 235.573,188.327 235.443,185.646 234.186 C 182.686 232.797,182.400 232.687,182.400 232.932 M295.724 247.800 C 295.658 260.546,295.408 265.268,294.616 268.800 C 294.441 269.580,294.522 269.521,294.985 268.530 C 296.199 265.929,296.971 242.243,296.065 235.400 C 295.919 234.300,295.766 239.880,295.724 247.800 M196.504 238.494 C 197.569 239.403,202.190 240.744,202.655 240.279 C 202.780 240.154,202.188 239.923,201.341 239.765 C 200.493 239.608,198.990 239.109,198.000 238.657 C 195.389 237.464,195.285 237.453,196.504 238.494 M204.632 240.940 C 205.310 241.250,206.570 241.941,207.432 242.474 C 209.007 243.449,212.331 244.603,212.648 244.285 C 212.741 244.192,211.959 243.790,210.909 243.392 C 209.859 242.995,208.365 242.272,207.589 241.786 C 206.814 241.300,205.554 240.784,204.789 240.639 L 203.400 240.375 204.632 240.940 M215.200 244.900 C 215.200 245.236,218.750 247.600,219.254 247.600 C 219.802 247.600,219.252 247.178,216.700 245.639 C 215.875 245.142,215.200 244.809,215.200 244.900 M231.200 254.551 C 231.200 254.669,232.010 255.241,233.000 255.821 C 233.990 256.401,235.193 257.444,235.675 258.138 C 236.661 259.560,239.600 262.436,239.600 261.980 C 239.600 261.817,238.998 261.154,238.262 260.508 C 237.526 259.862,236.605 258.793,236.215 258.134 C 235.826 257.474,235.213 256.759,234.853 256.544 C 234.494 256.329,233.525 255.744,232.700 255.244 C 231.875 254.744,231.200 254.432,231.200 254.551 M106.538 276.677 C 105.441 276.892,102.978 281.479,102.606 284.000 C 101.676 290.299,101.682 309.573,102.614 313.000 C 103.597 316.617,103.816 315.360,103.236 309.419 C 102.608 302.993,102.675 288.444,103.348 285.000 C 104.371 279.768,105.701 277.995,109.600 276.667 C 110.310 276.426,107.784 276.434,106.538 276.677 M115.378 276.658 C 115.806 276.785,116.796 277.285,117.578 277.769 C 118.360 278.253,119.854 279.043,120.897 279.525 C 121.941 280.007,123.361 280.986,124.053 281.701 C 124.897 282.572,125.164 282.716,124.862 282.137 C 124.049 280.579,118.090 276.727,116.249 276.569 C 115.342 276.491,114.950 276.531,115.378 276.658 M291.588 280.060 C 291.333 281.017,290.497 283.108,289.731 284.707 C 288.965 286.305,288.421 287.835,288.522 288.107 C 288.638 288.415,288.826 288.300,289.024 287.800 C 289.199 287.360,289.752 286.340,290.254 285.534 C 290.756 284.728,291.448 282.857,291.791 281.376 C 292.485 278.386,292.320 277.318,291.588 280.060 M127.235 284.113 C 127.584 284.381,128.539 285.140,129.358 285.800 C 131.069 287.180,137.451 290.584,136.756 289.747 C 136.502 289.441,135.227 288.621,133.922 287.926 C 132.617 287.230,131.245 286.277,130.875 285.808 C 130.187 284.938,127.831 283.590,127.039 283.613 C 126.797 283.620,126.886 283.845,127.235 284.113 M240.811 284.971 C 240.585 285.565,240.408 286.355,240.418 286.726 C 240.427 287.097,240.689 286.687,241.000 285.815 C 241.630 284.046,241.457 283.271,240.811 284.971 M287.888 289.333 C 287.410 290.549,287.524 291.573,288.039 290.687 C 288.267 290.296,288.391 289.666,288.315 289.287 C 288.188 288.660,288.151 288.664,287.888 289.333 M237.656 292.013 C 237.136 292.446,236.898 292.800,237.127 292.800 C 237.531 292.800,238.800 291.716,238.800 291.371 C 238.800 291.099,238.658 291.178,237.656 292.013 M287.200 292.062 C 287.200 292.316,286.778 293.081,286.262 293.762 C 285.747 294.443,285.107 295.450,284.840 296.000 C 284.385 296.940,284.392 296.952,284.960 296.200 C 285.292 295.760,285.920 295.040,286.355 294.600 C 287.125 293.822,287.931 291.600,287.443 291.600 C 287.310 291.600,287.200 291.808,287.200 292.062 M143.885 293.964 C 145.251 294.864,146.601 295.593,146.885 295.584 C 147.168 295.575,146.874 295.283,146.230 294.935 C 145.587 294.587,144.698 293.964,144.255 293.551 C 143.812 293.138,143.318 292.800,143.157 292.800 C 142.997 292.800,142.536 292.694,142.133 292.564 C 141.730 292.435,142.518 293.065,143.885 293.964 M148.400 296.080 C 148.950 296.315,150.277 296.916,151.349 297.416 C 152.700 298.047,153.102 298.131,152.661 297.689 C 152.311 297.340,151.164 296.726,150.112 296.327 C 148.085 295.557,146.706 295.358,148.400 296.080 M283.393 298.815 C 282.991 299.707,282.459 300.564,282.212 300.719 C 281.965 300.873,281.030 302.170,280.135 303.600 C 279.241 305.030,277.770 307.010,276.867 308.000 C 275.964 308.990,274.454 310.676,273.513 311.747 C 272.571 312.818,271.319 314.213,270.731 314.847 C 270.143 315.481,269.801 316.000,269.972 316.000 C 270.451 316.000,272.400 314.091,272.400 313.623 C 272.400 313.394,273.029 312.801,273.798 312.304 C 274.567 311.807,275.298 311.091,275.421 310.714 C 275.544 310.336,276.498 309.166,277.539 308.114 C 278.581 307.061,279.696 305.660,280.016 305.000 C 280.337 304.340,280.690 303.710,280.802 303.600 C 281.608 302.806,283.236 300.289,283.769 299.013 C 284.634 296.941,284.314 296.772,283.393 298.815 M160.800 301.316 C 162.732 302.380,167.482 303.851,167.838 303.496 C 167.956 303.377,167.381 303.058,166.559 302.787 C 165.738 302.515,164.510 301.967,163.833 301.567 C 163.155 301.167,161.790 300.724,160.800 300.582 L 159.000 300.324 160.800 301.316 M227.217 300.693 C 226.896 300.819,226.176 301.368,225.617 301.912 C 224.533 302.966,224.965 302.799,227.156 301.317 C 228.450 300.441,228.474 300.198,227.217 300.693 M169.000 303.981 C 169.768 304.329,171.910 304.556,171.567 304.253 C 171.475 304.172,170.680 303.996,169.800 303.862 C 168.685 303.693,168.442 303.729,169.000 303.981 M174.200 304.768 C 178.272 305.620,178.614 305.662,177.953 305.236 C 177.597 305.007,176.247 304.733,174.953 304.627 C 172.989 304.466,172.864 304.489,174.200 304.768 M103.628 316.908 C 103.577 318.914,106.299 322.507,108.879 323.841 C 109.742 324.287,109.313 323.730,107.456 321.992 C 105.441 320.107,104.658 319.056,104.226 317.653 C 103.764 316.153,103.650 316.011,103.628 316.908 M267.254 318.543 C 266.767 319.061,265.430 319.960,264.282 320.541 C 263.135 321.121,261.742 322.002,261.187 322.498 C 260.632 322.994,259.553 323.752,258.789 324.181 C 258.025 324.611,256.970 325.394,256.444 325.920 C 255.917 326.446,254.657 327.231,253.643 327.663 C 251.713 328.487,250.958 328.864,248.000 330.482 C 247.010 331.024,245.684 331.595,245.053 331.753 C 244.422 331.910,243.999 332.133,244.114 332.247 C 244.228 332.362,245.015 332.271,245.861 332.046 C 246.707 331.821,247.892 331.536,248.493 331.412 C 249.094 331.289,250.174 330.675,250.893 330.048 C 251.612 329.421,252.960 328.522,253.889 328.051 C 254.818 327.580,256.168 326.690,256.889 326.072 C 257.610 325.454,259.100 324.618,260.200 324.214 C 261.300 323.809,262.740 322.901,263.400 322.195 C 264.060 321.489,265.140 320.601,265.800 320.222 C 266.460 319.843,267.323 319.098,267.719 318.566 C 268.634 317.335,268.399 317.323,267.254 318.543 M112.800 326.003 C 114.259 327.255,115.499 327.834,115.887 327.446 C 116.012 327.321,115.774 327.093,115.357 326.939 C 114.941 326.785,114.043 326.241,113.362 325.729 C 111.571 324.385,111.152 324.589,112.800 326.003 M123.145 330.200 C 124.265 330.970,125.500 331.600,125.890 331.599 C 126.281 331.598,125.556 330.968,124.280 330.199 C 121.278 328.389,120.513 328.389,123.145 330.200 M240.680 333.608 C 240.115 334.053,239.056 334.676,238.327 334.992 C 237.544 335.333,237.293 335.575,237.714 335.584 C 238.464 335.601,240.067 334.690,241.375 333.503 C 242.438 332.540,241.944 332.615,240.680 333.608 M137.200 335.200 C 137.530 335.413,138.070 335.588,138.400 335.588 C 138.933 335.588,138.933 335.545,138.400 335.200 C 138.070 334.987,137.530 334.812,137.200 334.812 C 136.667 334.812,136.667 334.855,137.200 335.200 M140.200 336.000 C 140.640 336.189,141.630 336.335,142.400 336.325 L 143.800 336.305 142.600 336.000 C 140.803 335.543,139.136 335.543,140.200 336.000 M145.300 336.676 C 145.685 336.776,146.315 336.776,146.700 336.676 C 147.085 336.575,146.770 336.493,146.000 336.493 C 145.230 336.493,144.915 336.575,145.300 336.676 M147.641 336.974 C 148.547 337.880,154.497 339.594,156.591 339.552 L 159.000 339.504 157.200 339.122 C 156.210 338.911,154.011 338.303,152.314 337.770 C 149.566 336.906,147.164 336.497,147.641 336.974 M228.600 337.261 C 227.940 337.480,227.040 337.816,226.600 338.008 C 226.160 338.200,224.900 338.618,223.800 338.937 L 221.800 339.517 224.020 339.558 C 225.241 339.581,226.411 339.434,226.620 339.230 C 226.829 339.027,227.900 338.402,229.000 337.841 C 231.016 336.812,230.818 336.526,228.600 337.261 M160.100 339.876 C 160.485 339.976,161.115 339.976,161.500 339.876 C 161.885 339.775,161.570 339.693,160.800 339.693 C 160.030 339.693,159.715 339.775,160.100 339.876 M218.100 339.876 C 218.485 339.976,219.115 339.976,219.500 339.876 C 219.885 339.775,219.570 339.693,218.800 339.693 C 218.030 339.693,217.715 339.775,218.100 339.876 M163.505 340.283 C 164.002 340.379,164.722 340.375,165.105 340.275 C 165.487 340.175,165.080 340.096,164.200 340.101 C 163.320 340.105,163.007 340.187,163.505 340.283 M176.900 341.476 C 177.285 341.576,177.915 341.576,178.300 341.476 C 178.685 341.375,178.370 341.293,177.600 341.293 C 176.830 341.293,176.515 341.375,176.900 341.476 M181.083 341.971 C 181.568 342.186,184.988 342.447,188.683 342.551 C 193.319 342.682,194.409 342.643,192.200 342.425 C 185.822 341.797,180.166 341.566,181.083 341.971 " stroke="none" fill="#fcb474" fill-rule="evenodd"></path><path id="path4" d="M189.600 67.264 C 174.494 68.508,171.677 68.834,169.683 69.566 C 168.518 69.994,165.998 70.635,164.083 70.992 C 162.167 71.349,159.880 71.804,159.000 72.005 C 158.120 72.205,156.770 72.489,156.000 72.636 C 155.230 72.783,153.619 73.426,152.419 74.065 C 151.220 74.703,148.974 75.610,147.428 76.080 C 145.882 76.549,143.857 77.416,142.927 78.005 C 141.998 78.595,140.374 79.384,139.319 79.759 C 136.980 80.590,134.758 81.650,134.143 82.228 C 133.892 82.464,132.639 83.184,131.359 83.828 C 130.079 84.473,128.575 85.421,128.016 85.935 C 127.457 86.449,126.303 87.320,125.452 87.870 C 124.601 88.420,123.416 89.350,122.820 89.935 C 122.224 90.521,119.973 92.710,117.819 94.800 C 115.664 96.890,113.076 99.680,112.069 101.000 C 111.061 102.320,109.956 103.670,109.613 104.000 C 109.270 104.330,108.469 105.410,107.834 106.400 C 107.198 107.390,106.300 108.586,105.837 109.057 C 105.374 109.529,104.644 110.969,104.215 112.257 C 103.785 113.546,103.119 115.140,102.734 115.800 C 101.485 117.940,100.887 119.355,100.197 121.800 C 99.825 123.120,99.371 124.560,99.189 125.000 C 97.111 130.020,96.862 131.137,96.381 137.600 C 95.421 150.513,96.005 165.279,97.625 169.059 C 98.082 170.126,98.691 171.539,98.978 172.199 C 99.602 173.633,100.800 177.521,100.800 178.108 C 100.800 178.337,101.250 179.114,101.800 179.835 C 102.349 180.556,103.285 182.283,103.879 183.673 C 105.689 187.907,109.999 193.608,115.200 198.647 C 118.750 202.086,121.407 204.392,121.825 204.396 C 122.059 204.398,122.779 204.963,123.425 205.652 C 124.071 206.340,125.545 207.516,126.700 208.264 C 127.855 209.012,128.800 209.758,128.800 209.921 C 128.800 210.085,129.430 210.529,130.200 210.909 C 130.970 211.289,132.242 211.915,133.027 212.300 C 133.812 212.685,134.757 213.271,135.127 213.603 C 136.386 214.732,137.796 215.452,140.199 216.195 C 141.519 216.603,143.499 217.507,144.599 218.205 C 145.700 218.902,147.905 219.967,149.500 220.571 C 151.095 221.176,152.400 221.800,152.400 221.958 C 152.400 222.419,157.615 224.400,158.830 224.400 C 159.145 224.400,160.888 225.120,162.702 226.000 C 164.516 226.880,166.225 227.603,166.500 227.606 C 167.355 227.616,170.488 228.783,173.084 230.057 C 175.689 231.336,177.203 231.808,180.735 232.440 C 181.909 232.650,183.709 233.243,184.735 233.758 C 186.912 234.850,190.800 236.221,192.800 236.602 C 193.570 236.748,195.460 237.458,197.000 238.178 C 198.540 238.899,201.240 239.812,203.000 240.209 C 204.760 240.606,206.830 241.318,207.600 241.791 C 208.987 242.644,212.473 244.093,214.400 244.617 C 214.950 244.767,216.274 245.420,217.343 246.068 C 218.412 246.716,220.212 247.608,221.343 248.052 C 222.474 248.495,223.850 249.267,224.400 249.767 C 224.950 250.267,226.615 251.342,228.100 252.157 C 229.585 252.972,230.802 253.765,230.804 253.920 C 230.807 254.074,231.860 254.805,233.144 255.544 C 234.429 256.284,235.805 257.439,236.202 258.111 C 236.599 258.783,237.493 259.833,238.189 260.444 C 239.000 261.157,239.726 262.389,240.210 263.878 C 240.625 265.155,241.107 266.371,241.282 266.580 C 241.457 266.789,241.600 267.284,241.600 267.680 C 241.600 268.076,241.751 268.400,241.936 268.400 C 244.103 268.400,243.952 279.580,241.724 284.058 C 241.216 285.080,240.800 286.109,240.800 286.344 C 240.800 287.207,239.506 290.551,238.961 291.096 C 238.653 291.405,238.400 291.812,238.400 292.002 C 238.400 292.191,238.081 292.447,237.692 292.571 C 237.303 292.694,236.654 293.408,236.251 294.157 C 235.848 294.906,234.907 295.847,234.159 296.250 C 233.412 296.653,232.800 297.114,232.800 297.275 C 232.800 297.830,230.599 299.606,228.950 300.382 C 228.040 300.809,226.623 301.616,225.801 302.174 C 224.075 303.345,222.511 303.837,218.600 304.439 C 217.060 304.676,215.254 305.185,214.586 305.571 C 210.449 307.960,189.025 308.833,182.200 306.891 C 175.939 305.110,174.901 304.861,172.600 304.594 C 169.132 304.190,162.941 302.495,160.827 301.369 C 159.826 300.836,158.735 300.397,158.403 300.394 C 157.414 300.384,155.142 299.475,152.800 298.151 C 151.590 297.467,149.610 296.573,148.400 296.164 C 147.190 295.755,145.480 294.976,144.600 294.432 C 143.078 293.491,140.899 292.308,133.909 288.627 C 132.209 287.732,130.439 286.674,129.976 286.275 C 129.513 285.877,128.203 284.895,127.067 284.093 C 125.930 283.291,124.504 282.133,123.897 281.518 C 123.291 280.904,121.941 280.007,120.897 279.525 C 119.854 279.043,118.280 278.190,117.400 277.630 C 113.203 274.958,106.416 276.724,104.448 281.000 C 102.236 285.806,102.273 313.093,104.498 318.418 C 105.219 320.141,109.545 324.200,111.067 324.580 C 111.690 324.735,112.740 325.264,113.400 325.754 C 115.187 327.083,117.285 327.964,119.880 328.477 C 121.156 328.730,122.895 329.371,123.745 329.902 C 126.219 331.447,128.428 332.255,130.989 332.552 C 132.302 332.704,134.102 333.239,134.989 333.742 C 137.441 335.133,140.673 335.894,147.200 336.619 C 148.410 336.753,150.390 337.201,151.600 337.614 C 156.734 339.368,159.339 339.704,183.200 341.690 C 190.715 342.316,197.646 342.323,202.400 341.710 C 204.490 341.440,208.630 340.935,211.600 340.586 C 223.070 339.241,224.434 339.005,226.600 337.986 C 227.703 337.468,231.989 336.401,232.984 336.397 C 234.459 336.391,238.862 334.866,240.345 333.846 C 241.145 333.296,242.700 332.554,243.800 332.196 C 246.296 331.385,248.304 330.489,249.600 329.608 C 250.150 329.234,251.649 328.500,252.931 327.978 C 254.213 327.455,255.756 326.555,256.360 325.978 C 256.963 325.402,258.069 324.586,258.817 324.165 C 259.565 323.744,260.632 322.994,261.187 322.498 C 261.742 322.002,263.117 321.130,264.243 320.560 C 266.132 319.605,269.173 316.708,273.648 311.600 C 274.515 310.610,275.964 308.990,276.867 308.000 C 277.770 307.010,279.243 305.030,280.141 303.600 C 281.039 302.170,281.921 300.938,282.101 300.862 C 282.281 300.786,283.076 299.437,283.868 297.864 C 284.661 296.291,285.720 294.463,286.223 293.802 C 286.726 293.141,287.260 292.060,287.409 291.400 C 287.884 289.294,289.264 285.458,290.214 283.600 C 291.191 281.689,292.028 278.923,292.818 275.000 C 293.083 273.680,293.738 271.250,294.273 269.600 C 295.583 265.557,296.403 246.496,295.666 237.229 C 295.183 231.158,292.084 220.093,290.276 217.980 C 289.904 217.546,289.600 217.088,289.600 216.963 C 289.600 215.811,284.871 208.098,283.900 207.667 C 283.735 207.593,283.600 207.314,283.600 207.045 C 283.600 206.777,282.958 205.937,282.174 205.178 C 281.389 204.420,280.399 203.238,279.972 202.551 C 279.546 201.864,278.572 200.874,277.808 200.351 C 277.045 199.828,276.104 198.815,275.719 198.100 C 275.333 197.385,274.879 196.800,274.709 196.800 C 274.540 196.800,273.636 196.056,272.700 195.146 C 271.765 194.236,269.830 192.757,268.400 191.858 C 266.970 190.960,265.561 189.993,265.268 189.709 C 264.975 189.425,263.805 188.749,262.668 188.206 C 261.531 187.662,260.049 186.697,259.377 186.060 C 258.704 185.423,257.714 184.765,257.177 184.596 C 255.836 184.176,251.846 182.351,251.600 182.047 C 251.321 181.700,249.752 180.957,247.400 180.056 C 246.300 179.635,244.320 178.749,243.000 178.088 C 241.680 177.426,239.520 176.581,238.200 176.210 C 236.880 175.839,234.540 174.938,233.000 174.209 C 231.460 173.480,229.120 172.563,227.800 172.171 C 226.480 171.780,224.500 171.062,223.400 170.576 C 220.708 169.387,219.269 168.897,217.600 168.604 C 213.036 167.800,209.591 166.782,207.400 165.589 C 206.740 165.230,205.062 164.714,203.672 164.442 C 200.662 163.855,196.814 162.666,194.600 161.639 C 193.720 161.231,192.190 160.777,191.200 160.630 C 186.711 159.963,183.110 158.863,182.400 157.940 C 182.290 157.797,181.210 157.378,180.000 157.008 C 178.790 156.638,177.387 156.170,176.881 155.968 C 176.376 155.766,175.704 155.600,175.387 155.600 C 175.071 155.600,173.954 155.075,172.906 154.433 C 171.858 153.791,169.830 152.882,168.400 152.412 C 165.549 151.476,163.112 150.432,162.800 150.013 C 162.690 149.866,161.700 149.314,160.600 148.788 C 159.500 148.262,157.880 147.182,157.000 146.389 C 156.120 145.595,154.812 144.539,154.094 144.041 C 153.376 143.544,152.496 142.566,152.140 141.868 C 151.783 141.171,150.912 140.032,150.204 139.337 C 147.667 136.849,146.015 122.658,148.025 120.620 C 148.231 120.411,148.400 119.850,148.400 119.373 C 148.400 117.279,153.554 110.756,156.969 108.527 C 158.653 107.427,158.833 107.290,160.482 105.830 C 161.077 105.303,162.157 104.756,162.882 104.614 C 165.818 104.041,168.222 103.434,168.600 103.170 C 168.820 103.016,169.803 102.758,170.785 102.596 C 171.766 102.434,172.846 102.155,173.185 101.977 C 177.021 99.957,200.675 99.576,207.449 101.425 C 213.342 103.034,215.702 103.552,219.895 104.157 C 222.497 104.533,225.277 105.206,226.495 105.755 C 229.056 106.909,232.905 108.235,234.800 108.617 C 235.570 108.773,236.660 109.225,237.223 109.622 C 237.786 110.020,239.046 110.644,240.023 111.010 C 241.000 111.375,242.160 111.823,242.600 112.004 C 243.040 112.186,244.008 112.527,244.751 112.764 C 245.493 113.000,246.933 113.704,247.951 114.328 C 248.968 114.952,250.700 115.795,251.800 116.201 C 252.900 116.607,254.610 117.516,255.600 118.221 C 256.590 118.925,258.332 119.970,259.472 120.543 C 260.611 121.116,261.654 121.763,261.789 121.982 C 261.923 122.200,263.598 123.132,265.509 124.052 C 267.420 124.973,269.225 125.968,269.520 126.263 C 269.816 126.558,270.483 126.800,271.003 126.800 C 271.522 126.800,272.389 126.968,272.928 127.173 C 274.658 127.830,278.117 126.488,279.811 124.502 C 282.770 121.033,283.000 119.725,283.000 106.400 C 283.000 93.658,283.062 94.117,280.602 88.600 C 280.111 87.500,279.589 86.240,279.440 85.800 C 279.093 84.772,274.169 81.171,272.600 80.797 C 271.940 80.639,270.410 80.278,269.200 79.994 C 267.990 79.710,265.920 78.897,264.600 78.188 C 263.280 77.478,261.390 76.771,260.400 76.617 C 259.410 76.463,257.070 75.792,255.200 75.127 C 251.241 73.718,249.741 73.284,247.000 72.757 C 245.900 72.545,244.131 72.198,243.069 71.986 C 242.008 71.774,240.670 71.600,240.098 71.600 C 239.525 71.600,238.504 71.425,237.828 71.212 C 230.177 68.796,230.904 68.897,209.000 67.201 C 203.038 66.740,195.674 66.763,189.600 67.264 M221.600 69.541 C 225.645 69.853,230.322 70.910,232.416 71.986 C 232.755 72.160,234.555 72.431,236.416 72.589 C 242.972 73.147,246.538 73.842,248.714 74.986 C 249.876 75.598,252.126 76.362,253.714 76.684 C 255.301 77.006,257.410 77.436,258.400 77.640 C 259.390 77.843,261.039 78.530,262.064 79.166 C 263.258 79.906,265.201 80.573,267.464 81.019 C 270.357 81.589,271.436 82.024,273.400 83.408 C 274.720 84.338,276.340 85.375,277.000 85.713 C 278.484 86.471,280.400 92.487,280.400 96.386 C 280.400 97.252,280.594 98.864,280.831 99.969 C 281.136 101.393,281.138 102.591,280.836 104.089 C 280.594 105.295,280.540 107.058,280.711 108.200 C 281.255 111.832,280.022 121.382,278.800 123.004 C 278.025 124.032,274.012 125.704,273.433 125.240 C 273.195 125.049,272.370 124.761,271.600 124.600 C 270.830 124.439,270.020 124.165,269.800 123.992 C 269.580 123.818,268.353 123.372,267.074 123.002 C 265.794 122.631,264.651 122.078,264.534 121.773 C 264.274 121.095,260.397 118.951,258.797 118.599 C 258.159 118.459,257.535 118.026,257.412 117.637 C 257.178 116.901,252.625 114.400,251.519 114.400 C 251.171 114.400,250.786 114.139,250.663 113.821 C 250.397 113.127,248.333 112.010,246.400 111.514 C 245.630 111.316,244.280 110.974,243.400 110.753 C 242.520 110.532,241.440 110.025,241.000 109.626 C 239.520 108.283,237.621 107.528,233.868 106.789 C 232.805 106.580,231.455 106.079,230.868 105.676 C 228.736 104.213,224.960 103.258,218.605 102.576 C 217.287 102.434,215.757 101.999,215.205 101.609 C 209.856 97.831,174.560 97.803,167.850 101.572 C 167.092 101.998,165.481 102.529,164.271 102.753 C 161.363 103.291,159.183 104.228,158.200 105.362 C 157.760 105.870,157.040 106.400,156.600 106.540 C 156.160 106.681,155.260 107.243,154.600 107.790 C 152.951 109.157,152.741 109.365,151.600 110.764 C 151.050 111.439,150.240 112.398,149.799 112.895 C 148.380 114.498,147.728 115.749,147.035 118.200 C 146.661 119.520,146.065 121.230,145.709 122.000 C 144.640 124.317,144.509 131.177,145.514 132.233 C 146.042 132.788,146.402 133.921,146.595 135.633 C 146.898 138.323,148.106 140.526,149.524 140.976 C 149.923 141.102,150.567 141.928,150.957 142.811 C 151.431 143.887,152.150 144.666,153.133 145.170 C 153.940 145.585,154.927 146.483,155.326 147.167 C 155.727 147.854,156.711 148.686,157.526 149.027 C 158.337 149.365,159.450 150.061,160.000 150.572 C 161.381 151.857,162.176 152.213,165.400 152.996 C 166.940 153.370,169.100 154.257,170.200 154.968 C 171.300 155.679,173.550 156.607,175.200 157.030 C 176.850 157.453,179.029 158.354,180.042 159.033 C 181.817 160.223,186.972 161.601,189.644 161.600 C 190.218 161.600,191.298 162.005,192.044 162.500 C 194.364 164.040,195.278 164.353,199.400 165.021 C 201.600 165.378,203.794 165.921,204.274 166.227 C 206.616 167.720,208.005 168.327,209.628 168.566 C 214.908 169.341,216.843 169.839,219.200 171.030 C 220.630 171.753,223.059 172.634,224.598 172.989 C 226.136 173.343,228.386 174.196,229.598 174.882 C 230.809 175.569,233.465 176.535,235.499 177.029 C 237.931 177.620,239.617 178.280,240.418 178.953 C 241.088 179.517,242.393 180.186,243.318 180.440 C 246.309 181.259,248.326 182.071,249.071 182.756 C 249.988 183.599,252.513 184.800,253.368 184.800 C 254.107 184.800,256.572 186.305,257.882 187.556 C 258.367 188.019,259.708 188.770,260.862 189.225 C 262.017 189.680,263.184 190.370,263.456 190.759 C 263.729 191.148,265.132 192.047,266.574 192.757 C 268.092 193.505,269.634 194.622,270.236 195.412 C 270.808 196.162,271.979 197.086,272.838 197.465 C 273.697 197.844,274.400 198.396,274.400 198.691 C 274.400 199.643,275.664 201.192,276.949 201.815 C 277.687 202.173,278.481 203.032,278.887 203.911 C 279.264 204.730,280.179 206.030,280.921 206.800 C 281.662 207.570,282.926 209.235,283.729 210.500 C 284.533 211.765,285.375 212.800,285.602 212.800 C 286.080 212.800,286.924 214.646,287.599 217.167 C 287.859 218.139,288.589 219.450,289.220 220.081 C 290.120 220.982,290.507 221.936,291.015 224.514 C 291.937 229.193,292.345 230.660,293.542 233.600 L 294.600 236.200 294.523 249.132 C 294.477 256.745,294.286 262.256,294.058 262.532 C 293.846 262.789,293.545 263.677,293.390 264.504 C 293.236 265.332,292.950 266.107,292.755 266.228 C 292.560 266.349,292.400 266.876,292.400 267.400 C 292.400 267.924,292.238 268.453,292.041 268.575 C 291.843 268.697,291.563 270.103,291.418 271.698 C 291.022 276.055,290.349 278.917,289.530 279.717 C 288.445 280.778,287.741 282.725,286.944 286.868 C 286.322 290.100,286.067 290.717,284.949 291.699 C 283.672 292.819,282.400 295.701,282.400 297.471 C 282.400 297.983,282.158 298.400,281.861 298.400 C 280.931 298.400,279.612 299.841,279.352 301.141 C 279.129 302.255,277.481 304.399,276.845 304.401 C 276.710 304.401,276.094 305.202,275.476 306.180 C 274.858 307.158,273.598 308.741,272.676 309.698 C 270.709 311.740,269.200 313.645,269.200 314.087 C 269.200 314.259,268.947 314.400,268.638 314.400 C 268.328 314.400,267.428 315.300,266.638 316.400 C 265.848 317.500,264.937 318.400,264.613 318.400 C 263.306 318.400,259.200 321.084,259.200 321.939 C 259.200 322.108,258.457 322.574,257.548 322.975 C 255.765 323.761,254.689 324.669,254.282 325.731 C 254.141 326.099,253.680 326.400,253.258 326.400 C 251.679 326.400,248.351 327.765,246.898 329.009 C 245.955 329.816,244.729 330.409,243.616 330.597 C 241.196 331.006,238.720 332.116,237.495 333.341 C 236.655 334.182,235.753 334.470,232.338 334.991 C 226.644 335.859,224.500 336.362,222.400 337.325 C 215.918 340.298,164.687 340.553,159.200 337.640 C 157.139 336.546,151.412 335.460,143.050 334.578 C 141.757 334.441,140.096 333.991,139.358 333.576 C 138.620 333.162,136.797 332.530,135.308 332.172 C 133.819 331.814,131.508 331.258,130.173 330.936 C 128.838 330.614,127.258 329.931,126.662 329.419 C 125.160 328.128,121.056 326.800,118.572 326.800 C 117.964 326.800,117.122 326.333,116.477 325.639 C 115.410 324.488,112.732 323.081,110.796 322.654 C 110.244 322.533,109.476 321.899,109.091 321.246 C 108.705 320.593,107.803 319.696,107.086 319.253 C 105.094 318.022,104.799 315.527,104.753 299.562 C 104.708 283.759,104.927 282.043,107.173 280.604 C 107.958 280.101,108.865 279.309,109.188 278.845 C 110.072 277.575,113.777 277.637,115.300 278.947 C 116.204 279.724,118.482 280.714,121.909 281.818 C 122.189 281.908,122.539 282.301,122.687 282.691 C 123.076 283.720,123.708 284.267,125.248 284.911 C 125.998 285.224,127.189 286.138,127.894 286.940 C 128.599 287.743,129.323 288.400,129.503 288.400 C 130.036 288.400,132.463 289.723,134.472 291.109 C 135.502 291.819,136.555 292.400,136.812 292.400 C 137.622 292.400,140.133 293.705,141.945 295.068 C 142.904 295.790,144.301 296.495,145.049 296.636 C 145.797 296.776,146.507 297.050,146.628 297.245 C 146.749 297.440,147.176 297.600,147.579 297.600 C 147.981 297.600,149.230 298.233,150.354 299.006 C 151.699 299.931,153.485 300.671,155.580 301.172 C 157.674 301.672,159.281 302.338,160.281 303.120 C 161.528 304.095,162.444 304.395,165.400 304.795 C 171.803 305.663,172.552 305.828,175.817 307.096 C 183.365 310.028,210.362 309.936,216.194 306.959 C 218.104 305.983,219.010 305.730,224.048 304.764 C 225.686 304.450,226.812 303.906,228.197 302.762 C 229.243 301.898,230.571 301.078,231.149 300.940 C 232.505 300.617,233.200 300.053,233.627 298.928 C 233.817 298.430,234.614 297.754,235.400 297.426 C 236.376 297.018,237.013 296.388,237.409 295.440 C 237.728 294.676,238.529 293.732,239.190 293.342 C 240.094 292.808,240.595 292.018,241.221 290.138 C 241.677 288.766,242.354 287.227,242.725 286.719 C 244.438 284.371,244.552 283.860,244.725 277.718 C 244.940 270.083,244.710 268.540,242.977 266.021 C 242.220 264.920,241.600 263.756,241.600 263.433 C 241.600 263.111,241.443 262.750,241.252 262.632 C 241.060 262.514,240.792 261.862,240.657 261.185 C 240.374 259.772,239.739 259.025,238.481 258.626 C 237.996 258.472,237.600 258.017,237.600 257.614 C 237.600 256.923,235.133 254.400,234.458 254.400 C 234.285 254.400,233.324 253.615,232.323 252.656 C 231.322 251.697,229.987 250.783,229.355 250.625 C 228.724 250.466,227.368 249.734,226.344 248.998 C 225.319 248.261,223.621 247.367,222.571 247.011 C 221.520 246.654,220.377 246.039,220.031 245.644 C 219.009 244.480,216.212 243.288,212.900 242.605 C 212.185 242.457,211.600 242.199,211.600 242.032 C 211.600 241.325,207.552 239.613,204.400 238.986 C 202.492 238.607,200.649 237.990,200.200 237.582 C 198.932 236.427,195.171 235.192,191.090 234.588 C 189.937 234.418,188.976 234.015,188.665 233.572 C 187.844 232.399,184.393 231.352,178.900 230.609 C 177.745 230.453,176.800 230.152,176.800 229.940 C 176.800 229.387,173.082 227.832,169.673 226.959 C 168.063 226.546,166.443 225.931,166.073 225.591 C 165.183 224.774,162.481 223.811,158.829 223.010 C 157.136 222.639,155.587 222.047,155.229 221.635 C 154.502 220.800,150.801 219.036,148.905 218.622 C 148.192 218.466,147.502 218.165,147.371 217.953 C 146.833 217.083,144.029 215.685,141.408 214.981 C 139.552 214.483,138.212 213.839,137.408 213.061 C 136.744 212.417,135.381 211.507,134.380 211.037 C 132.774 210.285,131.280 209.313,129.717 208.004 C 129.451 207.782,129.046 207.600,128.817 207.600 C 128.588 207.600,128.400 207.440,128.400 207.245 C 128.400 207.049,127.770 206.771,127.000 206.626 C 126.162 206.469,125.600 206.130,125.600 205.782 C 125.600 204.941,124.439 203.910,122.528 203.054 C 121.515 202.599,120.778 201.966,120.644 201.434 C 120.524 200.954,119.698 200.153,118.808 199.653 C 117.919 199.153,116.942 198.262,116.637 197.672 C 116.332 197.082,115.344 196.007,114.441 195.281 C 113.539 194.556,112.800 193.741,112.800 193.470 C 112.800 192.949,111.904 192.080,110.247 190.994 C 109.693 190.631,109.025 189.674,108.762 188.867 C 108.499 188.060,107.848 186.876,107.314 186.236 C 106.233 184.939,105.013 182.407,104.614 180.636 C 104.470 179.996,103.756 178.775,103.026 177.922 C 102.297 177.070,101.590 175.794,101.455 175.087 C 100.612 170.674,100.249 169.499,98.900 166.800 L 97.400 163.800 97.419 150.200 C 97.439 136.609,97.439 136.598,98.467 133.800 C 99.771 130.250,100.598 127.296,101.212 124.000 C 101.520 122.348,102.187 120.640,103.041 119.317 C 103.780 118.172,104.508 116.462,104.658 115.517 C 104.967 113.572,105.977 111.592,107.613 109.726 C 108.227 109.026,108.953 107.833,109.227 107.076 C 109.501 106.318,110.242 105.393,110.874 105.020 C 111.507 104.646,112.386 103.569,112.830 102.627 C 113.273 101.684,114.068 100.715,114.596 100.474 C 115.125 100.234,115.876 99.533,116.265 98.918 C 116.654 98.303,117.323 97.530,117.751 97.200 C 118.950 96.276,120.542 94.656,121.137 93.755 C 121.433 93.308,122.266 92.623,122.990 92.233 C 123.714 91.844,124.491 91.119,124.716 90.624 C 124.942 90.128,125.948 89.336,126.952 88.864 C 127.956 88.393,129.065 87.568,129.416 87.032 C 129.824 86.409,130.874 85.803,132.327 85.352 C 133.742 84.913,135.128 84.123,136.000 83.260 C 136.770 82.498,137.940 81.729,138.600 81.553 C 139.260 81.377,140.662 81.013,141.715 80.745 C 142.782 80.474,144.174 79.738,144.859 79.083 C 145.764 78.219,146.950 77.702,149.345 77.131 C 151.147 76.701,153.582 75.766,154.800 75.037 C 157.118 73.648,159.813 72.988,164.800 72.590 C 168.036 72.332,170.360 71.743,173.205 70.461 C 176.559 68.948,206.525 68.379,221.600 69.541 " stroke="none" fill="#fcbc84" fill-rule="evenodd"></path></g></svg>