<?xml version="1.0" encoding="utf-8"?>
<!-- Generator: Adobe Illustrator 19.2.1, SVG Export Plug-In . SVG Version: 6.00 Build 0)  -->
<svg version="1.1" id="layer" xmlns="http://www.w3.org/2000/svg" xmlns:xlink="http://www.w3.org/1999/xlink" x="0px" y="0px"
	 viewBox="0 0 652 652" style="enable-background:new 0 0 652 652;" xml:space="preserve">
<style type="text/css">
	.st0{fill:#E30F18;}
	.st1{fill:#FEFEFE;}
</style>
<polygon id="Fill-1" class="st0" points="76,552 576,552 576,52 76,52 "/>
<path class="st1" d="M126.7,345.3v-56.7h27.6v55.5c0,13.5,3.4,20,15.1,20c11.4,0,15.1-6.1,15.1-20.4v-55.1h27.8v56.3
	c0,27.7-16.4,40.7-42.9,40.7C142.1,385.6,126.7,372,126.7,345.3 M216.3,288.6h27.8l12.4,59.5l12.9-59.5h24.5l14,60l13-60h25.5
	L324,384h-28.8l-14.8-60.6L265.5,384h-26.9L216.3,288.6z M167,477.7c8.7,0,12.8-4,12.8-11.1V466c0-7.2-3.9-10.9-13.6-10.9h-10.6
	v22.5H167z M166,438.4c8.6,0,11.8-2.9,11.8-9.7v-0.5c0-6.5-3.5-9.5-11.8-9.5h-10.5v19.7H166z M128.7,400.6h42.9
	c22.7,0,32.4,10.1,32.4,24.9v0.5c0,10.7-5.5,17.7-16.3,20.5c11.8,2,19.2,9.1,19.2,22.3v0.5c0,17.1-11.2,26.5-35,26.5h-43.3V400.6z
	 M214.3,426.2h24.1V440c4.4-10.4,11.8-14.9,22.7-14.8v22.3c-14.7-0.4-22.7,4.1-22.7,15.3v33.1h-24.1V426.2z M268.4,495.9h24.1v-69.8
	h-24.1V495.9z M267.2,407.2c0-7.1,5.6-12.4,13.2-12.4c7.5,0,13.3,5.3,13.3,12.4c0,7.1-5.8,12.3-13.3,12.3
	C272.9,419.5,267.2,414.3,267.2,407.2L267.2,407.2z M300,473.8h22.2c0.8,5.1,3.1,7.9,9.9,7.9c5.9,0,8.6-2.3,8.6-5.7
	c0-3.3-3.4-4.9-13-6.3c-18.8-2.4-26.8-7.9-26.8-22.4c0-15.5,13.8-22.9,30.1-22.9c17.3,0,29.4,5.9,31.1,22.5h-21.8
	c-0.9-4.7-3.5-6.9-9-6.9c-5.2,0-7.9,2.3-7.9,5.5c0,3.3,3.2,4.7,11.8,5.7c19.5,2.4,28.9,7.5,28.9,22.4c0,16.5-12.4,24-31.9,24
	C312.2,497.5,300.5,489.3,300,473.8 M375.5,473.5v-31.1h-8.5v-16.3h8.5v-14.5h24.1v14.5h13.8v16.3h-13.8v28.8c0,5.1,2.6,7.3,7.1,7.3
	c2.7,0,4.7-0.4,6.9-1.2v18.1c-3.1,0.8-7.7,2-13.3,2C384.4,497.5,375.5,489.9,375.5,473.5 M470,461.5v-1.1c0-11.7-4.7-18.3-13.9-18.3
	c-9,0-14,6.3-14,18v1.1c0,12,4.7,18.5,14,18.5C465.2,479.8,470,473.1,470,461.5 M417.6,461.9v-1.1c0-22.4,16.8-36.5,38.6-36.5
	c21.6,0,38.3,13.7,38.3,35.9v1.1c0,22.7-16.8,36.3-38.5,36.3C434.4,497.5,417.6,484.5,417.6,461.9 M502.7,495.9h23.9v-95.4h-23.9
	V495.9z M378,362.9v-17.3h24.8h6.3v-19.5h-6.3H378v-16.4h39v-21.1h-66.4V384h68.6v-21.1H378z"/>
</svg>
