<?xml version="1.0" encoding="utf-8"?>
<!-- Generator: Adobe Illustrator 24.0.1, SVG Export Plug-In . SVG Version: 6.00 Build 0)  -->
<svg xmlns:xlink="http://www.w3.org/1999/xlink" version="1.0" id="Layer_1" xmlns="http://www.w3.org/2000/svg" x="0px"
     y="0px"
     viewBox="0 0 134.2 128.5" style="enable-background:new 0 0 134.2 128.5;" xml:space="preserve">
<style type="text/css">
	.st0{clip-path:url(#SVGID_2_);}
	.st1{fill:#1F386A;}
	.st2{fill:#CE0F69;}
</style>
    <g id="Layer_2_1_">
	<g id="Layer_1-2">
		<g>
			<defs>
				<rect id="SVGID_1_" x="-244" width="625.6" height="222.9"/>
			</defs>
            <clipPath id="SVGID_2_">
				<use xlink:href="#SVGID_1_" style="overflow:visible;"/>
			</clipPath>
            <g class="st0">
				<path class="st1"
                      d="M49.5,3.2C89,23.6,94.6,67.8,69,100.2c3.2,1.5,6,3,9.7,3.5C105.2,70.8,100.4,21.1,49.9,0L49.5,3.2z"/>
                <path class="st2"
                      d="M49.5,3.2c-12.2,13-19.2,29.9-19.9,47.7c-3.1,2.1-6,4.5-8.7,7.1c-3.1-16.5,8.5-44.6,28.9-58L49.5,3.2z"/>
                <path class="st1" d="M80.2,44c1,3.3,1.6,6.7,1.6,10.2C42.9,47,5.2,73.2,6.7,118.1c16.5,4.2,35.8,3.5,51.3-5.9
					c2.4,1.5,6.6,2.7,10.3,4.1c-12.6,11.7-43,14.3-64.7,2.9C-2.6,64.7,38.3,36.6,80.2,44"/>
                <path class="st2" d="M26.1,72.7c2.4-2.9,5-4.5,7.9-6.6c14.6,38.4,57.8,55.9,95.4,31c-5.5-16.7-17-30.8-32.2-39.5
					c-0.2-3.7-0.8-7.4-1.7-11c16.2,5.7,34.6,27.8,36.7,52.2C89.2,133.2,41.2,111.9,26.1,72.7"/>
			</g>
		</g>
	</g>
</g>
</svg>
